<?xml version="1.0" encoding="UTF-8"?>
<svg id="Layer_1" xmlns="http://www.w3.org/2000/svg" version="1.1" xmlns:xlink="http://www.w3.org/1999/xlink" viewBox="0 0 500 500">
  <!-- Generator: Adobe Illustrator 29.8.2, SVG Export Plug-In . SVG Version: 2.1.1 Build 3)  -->
  <defs>
    <style>
      .st0 {
        fill: none;
      }

      .st1 {
        fill: #444;
      }

      .st2 {
        clip-path: url(#clippath);
      }
    </style>
    <clipPath id="clippath">
      <path class="st0" d="M388,28v84h84V28h-84ZM400,40h60v60h-60v-60ZM364,28v12h12v-12h-12ZM352,28v12h12v-12h-12ZM340,28v12h12v-12h-12ZM328,28v12h12v-12h-12ZM316,28v60h12V28h-12ZM292,28v12h12v-12h-12ZM256,28v12h12v-12h-12ZM232,28v12h12v-12h-12ZM208,28v36h12V28h-12ZM196,28v12h12v-12h-12ZM184,28v24h12v-24h-12ZM172,28v12h12v-12h-12ZM160,28v12h12v-12h-12ZM148,28v48h12V28h-12ZM28,28v84h84V28H28ZM40,40h60v60h-60v-60ZM304,40v24h12v-24h-12ZM244,40v24h12v-24h-12ZM136,40v12h12v-12h-12ZM124,40v12h12v-12h-12ZM412,52v36h36v-36h-36ZM352,52v12h12v-12h-12ZM340,52v12h12v-12h-12ZM256,52v12h12v-12h-12ZM232,52v12h12v-12h-12ZM172,52v12h12v-12h-12ZM52,52v36h36v-36h-36ZM364,64v24h12v-24h-12ZM292,64v24h12v-24h-12ZM280,64v36h12v-36h-12ZM196,64v24h12v-24h-12ZM340,76v12h12v-12h-12ZM244,76v12h12v-12h-12ZM232,76v12h12v-12h-12ZM220,76v36h12v-36h-12ZM160,76v24h12v-24h-12ZM304,88v12h12v-12h-12ZM268,88v24h12v-24h-12ZM208,88v12h12v-12h-12ZM172,88v24h12v-24h-12ZM148,88v48h12v-48h-12ZM136,88v12h12v-12h-12ZM364,100v24h12v-24h-12ZM340,100v12h12v-12h-12ZM316,100v12h12v-12h-12ZM292,100v24h12v-24h-12ZM244,100v12h12v-12h-12ZM196,100v12h12v-12h-12ZM124,100v48h12v-48h-12ZM352,112v24h12v-24h-12ZM328,112v36h12v-36h-12ZM280,112v12h12v-12h-12ZM208,112v24h12v-24h-12ZM184,112v24h12v-24h-12ZM160,112v12h12v-12h-12ZM136,112v36h12v-36h-12ZM448,124v12h12v-12h-12ZM388,124v12h12v-12h-12ZM376,124v24h12v-24h-12ZM316,124v12h12v-12h-12ZM304,124v24h12v-24h-12ZM256,124v24h12v-24h-12ZM232,124v12h12v-12h-12ZM220,124v60h12v-60h-12ZM196,124v60h12v-60h-12ZM172,124v12h12v-12h-12ZM100,124v12h12v-12h-12ZM40,124v36h12v-36h-12ZM28,124v48h12v-48h-12ZM400,136v144h12v-144h-12ZM364,136v12h12v-12h-12ZM340,136v12h12v-12h-12ZM244,136v24h12v-24h-12ZM160,136v24h12v-24h-12ZM112,136v12h12v-12h-12ZM88,136v12h12v-12h-12ZM76,136v60h12v-60h-12ZM64,136v60h12v-60h-12ZM52,136v12h12v-12h-12ZM460,148v24h12v-24h-12ZM448,148v24h12v-24h-12ZM436,148v12h12v-12h-12ZM424,148v36h12v-36h-12ZM412,148v12h12v-12h-12ZM388,148v12h12v-12h-12ZM352,148v12h12v-12h-12ZM316,148v12h12v-12h-12ZM280,148v12h12v-12h-12ZM268,148v24h12v-24h-12ZM184,148v24h12v-24h-12ZM100,148v12h12v-12h-12ZM376,160v12h12v-12h-12ZM364,160v12h12v-12h-12ZM340,160v48h12v-48h-12ZM328,160v12h12v-12h-12ZM304,160v12h12v-12h-12ZM232,160v12h12v-12h-12ZM148,160v12h12v-12h-12ZM124,160v12h12v-12h-12ZM88,160v12h12v-12h-12ZM52,160v12h12v-12h-12ZM412,172v72h12v-72h-12ZM388,172v48h12v-48h-12ZM352,172v60h12v-60h-12ZM292,172v12h12v-12h-12ZM280,172v36h12v-36h-12ZM172,172v24h12v-24h-12ZM100,172v12h12v-12h-12ZM40,172v48h12v-48h-12ZM460,184v36h12v-36h-12ZM364,184v12h12v-12h-12ZM268,184v12h12v-12h-12ZM256,184v24h12v-24h-12ZM232,184v48h12v-48h-12ZM208,184v12h12v-12h-12ZM160,184v12h12v-12h-12ZM148,184v24h12v-24h-12ZM136,184v12h12v-12h-12ZM88,184v36h12v-36h-12ZM52,184v24h12v-24h-12ZM28,184v72h12v-72h-12ZM436,196v12h12v-12h-12ZM376,196v12h12v-12h-12ZM244,196v12h12v-12h-12ZM196,196v48h12v-48h-12ZM124,196v24h12v-24h-12ZM100,196v12h12v-12h-12ZM304,208v36h12v-36h-12ZM268,208v36h12v-36h-12ZM220,208v24h12v-24h-12ZM172,208v48h12v-48h-12ZM160,208v24h12v-24h-12ZM64,208v36h12v-36h-12ZM448,220v60h12v-60h-12ZM424,220v24h12v-24h-12ZM340,220v12h12v-12h-12ZM328,220v12h12v-12h-12ZM292,220v36h12v-36h-12ZM280,220v12h12v-12h-12ZM244,220v12h12v-12h-12ZM208,220v12h12v-12h-12ZM100,220v12h12v-12h-12ZM76,220v24h12v-24h-12ZM436,232v36h12v-36h-12ZM388,232v12h12v-12h-12ZM256,232v48h12v-48h-12ZM184,232v12h12v-12h-12ZM52,232v12h12v-12h-12ZM40,232v12h12v-12h-12ZM364,244v12h12v-12h-12ZM328,244v36h12v-36h-12ZM316,244v12h12v-12h-12ZM244,244v24h12v-24h-12ZM208,244v72h12v-72h-12ZM148,244v24h12v-24h-12ZM124,244v12h12v-12h-12ZM100,244v12h12v-12h-12ZM88,244v36h12v-36h-12ZM412,256v12h12v-12h-12ZM376,256v24h12v-24h-12ZM280,256v12h12v-12h-12ZM268,256v12h12v-12h-12ZM196,256v12h12v-12h-12ZM136,256v24h12v-24h-12ZM40,256v24h12v-24h-12ZM460,268v12h12v-12h-12ZM316,268v12h12v-12h-12ZM292,268v24h12v-24h-12ZM220,268v84h12v-84h-12ZM184,268v24h12v-24h-12ZM172,268v12h12v-12h-12ZM124,268v12h12v-12h-12ZM100,268v12h12v-12h-12ZM64,268v24h12v-24h-12ZM52,268v36h12v-36h-12ZM28,268v24h12v-24h-12ZM412,280v12h12v-12h-12ZM388,280v36h12v-36h-12ZM280,280v36h12v-36h-12ZM400,292v12h12v-12h-12ZM376,292v24h12v-24h-12ZM364,292v12h12v-12h-12ZM304,292v24h12v-24h-12ZM256,292v24h12v-24h-12ZM244,292v12h12v-12h-12ZM196,292v12h12v-12h-12ZM160,292v36h12v-36h-12ZM136,292v24h12v-24h-12ZM124,292v12h12v-12h-12ZM100,292v12h12v-12h-12ZM76,292v24h12v-24h-12ZM40,292v12h12v-12h-12ZM460,304v24h12v-24h-12ZM412,304v12h12v-12h-12ZM328,304v12h12v-12h-12ZM268,304v12h12v-12h-12ZM184,304v12h12v-12h-12ZM172,304v12h12v-12h-12ZM28,304v24h12v-24h-12ZM448,316v12h12v-12h-12ZM424,316v12h12v-12h-12ZM400,316v12h12v-12h-12ZM364,316v144h12v-144h-12ZM352,316v12h12v-12h-12ZM316,316v24h12v-24h-12ZM292,316v48h12v-48h-12ZM244,316v24h12v-24h-12ZM196,316v12h12v-12h-12ZM124,316v12h12v-12h-12ZM100,316v12h12v-12h-12ZM52,316v12h12v-12h-12ZM412,328v96h12v-96h-12ZM388,328v12h12v-12h-12ZM328,328v12h12v-12h-12ZM304,328v12h12v-12h-12ZM280,328v48h12v-48h-12ZM268,328v36h12v-36h-12ZM232,328v12h12v-12h-12ZM148,328v24h12v-24h-12ZM136,328v12h12v-12h-12ZM64,328v12h12v-12h-12ZM40,328v24h12v-24h-12ZM448,340v12h12v-12h-12ZM424,340v36h12v-36h-12ZM400,340v36h12v-36h-12ZM352,340v24h12v-24h-12ZM340,340v24h12v-24h-12ZM256,340v12h12v-12h-12ZM208,340v12h12v-12h-12ZM196,340v24h12v-24h-12ZM160,340v36h12v-36h-12ZM112,340v36h12v-36h-12ZM100,340v12h12v-12h-12ZM52,340v12h12v-12h-12ZM304,352v12h12v-12h-12ZM244,352v12h12v-12h-12ZM232,352v12h12v-12h-12ZM64,352v24h12v-24h-12ZM460,364v36h12v-36h-12ZM448,364v48h12v-48h-12ZM436,364v24h12v-24h-12ZM388,364v12h12v-12h-12ZM376,364v12h12v-12h-12ZM316,364v12h12v-12h-12ZM256,364v24h12v-24h-12ZM184,364v24h12v-24h-12ZM100,364v12h12v-12h-12ZM88,364v12h12v-12h-12ZM52,364v12h12v-12h-12ZM40,364v12h12v-12h-12ZM352,376v12h12v-12h-12ZM292,376v24h12v-24h-12ZM268,376v72h12v-72h-12ZM220,376v24h12v-24h-12ZM196,376v12h12v-12h-12ZM124,376v12h12v-12h-12ZM424,388v12h12v-12h-12ZM388,388v12h12v-12h-12ZM340,388v12h12v-12h-12ZM316,388v12h12v-12h-12ZM304,388v24h12v-24h-12ZM172,388v24h12v-24h-12ZM160,388v12h12v-12h-12ZM148,388v12h12v-12h-12ZM28,388v84h84v-84H28ZM40,400h60v60h-60v-60ZM436,400v12h12v-12h-12ZM352,400v12h12v-12h-12ZM328,400v12h12v-12h-12ZM280,400v36h12v-36h-12ZM244,400v24h12v-24h-12ZM208,400v12h12v-12h-12ZM136,400v24h12v-24h-12ZM400,412v24h12v-24h-12ZM388,412v36h12v-36h-12ZM376,412v24h12v-24h-12ZM340,412v24h12v-24h-12ZM256,412v24h12v-24h-12ZM220,412v12h12v-12h-12ZM52,412v36h36v-36h-36ZM460,424v12h12v-12h-12ZM448,424v12h12v-12h-12ZM328,424v12h12v-12h-12ZM316,424v12h12v-12h-12ZM304,424v12h12v-12h-12ZM208,424v24h12v-24h-12ZM196,424v12h12v-12h-12ZM160,424v12h12v-12h-12ZM148,424v12h12v-12h-12ZM436,436v12h12v-12h-12ZM424,436v24h12v-24h-12ZM412,436v24h12v-24h-12ZM352,436v12h12v-12h-12ZM292,436v36h12v-36h-12ZM244,436v12h12v-12h-12ZM220,436v24h12v-24h-12ZM184,436v12h12v-12h-12ZM136,436v12h12v-12h-12ZM400,448v24h12v-24h-12ZM340,448v24h12v-24h-12ZM316,448v12h12v-12h-12ZM304,448v24h12v-24h-12ZM280,448v12h12v-12h-12ZM256,448v12h12v-12h-12ZM196,448v24h12v-24h-12ZM160,448v12h12v-12h-12ZM124,448v24h12v-24h-12ZM460,460v12h12v-12h-12ZM448,460v12h12v-12h-12ZM436,460v12h12v-12h-12ZM388,460v12h12v-12h-12ZM268,460v12h12v-12h-12ZM244,460v12h12v-12h-12ZM208,460v12h12v-12h-12ZM172,460v12h12v-12h-12ZM148,460v12h12v-12h-12Z"/>
    </clipPath>
  </defs>
  <g class="st2">
    <rect class="st1" width="500" height="500"/>
  </g>
</svg>