<?xml version="1.0" encoding="UTF-8"?>
<svg id="Layer_1" xmlns="http://www.w3.org/2000/svg" version="1.1" viewBox="0 0 325 254.4">
  <!-- Generator: Adobe Illustrator 29.8.2, SVG Export Plug-In . SVG Version: 2.1.1 Build 3)  -->
  <defs>
    <style>
      .st0, .st1, .st2, .st3, .st4 {
        fill: none;
      }

      .st5 {
        isolation: isolate;
      }

      .st6, .st7 {
        fill-opacity: 0;
      }

      .st1 {
        stroke: #7f1754;
      }

      .st1, .st2, .st3, .st4 {
        stroke-linejoin: round;
      }

      .st1, .st3 {
        stroke-dasharray: 12 9;
      }

      .st1, .st3, .st4 {
        stroke-width: 3px;
      }

      .st2 {
        stroke-width: .75px;
      }

      .st2, .st4 {
        stroke: #424242;
      }

      .st3 {
        stroke: #15c;
      }

      .st8 {
        fill: #fff2cc;
      }

      .st8, .st7 {
        fill-rule: evenodd;
      }
    </style>
  </defs>
  <line class="st0" x1="32.9" y1="9.5" x2="32.9" y2="228.1"/>
  <line class="st4" x1="32.9" y1="9.5" x2="32.9" y2="228.1"/>
  <line class="st1" x1="296.73" y1="9" x2="32.01" y2="227.6"/>
  <line class="st4" x1="31.12" y1="227.85" x2="297.62" y2="227.85"/>
  <path class="st7" d="M32.9,227.6c1.4-7.7,3.2-29.6,8.3-46.3s14.3-40.3,22.3-53.9,15.4-18.6,25.9-27.7,25.4-18.4,37.3-27.2c11.9-8.8,24.5-19.1,34.2-25.7,9.8-6.6,13.6-9.2,24.4-14.1,10.8-4.9,21.4-11.5,40.4-15.1s61.3-5.5,73.6-6.5"/>
  <path class="st3" d="M32.9,227.6c1.4-7.7,3.2-29.6,8.3-46.3s14.3-40.3,22.3-53.9,15.4-18.6,25.9-27.7,25.4-18.4,37.3-27.2c11.9-8.8,24.5-19.1,34.2-25.7,9.8-6.6,13.6-9.2,24.4-14.1,10.8-4.9,21.4-11.5,40.4-15.1s61.3-5.5,73.6-6.5"/>
  <g class="st5">
    <path d="M146.45,243.99v-7.87h5.4v1.33h-3.81v1.86h3.29v1.33h-3.29v3.35h-1.59Z"/>
    <path d="M153.16,243.99v-7.87h2.55c.97,0,1.6.04,1.89.12.45.12.83.38,1.13.77s.46.91.46,1.53c0,.48-.09.89-.26,1.22s-.4.59-.67.78c-.27.19-.55.31-.82.37-.38.08-.93.11-1.65.11h-1.04v2.97h-1.59ZM154.75,237.45v2.23h.87c.63,0,1.05-.04,1.26-.12.21-.08.38-.21.5-.39.12-.17.18-.38.18-.61,0-.29-.08-.52-.25-.71-.17-.19-.38-.3-.64-.35-.19-.04-.57-.05-1.14-.05h-.77Z"/>
    <path d="M163.36,243.99v-7.87h3.35c.84,0,1.45.07,1.83.21.38.14.69.39.92.75.23.36.34.78.34,1.24,0,.59-.17,1.08-.52,1.46-.35.38-.87.63-1.56.73.34.2.63.42.85.66.22.24.53.67.9,1.28l.96,1.54h-1.9l-1.15-1.71c-.41-.61-.69-1-.84-1.16s-.31-.27-.48-.33c-.17-.06-.43-.09-.8-.09h-.32v3.29h-1.59ZM164.95,239.45h1.18c.76,0,1.24-.03,1.43-.1.19-.06.34-.18.45-.33s.16-.35.16-.59c0-.26-.07-.48-.21-.64-.14-.16-.34-.27-.6-.31-.13-.02-.52-.03-1.16-.03h-1.24v2Z"/>
    <path d="M172.41,240.03l-1.37-.25c.15-.55.42-.96.79-1.22s.93-.4,1.68-.4c.67,0,1.17.08,1.5.24.33.16.56.36.7.61.13.25.2.7.2,1.35l-.02,1.76c0,.5.02.87.07,1.11.05.24.14.49.27.77h-1.49c-.04-.1-.09-.25-.14-.45-.03-.09-.04-.15-.05-.18-.26.25-.53.44-.83.56-.29.12-.61.19-.94.19-.59,0-1.05-.16-1.39-.48-.34-.32-.51-.72-.51-1.21,0-.32.08-.61.23-.86.15-.25.37-.45.65-.58.28-.13.68-.25,1.2-.35.71-.13,1.19-.26,1.47-.37v-.15c0-.29-.07-.5-.21-.62-.14-.12-.41-.18-.81-.18-.27,0-.48.05-.63.16s-.27.29-.37.56ZM174.43,241.25c-.19.06-.5.14-.92.23-.42.09-.69.18-.82.26-.2.14-.3.32-.3.53s.08.39.24.55c.16.15.36.23.6.23.27,0,.53-.09.78-.27.18-.14.3-.3.36-.5.04-.13.06-.37.06-.74v-.3Z"/>
    <path d="M180.02,238.29v1.2h-1.03v2.3c0,.47,0,.74.03.81s.06.14.13.19c.07.05.15.07.25.07.14,0,.34-.05.61-.14l.13,1.17c-.35.15-.75.23-1.19.23-.27,0-.52-.05-.74-.14-.22-.09-.38-.21-.48-.35-.1-.15-.17-.34-.21-.59-.03-.17-.05-.53-.05-1.06v-2.49h-.69v-1.2h.69v-1.13l1.51-.88v2.01h1.03Z"/>
    <path d="M184.37,242.18l1.5.25c-.19.55-.5.97-.92,1.26s-.94.43-1.57.43c-.99,0-1.73-.32-2.2-.97-.38-.52-.56-1.17-.56-1.96,0-.95.25-1.69.74-2.22s1.12-.8,1.88-.8c.85,0,1.52.28,2.01.84.49.56.72,1.42.7,2.58h-3.78c.01.45.13.8.37,1.04.23.25.52.37.87.37.24,0,.44-.06.6-.19s.28-.34.37-.62ZM184.46,240.65c-.01-.44-.12-.77-.34-1s-.48-.34-.78-.34c-.33,0-.6.12-.82.36s-.32.57-.32.98h2.26Z"/>
  </g>
  <rect class="st6" y="38.7" width="27.7" height="114.4"/>
  <g class="st5">
    <path d="M17.31,136.74h-6.54v2.34h-1.33v-6.26h1.33v2.33h6.54v1.59Z"/>
    <path d="M17.31,131.8h-7.87v-2.55c0-.97.04-1.6.12-1.89.12-.45.38-.83.77-1.13s.91-.46,1.53-.46c.48,0,.89.09,1.22.26s.59.4.78.67c.19.27.31.55.37.82.08.38.11.93.11,1.65v1.04h2.97v1.59ZM10.77,130.21h2.23v-.87c0-.63-.04-1.05-.12-1.26-.08-.21-.21-.38-.39-.5-.17-.12-.38-.18-.61-.18-.29,0-.52.08-.71.25-.19.17-.3.38-.35.64-.04.19-.05.57-.05,1.14v.77Z"/>
    <path d="M17.31,121.6h-7.87v-3.35c0-.84.07-1.45.21-1.83.14-.38.39-.69.75-.92s.78-.34,1.24-.34c.59,0,1.08.17,1.46.52s.63.87.73,1.56c.2-.34.42-.63.66-.85.24-.22.67-.53,1.28-.9l1.54-.96v1.9l-1.71,1.15c-.61.41-1,.69-1.16.84s-.27.31-.33.48c-.06.17-.09.44-.09.8v.32h3.29v1.59ZM12.77,120.01v-1.18c0-.76-.03-1.24-.1-1.43s-.18-.34-.33-.45-.35-.16-.59-.16c-.26,0-.48.07-.64.21-.16.14-.27.34-.31.6-.02.13-.03.52-.03,1.16v1.24h2Z"/>
    <path d="M13.35,112.54l-.25,1.37c-.55-.15-.96-.42-1.22-.79s-.4-.93-.4-1.68c0-.67.08-1.17.24-1.5s.36-.56.61-.7c.25-.13.7-.2,1.35-.2l1.76.02c.5,0,.87-.02,1.11-.07.24-.05.49-.14.77-.27v1.49c-.1.04-.25.09-.45.15-.09.02-.15.04-.18.05.25.26.44.53.56.83.12.29.19.61.19.94,0,.59-.16,1.05-.48,1.39-.32.34-.72.51-1.21.51-.32,0-.61-.08-.86-.23-.25-.15-.45-.37-.58-.65-.13-.28-.25-.68-.35-1.2-.13-.71-.26-1.19-.37-1.47h-.15c-.29,0-.5.07-.62.21-.12.14-.18.41-.18.81,0,.27.05.48.16.63s.29.27.56.37ZM14.57,110.52c.06.19.14.5.23.92.09.42.18.69.26.82.14.2.32.3.53.3s.39-.08.55-.24c.15-.16.23-.36.23-.6,0-.27-.09-.53-.27-.78-.14-.18-.3-.3-.5-.36-.13-.04-.37-.06-.74-.06h-.3Z"/>
    <path d="M11.61,104.94h1.2v1.03h2.3c.47,0,.74,0,.81-.03.08-.02.14-.06.19-.13.05-.07.07-.15.07-.25,0-.14-.05-.34-.14-.61l1.17-.13c.15.35.23.75.23,1.19,0,.27-.05.52-.14.74-.09.22-.21.38-.35.48-.15.1-.34.17-.59.21-.17.03-.53.05-1.06.05h-2.49v.69h-1.2v-.69h-1.13l-.88-1.51h2.01v-1.03Z"/>
    <path d="M15.49,100.59l.25-1.5c.55.19.97.5,1.26.92.29.42.43.94.43,1.57,0,.99-.32,1.73-.97,2.2-.52.38-1.17.56-1.96.56-.95,0-1.69-.25-2.22-.74s-.8-1.12-.8-1.87c0-.85.28-1.52.84-2.01s1.42-.73,2.58-.7v3.78c.45-.01.8-.13,1.04-.37s.37-.52.37-.87c0-.24-.06-.44-.19-.6s-.34-.28-.62-.37ZM13.97,100.5c-.44.01-.77.12-1,.34s-.34.48-.34.78c0,.33.12.6.36.82s.57.32.98.32v-2.26Z"/>
  </g>
  <rect class="st6" width="27.7" height="22"/>
  <g class="st5">
    <path d="M23.54,19.14h-1.51v-5.69c-.55.52-1.2.9-1.95,1.14v-1.37c.39-.13.82-.37,1.28-.73.46-.36.78-.78.95-1.26h1.22v7.91Z"/>
  </g>
  <rect class="st6" x="20.9" y="231.1" width="22" height="27.7"/>
  <g class="st5">
    <path d="M24.97,228.48c.76,0,1.36.27,1.79.82.51.64.77,1.71.77,3.21s-.26,2.56-.77,3.21c-.43.54-1.02.81-1.78.81s-1.38-.29-1.85-.88c-.47-.59-.7-1.64-.7-3.15s.26-2.55.77-3.2c.43-.54,1.02-.81,1.78-.81ZM24.97,229.74c-.18,0-.35.06-.49.17-.14.12-.25.33-.33.63-.1.39-.16,1.05-.16,1.97s.05,1.56.14,1.9c.09.35.21.58.35.69.14.11.3.17.49.17s.35-.06.49-.17c.14-.12.25-.33.33-.63.1-.39.16-1.04.16-1.96s-.05-1.56-.14-1.9c-.09-.35-.21-.58-.35-.69s-.3-.17-.49-.17Z"/>
  </g>
  <rect class="st6" x="284.9" y="231.1" width="22" height="27.7"/>
  <g class="st5">
    <path d="M302.73,236.53h-1.51v-5.69c-.55.52-1.2.9-1.95,1.14v-1.37c.39-.13.82-.37,1.28-.73.46-.36.78-.78.95-1.26h1.22v7.91Z"/>
  </g>
  <path class="st8" d="M90.1,131.7h0c0-4.6,3.7-8.3,8.3-8.3h105c2.2,0,4.3.9,5.9,2.4,1.6,1.6,2.4,3.7,2.4,5.9v33.4c0,4.6-3.7,8.3-8.3,8.3h-105c-4.6,0-8.3-3.7-8.3-8.3v-20.9l-20.9-19.5,20.9,7Z"/>
  <path class="st2" d="M90.1,131.7h0c0-4.6,3.7-8.3,8.3-8.3h105c2.2,0,4.3.9,5.9,2.4,1.6,1.6,2.4,3.7,2.4,5.9v33.4c0,4.6-3.7,8.3-8.3,8.3h-105c-4.6,0-8.3-3.7-8.3-8.3v-20.9l-20.9-19.5,20.9,7Z"/>
  <path class="st8" d="M207.4,43.3h0c0-5.2,4.3-9.5,9.5-9.5h9.6l-4.8-12.1,33.4,12.1h57.2c2.5,0,4.9,1,6.7,2.8,1.8,1.8,2.8,4.2,2.8,6.7v38.1c0,5.2-4.3,9.5-9.5,9.5h-95.4c-5.2,0-9.5-4.3-9.5-9.5v-38.1h0Z"/>
  <path class="st2" d="M207.4,43.3h0c0-5.2,4.3-9.5,9.5-9.5h9.6l-4.8-12.1,33.4,12.1h57.2c2.5,0,4.9,1,6.7,2.8,1.8,1.8,2.8,4.2,2.8,6.7v38.1c0,5.2-4.3,9.5-9.5,9.5h-95.4c-5.2,0-9.5-4.3-9.5-9.5v-38.1h0Z"/>
  <g>
    <rect class="st0" x="216.9" y="45.9" width="95.6" height="77.5"/>
    <g class="st5">
      <g class="st5">
        <path d="M219.79,53.75v-6.95h-2.59v-.93h6.24v.93h-2.61v6.95h-1.04Z"/>
        <path d="M224.51,53.75v-7.87h2.97c.52,0,.92.03,1.2.08.39.06.71.19.97.37.26.18.47.43.63.76s.24.68.24,1.07c0,.67-.21,1.24-.64,1.7-.43.46-1.2.7-2.31.7h-2.02v3.2h-1.04ZM225.55,49.62h2.04c.67,0,1.15-.12,1.43-.38.28-.25.42-.6.42-1.06,0-.33-.08-.61-.25-.85-.17-.23-.39-.39-.66-.46-.17-.05-.5-.07-.97-.07h-2.01v2.81Z"/>
        <path d="M236.16,53.75l-2.17-5.7h1.02l1.22,3.42c.13.37.25.75.37,1.15.09-.3.21-.66.36-1.08l1.27-3.48h.99l-2.16,5.7h-.9Z"/>
        <path d="M239.69,52.04l.96-.15c.05.38.2.68.45.88.25.21.59.31,1.03.31s.77-.09.99-.27.32-.39.32-.64c0-.22-.09-.39-.28-.52-.13-.09-.46-.19-.99-.33-.71-.18-1.2-.33-1.47-.46-.27-.13-.48-.31-.62-.54-.14-.23-.21-.49-.21-.77,0-.25.06-.49.17-.71.12-.22.28-.4.48-.54.15-.11.36-.21.62-.28s.54-.12.83-.12c.45,0,.84.06,1.18.19.34.13.59.3.75.52.16.22.27.51.33.88l-.95.13c-.04-.29-.17-.52-.37-.69-.21-.17-.5-.25-.87-.25-.44,0-.76.07-.95.22-.19.15-.28.32-.28.52,0,.13.04.24.12.34.08.1.2.19.37.26.1.04.38.12.85.25.68.18,1.16.33,1.43.45.27.12.48.29.64.51.15.22.23.5.23.83s-.09.63-.28.91c-.19.29-.46.5-.81.66-.35.16-.76.23-1.2.23-.74,0-1.31-.15-1.7-.46-.39-.31-.64-.76-.74-1.37Z"/>
        <path d="M245.85,53.75v-1.1h1.1v1.1h-1.1Z"/>
        <path d="M251.87,53.75v-7.87h5.31v.93h-4.27v2.44h3.7v.93h-3.7v3.58h-1.04Z"/>
        <path d="M258.53,53.75v-7.87h2.97c.52,0,.92.03,1.2.08.39.06.71.19.97.37.26.18.47.43.63.76.16.33.24.68.24,1.07,0,.67-.21,1.24-.64,1.7-.43.46-1.2.7-2.31.7h-2.02v3.2h-1.04ZM259.57,49.62h2.04c.67,0,1.15-.12,1.43-.38.28-.25.42-.6.42-1.06,0-.33-.08-.61-.25-.85-.17-.23-.39-.39-.66-.46-.18-.05-.5-.07-.97-.07h-2.01v2.81Z"/>
        <path d="M268.59,53.75v-5.7h.87v.86c.22-.4.43-.67.62-.8.19-.13.39-.19.62-.19.33,0,.66.1.99.31l-.33.9c-.24-.14-.47-.21-.71-.21-.21,0-.4.06-.57.19-.17.13-.29.3-.36.53-.11.34-.16.72-.16,1.13v2.99h-.97Z"/>
        <path d="M275.99,53.04c-.36.3-.7.52-1.03.64-.33.12-.69.19-1.07.19-.63,0-1.11-.15-1.44-.46-.34-.31-.5-.7-.5-1.17,0-.28.06-.53.19-.77.13-.23.29-.42.5-.56.21-.14.44-.25.7-.32.19-.05.48-.1.86-.14.78-.09,1.36-.2,1.72-.33,0-.13,0-.22,0-.25,0-.39-.09-.67-.27-.83-.25-.22-.61-.33-1.1-.33-.46,0-.79.08-1.01.24-.22.16-.38.44-.48.85l-.95-.13c.09-.41.23-.73.42-.98.2-.25.48-.44.85-.58.37-.13.8-.2,1.29-.2s.88.06,1.19.17c.3.11.53.26.67.43.14.17.24.39.3.66.03.16.05.46.05.89v1.29c0,.9.02,1.47.06,1.71.04.24.12.47.24.68h-1.01c-.1-.2-.17-.44-.19-.7ZM275.91,50.88c-.35.14-.88.27-1.58.37-.4.06-.68.12-.84.19-.17.07-.29.18-.38.31-.09.14-.13.29-.13.46,0,.26.1.47.29.64.19.17.48.26.86.26s.7-.08.99-.24.5-.39.64-.67c.1-.22.16-.54.16-.97v-.36Z"/>
        <path d="M280.49,52.88l.14.85c-.27.06-.52.09-.73.09-.35,0-.62-.06-.82-.17-.19-.11-.33-.26-.41-.44-.08-.18-.12-.56-.12-1.14v-3.28h-.71v-.75h.71v-1.41l.96-.58v1.99h.97v.75h-.97v3.33c0,.28.02.45.05.53s.09.14.17.19c.08.05.19.07.33.07.11,0,.25-.01.42-.04Z"/>
        <path d="M285.34,51.91l1,.12c-.16.58-.45,1.04-.88,1.36-.43.32-.97.48-1.63.48-.83,0-1.5-.26-1.98-.77-.49-.51-.73-1.23-.73-2.16s.25-1.7.74-2.23,1.14-.79,1.92-.79,1.39.26,1.87.78c.48.52.73,1.25.73,2.19,0,.06,0,.14,0,.26h-4.25c.04.63.21,1.11.53,1.44.32.33.72.5,1.19.5.35,0,.66-.09.91-.28.25-.19.45-.48.6-.89ZM282.17,50.35h3.19c-.04-.48-.17-.84-.37-1.08-.31-.37-.71-.56-1.2-.56-.44,0-.82.15-1.12.45-.3.3-.47.69-.5,1.19Z"/>
        <path d="M294.34,53.04c-.36.3-.7.52-1.03.64-.33.12-.69.19-1.07.19-.63,0-1.11-.15-1.44-.46-.34-.31-.5-.7-.5-1.17,0-.28.06-.53.19-.77.13-.23.29-.42.5-.56.21-.14.44-.25.7-.32.19-.05.48-.1.86-.14.78-.09,1.36-.2,1.72-.33,0-.13,0-.22,0-.25,0-.39-.09-.67-.27-.83-.25-.22-.61-.33-1.1-.33-.46,0-.79.08-1.01.24-.22.16-.38.44-.48.85l-.95-.13c.09-.41.23-.73.42-.98.2-.25.48-.44.85-.58.37-.13.8-.2,1.29-.2s.88.06,1.19.17c.3.11.53.26.67.43.14.17.24.39.3.66.03.16.05.46.05.89v1.29c0,.9.02,1.47.06,1.71.04.24.12.47.24.68h-1.01c-.1-.2-.17-.44-.19-.7ZM294.25,50.88c-.35.14-.88.27-1.58.37-.4.06-.68.12-.84.19-.17.07-.29.18-.38.31-.09.14-.13.29-.13.46,0,.26.1.47.29.64.19.17.48.26.86.26s.7-.08.99-.24.5-.39.64-.67c.1-.22.16-.54.16-.97v-.36Z"/>
        <path d="M298.84,52.88l.14.85c-.27.06-.52.09-.73.09-.35,0-.62-.06-.82-.17-.19-.11-.33-.26-.41-.44-.08-.18-.12-.56-.12-1.14v-3.28h-.71v-.75h.71v-1.41l.96-.58v1.99h.97v.75h-.97v3.33c0,.28.02.45.05.53s.09.14.17.19c.08.05.19.07.33.07.11,0,.25-.01.42-.04Z"/>
      </g>
      <g class="st5">
        <path d="M217.3,64.1c0-1.06.29-1.84.88-2.35.49-.42,1.09-.63,1.79-.63.78,0,1.42.26,1.92.77.5.51.75,1.22.75,2.13,0,.73-.11,1.31-.33,1.73-.22.42-.54.75-.96.98-.42.23-.88.35-1.38.35-.8,0-1.44-.26-1.94-.77-.49-.51-.74-1.25-.74-2.21ZM218.3,64.1c0,.73.16,1.28.48,1.64.32.36.72.54,1.2.54s.88-.18,1.2-.55c.32-.37.48-.92.48-1.67,0-.71-.16-1.24-.48-1.6-.32-.36-.72-.55-1.2-.55s-.88.18-1.2.54c-.32.36-.48.91-.48,1.64Z"/>
        <path d="M223.78,66.95v-5.7h.87v.81c.42-.63,1.02-.94,1.82-.94.34,0,.66.06.95.19.29.12.5.29.65.49.14.2.24.44.3.71.04.18.05.49.05.94v3.51h-.97v-3.47c0-.39-.04-.69-.11-.88s-.21-.35-.4-.47-.42-.17-.67-.17c-.41,0-.77.13-1.07.39-.3.26-.45.76-.45,1.49v3.12h-.97Z"/>
        <path d="M233.8,65.11l1,.12c-.16.58-.45,1.04-.88,1.36-.43.32-.97.48-1.63.48-.83,0-1.5-.26-1.98-.77-.49-.51-.73-1.23-.73-2.16s.25-1.7.74-2.23,1.14-.79,1.92-.79,1.39.26,1.87.78c.48.52.73,1.25.73,2.19,0,.06,0,.14,0,.26h-4.25c.04.63.21,1.11.53,1.44.32.33.72.5,1.19.5.35,0,.66-.09.91-.28.25-.19.45-.48.6-.89ZM230.63,63.55h3.19c-.04-.48-.17-.84-.37-1.08-.31-.37-.71-.56-1.2-.56-.44,0-.82.15-1.12.45-.3.3-.47.69-.5,1.19Z"/>
        <path d="M242.77,66.95v-.72c-.36.57-.89.85-1.6.85-.45,0-.87-.12-1.25-.38-.38-.25-.68-.6-.89-1.05-.21-.45-.31-.97-.31-1.55s.09-1.09.28-1.55c.19-.46.47-.82.85-1.07.38-.25.8-.37,1.27-.37.34,0,.65.07.92.22.27.14.49.33.66.57v-2.83h.96v7.87h-.9ZM239.72,64.1c0,.73.15,1.28.46,1.64.31.36.67.54,1.09.54s.78-.17,1.08-.52c.29-.35.44-.87.44-1.58,0-.78-.15-1.35-.45-1.72s-.67-.55-1.11-.55-.79.18-1.08.53c-.29.35-.43.9-.43,1.66Z"/>
        <path d="M249.09,65.11l1,.12c-.16.58-.45,1.04-.88,1.36-.43.32-.97.48-1.63.48-.83,0-1.5-.26-1.99-.77-.49-.51-.73-1.23-.73-2.16s.25-1.7.74-2.23,1.13-.79,1.92-.79,1.39.26,1.87.78c.48.52.72,1.25.72,2.19,0,.06,0,.14,0,.26h-4.25c.04.63.21,1.11.53,1.44.32.33.72.5,1.19.5.35,0,.66-.09.91-.28.25-.19.45-.48.6-.89ZM245.92,63.55h3.18c-.04-.48-.16-.84-.37-1.08-.31-.37-.71-.56-1.2-.56-.44,0-.82.15-1.12.45-.3.3-.47.69-.5,1.19Z"/>
        <path d="M255.03,64.86l.95.12c-.1.66-.37,1.17-.8,1.54-.43.37-.95.56-1.58.56-.78,0-1.41-.25-1.88-.77-.47-.51-.71-1.24-.71-2.19,0-.62.1-1.16.31-1.62s.51-.81.93-1.04c.42-.23.87-.35,1.36-.35.62,0,1.13.16,1.52.47.39.31.65.76.76,1.33l-.94.15c-.09-.38-.25-.67-.47-.87-.23-.19-.5-.29-.83-.29-.49,0-.88.17-1.19.52-.3.35-.46.9-.46,1.66s.15,1.32.44,1.67c.29.35.68.52,1.15.52.38,0,.7-.12.95-.35.25-.23.42-.59.48-1.07Z"/>
        <path d="M256.81,60.19v-1.11h.97v1.11h-.97ZM256.81,66.95v-5.7h.97v5.7h-.97Z"/>
        <path d="M258.87,65.25l.96-.15c.05.38.2.68.45.88.25.21.59.31,1.03.31s.77-.09.99-.27.32-.39.32-.64c0-.22-.09-.39-.28-.52-.13-.09-.46-.19-.99-.33-.71-.18-1.2-.33-1.47-.46-.27-.13-.48-.31-.62-.54-.14-.23-.21-.49-.21-.77,0-.25.06-.49.17-.71.12-.22.28-.4.48-.54.15-.11.36-.21.62-.28s.54-.12.83-.12c.45,0,.84.06,1.18.19.34.13.59.3.75.52.16.22.27.51.33.88l-.95.13c-.04-.29-.17-.52-.37-.69-.21-.17-.5-.25-.87-.25-.44,0-.76.07-.95.22-.19.15-.28.32-.28.52,0,.13.04.24.12.34.08.1.2.19.37.26.1.04.38.12.85.25.68.18,1.16.33,1.43.45.27.12.48.29.64.51.15.22.23.5.23.83s-.09.63-.28.91c-.19.29-.46.5-.81.66-.35.16-.76.23-1.2.23-.74,0-1.31-.15-1.7-.46-.39-.31-.64-.76-.74-1.37Z"/>
        <path d="M264.76,60.19v-1.11h.97v1.11h-.97ZM264.76,66.95v-5.7h.97v5.7h-.97Z"/>
        <path d="M266.84,64.1c0-1.06.29-1.84.88-2.35.49-.42,1.09-.63,1.79-.63.78,0,1.42.26,1.92.77.5.51.75,1.22.75,2.13,0,.73-.11,1.31-.33,1.73-.22.42-.54.75-.96.98-.42.23-.88.35-1.38.35-.8,0-1.44-.26-1.94-.77-.49-.51-.74-1.25-.74-2.21ZM267.83,64.1c0,.73.16,1.28.48,1.64.32.36.72.54,1.2.54s.88-.18,1.2-.55c.32-.37.48-.92.48-1.67,0-.71-.16-1.24-.48-1.6-.32-.36-.72-.55-1.2-.55s-.88.18-1.2.54c-.32.36-.48.91-.48,1.64Z"/>
        <path d="M273.31,66.95v-5.7h.87v.81c.42-.63,1.02-.94,1.82-.94.34,0,.66.06.95.19.29.12.5.29.65.49.14.2.24.44.3.71.04.18.05.49.05.94v3.51h-.97v-3.47c0-.39-.04-.69-.11-.88s-.21-.35-.4-.47-.42-.17-.67-.17c-.41,0-.77.13-1.07.39-.3.26-.45.76-.45,1.49v3.12h-.97Z"/>
      </g>
      <g class="st5">
        <path d="M219.77,79.28l.14.85c-.27.06-.52.09-.73.09-.35,0-.62-.06-.82-.17-.19-.11-.33-.26-.41-.44-.08-.18-.12-.56-.12-1.14v-3.28h-.71v-.75h.71v-1.41l.96-.58v1.99h.97v.75h-.97v3.33c0,.28.02.45.05.53.03.08.09.14.17.19.08.05.19.07.33.07.11,0,.25-.01.42-.04Z"/>
        <path d="M220.72,80.15v-7.87h.97v2.83c.45-.52,1.02-.78,1.71-.78.42,0,.79.08,1.1.25.31.17.53.4.67.69.13.29.2.72.2,1.28v3.62h-.97v-3.62c0-.48-.1-.83-.31-1.05-.21-.22-.5-.33-.89-.33-.29,0-.56.07-.81.22-.25.15-.43.35-.54.6-.11.25-.16.61-.16,1.05v3.12h-.97Z"/>
        <path d="M226.83,80.15v-5.7h.87v.86c.22-.4.43-.67.62-.8.19-.13.39-.19.62-.19.33,0,.66.1.99.31l-.33.9c-.24-.14-.47-.21-.71-.21-.21,0-.4.06-.57.19-.17.13-.29.3-.36.53-.11.34-.16.72-.16,1.13v2.99h-.97Z"/>
        <path d="M234.41,78.31l1,.12c-.16.58-.45,1.04-.88,1.36-.43.32-.97.48-1.63.48-.83,0-1.5-.26-1.98-.77-.49-.51-.73-1.23-.73-2.16s.25-1.7.74-2.23,1.14-.79,1.92-.79,1.39.26,1.87.78c.48.52.73,1.25.73,2.19,0,.06,0,.14,0,.26h-4.25c.04.63.21,1.11.53,1.44.32.33.72.5,1.19.5.35,0,.66-.09.91-.28.25-.19.45-.48.6-.89ZM231.23,76.75h3.19c-.04-.48-.17-.84-.37-1.08-.31-.37-.71-.56-1.2-.56-.44,0-.82.15-1.12.45-.3.3-.47.69-.5,1.19Z"/>
        <path d="M236.23,78.44l.96-.15c.05.38.2.68.45.88.25.21.59.31,1.03.31s.77-.09.99-.27.32-.39.32-.64c0-.22-.09-.39-.28-.52-.13-.09-.46-.19-.99-.33-.71-.18-1.2-.33-1.47-.46-.27-.13-.48-.31-.62-.54-.14-.23-.21-.49-.21-.77,0-.25.06-.49.17-.71.12-.22.28-.4.48-.54.15-.11.36-.21.62-.28s.54-.12.83-.12c.45,0,.84.06,1.18.19.34.13.59.3.75.52.16.22.27.51.33.88l-.95.13c-.04-.29-.17-.52-.37-.69-.21-.17-.5-.25-.87-.25-.44,0-.76.07-.95.22-.19.15-.28.32-.28.52,0,.13.04.24.12.34.08.1.2.19.37.26.1.04.38.12.85.25.68.18,1.16.33,1.43.45.27.12.48.29.64.51.15.22.23.5.23.83s-.09.63-.28.91c-.19.29-.46.5-.81.66-.35.16-.76.23-1.2.23-.74,0-1.31-.15-1.7-.46-.39-.31-.64-.76-.74-1.37Z"/>
        <path d="M242.12,80.15v-7.87h.97v2.83c.45-.52,1.02-.78,1.71-.78.42,0,.79.08,1.1.25.31.17.53.4.67.69.13.29.2.72.2,1.28v3.62h-.97v-3.62c0-.48-.1-.83-.31-1.05-.21-.22-.5-.33-.89-.33-.29,0-.56.07-.81.22-.25.15-.43.35-.54.6-.11.25-.16.61-.16,1.05v3.12h-.97Z"/>
        <path d="M247.88,77.3c0-1.06.29-1.84.88-2.35.49-.42,1.09-.63,1.79-.63.78,0,1.42.26,1.92.77.5.51.75,1.22.75,2.13,0,.73-.11,1.31-.33,1.73-.22.42-.54.75-.96.98-.42.23-.88.35-1.38.35-.8,0-1.44-.26-1.94-.77-.49-.51-.74-1.25-.74-2.21ZM248.87,77.3c0,.73.16,1.28.48,1.64.32.36.72.54,1.2.54s.88-.18,1.2-.55c.32-.37.48-.92.48-1.67,0-.71-.16-1.24-.48-1.6-.32-.36-.72-.55-1.2-.55s-.88.18-1.2.54c-.32.36-.48.91-.48,1.64Z"/>
        <path d="M254.33,80.15v-7.87h.97v7.87h-.97Z"/>
        <path d="M260.5,80.15v-.72c-.36.57-.89.85-1.6.85-.45,0-.87-.12-1.25-.38-.38-.25-.68-.6-.89-1.05-.21-.45-.31-.97-.31-1.55s.09-1.09.28-1.55c.19-.46.47-.82.85-1.07.38-.25.8-.37,1.27-.37.34,0,.65.07.92.22.27.14.49.33.66.57v-2.83h.96v7.87h-.9ZM257.44,77.3c0,.73.15,1.28.46,1.64.31.36.67.54,1.09.54s.78-.17,1.08-.52c.29-.35.44-.87.44-1.58,0-.78-.15-1.35-.45-1.72s-.67-.55-1.11-.55-.79.18-1.08.53c-.29.35-.43.9-.43,1.66Z"/>
      </g>
    </g>
  </g>
  <rect class="st0" x="99.3" y="132" width="103" height="58.5"/>
  <g class="st5">
    <g class="st5">
      <path d="M102.11,139.88v-6.95h-2.59v-.93h6.24v.93h-2.6v6.95h-1.04Z"/>
      <path d="M106.83,139.88v-7.87h2.97c.52,0,.92.03,1.2.08.39.06.71.19.97.37s.47.43.63.76c.16.33.24.68.24,1.07,0,.67-.21,1.24-.64,1.7s-1.2.7-2.31.7h-2.02v3.2h-1.04ZM107.87,135.75h2.04c.67,0,1.15-.12,1.43-.38.28-.25.42-.6.42-1.06,0-.33-.08-.61-.25-.85-.17-.23-.39-.39-.66-.46-.18-.05-.5-.07-.97-.07h-2.01v2.81Z"/>
      <path d="M118.48,139.88l-2.17-5.7h1.02l1.22,3.42c.13.37.25.75.37,1.15.09-.3.21-.66.36-1.08l1.27-3.48h.99l-2.16,5.7h-.9Z"/>
      <path d="M122.01,138.17l.96-.15c.05.38.2.68.45.88.25.21.59.31,1.03.31s.77-.09.99-.27.32-.39.32-.64c0-.22-.09-.39-.28-.52-.13-.09-.46-.19-.99-.33-.71-.18-1.2-.33-1.47-.46-.27-.13-.48-.31-.62-.54-.14-.23-.21-.49-.21-.77,0-.25.06-.49.17-.71.12-.22.27-.4.48-.54.15-.11.36-.21.62-.28.26-.08.54-.12.83-.12.45,0,.84.06,1.18.19.34.13.59.3.75.52.16.22.27.51.33.88l-.95.13c-.04-.29-.17-.52-.37-.69-.21-.17-.5-.25-.87-.25-.44,0-.76.07-.95.22-.19.15-.28.32-.28.52,0,.13.04.24.12.34.08.1.2.19.37.26.1.04.38.12.85.25.68.18,1.16.33,1.43.45.27.12.48.29.64.51s.23.5.23.83-.09.63-.28.91c-.19.29-.46.5-.81.66-.35.16-.76.23-1.2.23-.74,0-1.31-.15-1.69-.46-.39-.31-.64-.76-.74-1.37Z"/>
      <path d="M128.17,139.88v-1.1h1.1v1.1h-1.1Z"/>
      <path d="M134.19,139.88v-7.87h5.31v.93h-4.27v2.44h3.7v.93h-3.7v3.58h-1.04Z"/>
      <path d="M140.85,139.88v-7.87h2.97c.52,0,.92.03,1.2.08.39.06.71.19.97.37s.47.43.63.76c.16.33.24.68.24,1.07,0,.67-.21,1.24-.64,1.7s-1.2.7-2.31.7h-2.02v3.2h-1.04ZM141.89,135.75h2.04c.67,0,1.15-.12,1.43-.38.28-.25.42-.6.42-1.06,0-.33-.08-.61-.25-.85-.17-.23-.39-.39-.66-.46-.18-.05-.5-.07-.97-.07h-2.01v2.81Z"/>
      <path d="M150.91,139.88v-5.7h.87v.86c.22-.4.43-.67.61-.8.19-.13.4-.19.62-.19.33,0,.66.1.99.31l-.33.9c-.24-.14-.47-.21-.71-.21-.21,0-.4.06-.57.19s-.29.3-.36.53c-.11.34-.16.72-.16,1.13v2.99h-.97Z"/>
      <path d="M158.31,139.17c-.36.3-.7.52-1.03.64-.33.12-.69.19-1.07.19-.63,0-1.11-.15-1.44-.46-.34-.31-.5-.7-.5-1.17,0-.28.06-.53.19-.77.13-.23.29-.42.5-.56.21-.14.44-.25.7-.32.19-.05.48-.1.86-.14.78-.09,1.36-.2,1.72-.33,0-.13,0-.22,0-.25,0-.39-.09-.67-.27-.83-.25-.22-.61-.33-1.1-.33-.45,0-.79.08-1.01.24-.22.16-.38.44-.48.85l-.95-.13c.09-.41.23-.73.42-.98s.48-.44.85-.58c.37-.13.8-.2,1.29-.2s.88.06,1.19.17.53.26.67.43.24.39.3.66c.03.16.05.46.05.89v1.29c0,.9.02,1.47.06,1.71.04.24.12.47.24.68h-1.01c-.1-.2-.16-.44-.19-.7ZM158.23,137.01c-.35.14-.88.27-1.58.37-.4.06-.68.12-.84.19-.16.07-.29.18-.38.31s-.13.29-.13.46c0,.26.1.47.29.64.19.17.48.26.86.26s.7-.08.99-.24.5-.39.64-.67c.1-.22.16-.54.16-.97v-.36Z"/>
      <path d="M162.81,139.01l.14.85c-.27.06-.52.09-.73.09-.35,0-.62-.06-.82-.17-.19-.11-.33-.26-.41-.44s-.12-.56-.12-1.14v-3.28h-.71v-.75h.71v-1.41l.96-.58v1.99h.97v.75h-.97v3.33c0,.28.02.45.05.53.03.08.09.14.17.19.08.05.19.07.33.07.11,0,.25-.01.42-.04Z"/>
      <path d="M167.66,138.04l1,.12c-.16.58-.45,1.04-.88,1.36-.43.32-.97.48-1.63.48-.83,0-1.5-.26-1.99-.77-.49-.51-.73-1.23-.73-2.16s.25-1.7.74-2.23,1.13-.79,1.92-.79,1.39.26,1.87.78c.48.52.72,1.25.72,2.19,0,.06,0,.14,0,.26h-4.25c.04.63.21,1.11.53,1.44.32.33.72.5,1.19.5.35,0,.66-.09.91-.28.25-.19.45-.48.6-.89ZM164.49,136.48h3.18c-.04-.48-.16-.84-.37-1.08-.31-.37-.71-.56-1.2-.56-.44,0-.82.15-1.12.45-.3.3-.47.69-.5,1.19Z"/>
      <path d="M176.66,139.17c-.36.3-.7.52-1.03.64-.33.12-.69.19-1.07.19-.63,0-1.11-.15-1.45-.46-.34-.31-.5-.7-.5-1.17,0-.28.06-.53.19-.77.13-.23.29-.42.5-.56s.44-.25.7-.32c.19-.05.48-.1.86-.14.78-.09,1.36-.2,1.72-.33,0-.13,0-.22,0-.25,0-.39-.09-.67-.27-.83-.25-.22-.61-.33-1.1-.33-.45,0-.79.08-1.01.24s-.38.44-.48.85l-.95-.13c.09-.41.23-.73.42-.98.2-.25.48-.44.85-.58.37-.13.8-.2,1.29-.2s.88.06,1.19.17c.3.11.53.26.67.43.14.17.24.39.3.66.03.16.05.46.05.89v1.29c0,.9.02,1.47.06,1.71s.12.47.24.68h-1.01c-.1-.2-.16-.44-.19-.7ZM176.58,137.01c-.35.14-.88.27-1.58.37-.4.06-.68.12-.84.19-.16.07-.29.18-.38.31-.09.14-.13.29-.13.46,0,.26.1.47.29.64s.48.26.86.26.7-.08.99-.24.5-.39.64-.67c.1-.22.16-.54.16-.97v-.36Z"/>
      <path d="M181.16,139.01l.14.85c-.27.06-.52.09-.73.09-.35,0-.62-.06-.82-.17-.19-.11-.33-.26-.41-.44-.08-.18-.12-.56-.12-1.14v-3.28h-.71v-.75h.71v-1.41l.96-.58v1.99h.97v.75h-.97v3.33c0,.28.02.45.05.53.03.08.09.14.17.19.08.05.19.07.33.07.11,0,.25-.01.42-.04Z"/>
    </g>
    <g class="st5">
      <path d="M103.71,152.37c-.36.3-.7.52-1.03.64-.33.12-.69.19-1.07.19-.63,0-1.11-.15-1.44-.46-.34-.31-.5-.7-.5-1.17,0-.28.06-.53.19-.77.13-.23.29-.42.5-.56.21-.14.44-.25.7-.32.19-.05.48-.1.86-.14.78-.09,1.36-.2,1.72-.33,0-.13,0-.22,0-.25,0-.39-.09-.67-.27-.83-.25-.22-.61-.33-1.1-.33-.45,0-.79.08-1.01.24-.22.16-.38.44-.48.85l-.95-.13c.09-.41.23-.73.42-.98s.48-.44.85-.58c.37-.13.8-.2,1.29-.2s.88.06,1.19.17.53.26.67.43.24.39.3.66c.03.16.05.46.05.89v1.29c0,.9.02,1.47.06,1.71.04.24.12.47.24.68h-1.01c-.1-.2-.16-.44-.19-.7ZM103.62,150.21c-.35.14-.88.27-1.58.37-.4.06-.68.12-.84.19-.16.07-.29.18-.38.31s-.13.29-.13.46c0,.26.1.47.29.64.19.17.48.26.86.26s.7-.08.99-.24.5-.39.64-.67c.1-.22.16-.54.16-.97v-.36Z"/>
      <path d="M106.1,153.08v-5.7h.87v.81c.42-.63,1.02-.94,1.82-.94.34,0,.66.06.95.19.29.12.5.29.65.49.14.2.24.44.3.71.04.18.05.49.05.94v3.51h-.97v-3.47c0-.39-.04-.69-.11-.88s-.21-.35-.4-.47c-.19-.12-.42-.17-.67-.17-.41,0-.77.13-1.07.39-.3.26-.45.76-.45,1.49v3.12h-.97Z"/>
      <path d="M111.86,150.22c0-1.06.29-1.84.88-2.35.49-.42,1.09-.63,1.79-.63.78,0,1.43.26,1.92.77s.75,1.22.75,2.13c0,.73-.11,1.31-.33,1.73-.22.42-.54.75-.96.98-.42.23-.88.35-1.38.35-.8,0-1.44-.26-1.94-.77-.49-.51-.74-1.25-.74-2.21ZM112.85,150.22c0,.73.16,1.28.48,1.64s.72.54,1.2.54.88-.18,1.2-.55.48-.92.48-1.67c0-.71-.16-1.24-.48-1.6-.32-.36-.72-.55-1.2-.55s-.88.18-1.2.54-.48.91-.48,1.64Z"/>
      <path d="M120.45,152.21l.14.85c-.27.06-.52.09-.73.09-.35,0-.62-.06-.82-.17-.19-.11-.33-.26-.41-.44s-.12-.56-.12-1.14v-3.28h-.71v-.75h.71v-1.41l.96-.58v1.99h.97v.75h-.97v3.33c0,.28.02.45.05.53.03.08.09.14.17.19.08.05.19.07.33.07.11,0,.25-.01.42-.04Z"/>
      <path d="M121.39,153.08v-7.87h.97v2.83c.45-.52,1.02-.78,1.71-.78.42,0,.79.08,1.1.25.31.17.53.4.67.69.13.29.2.72.2,1.28v3.62h-.97v-3.62c0-.48-.1-.83-.31-1.05-.21-.22-.51-.33-.89-.33-.29,0-.56.07-.81.22-.25.15-.43.35-.54.6-.11.25-.16.61-.16,1.05v3.12h-.97Z"/>
      <path d="M131.41,151.24l1,.12c-.16.58-.45,1.04-.88,1.36s-.97.48-1.63.48c-.83,0-1.5-.26-1.98-.77-.49-.51-.73-1.23-.73-2.16s.25-1.7.74-2.23,1.14-.79,1.92-.79,1.39.26,1.87.78c.48.52.73,1.25.73,2.19,0,.06,0,.14,0,.26h-4.25c.04.63.21,1.11.53,1.44.32.33.72.5,1.19.5.35,0,.66-.09.91-.28s.45-.48.6-.89ZM128.24,149.68h3.19c-.04-.48-.16-.84-.37-1.08-.31-.37-.71-.56-1.2-.56-.44,0-.82.15-1.12.45-.3.3-.47.69-.5,1.19Z"/>
      <path d="M133.62,153.08v-5.7h.87v.86c.22-.4.43-.67.61-.8.19-.13.4-.19.62-.19.33,0,.66.1.99.31l-.33.9c-.24-.14-.47-.21-.71-.21-.21,0-.4.06-.57.19s-.29.3-.36.53c-.11.34-.16.72-.16,1.13v2.99h-.97Z"/>
      <path d="M142.46,152.21l.14.85c-.27.06-.52.09-.73.09-.35,0-.62-.06-.82-.17-.19-.11-.33-.26-.41-.44s-.12-.56-.12-1.14v-3.28h-.71v-.75h.71v-1.41l.96-.58v1.99h.97v.75h-.97v3.33c0,.28.02.45.05.53.03.08.09.14.17.19.08.05.19.07.33.07.11,0,.25-.01.42-.04Z"/>
      <path d="M143.4,153.08v-7.87h.97v2.83c.45-.52,1.02-.78,1.71-.78.42,0,.79.08,1.1.25.31.17.53.4.67.69.13.29.2.72.2,1.28v3.62h-.97v-3.62c0-.48-.1-.83-.31-1.05-.21-.22-.51-.33-.89-.33-.29,0-.56.07-.81.22-.25.15-.43.35-.54.6-.11.25-.16.61-.16,1.05v3.12h-.97Z"/>
      <path d="M149.51,153.08v-5.7h.87v.86c.22-.4.43-.67.61-.8.19-.13.4-.19.62-.19.33,0,.66.1.99.31l-.33.9c-.24-.14-.47-.21-.71-.21-.21,0-.4.06-.57.19s-.29.3-.36.53c-.11.34-.16.72-.16,1.13v2.99h-.97Z"/>
      <path d="M157.09,151.24l1,.12c-.16.58-.45,1.04-.88,1.36s-.97.48-1.63.48c-.83,0-1.5-.26-1.98-.77-.49-.51-.73-1.23-.73-2.16s.25-1.7.74-2.23,1.14-.79,1.92-.79,1.39.26,1.87.78c.48.52.73,1.25.73,2.19,0,.06,0,.14,0,.26h-4.25c.04.63.21,1.11.53,1.44.32.33.72.5,1.19.5.35,0,.66-.09.91-.28s.45-.48.6-.89ZM153.91,149.68h3.19c-.04-.48-.16-.84-.37-1.08-.31-.37-.71-.56-1.2-.56-.44,0-.82.15-1.12.45-.3.3-.47.69-.5,1.19Z"/>
      <path d="M158.91,151.37l.96-.15c.05.38.2.68.45.88.25.21.59.31,1.03.31s.77-.09.99-.27.32-.39.32-.64c0-.22-.09-.39-.28-.52-.13-.09-.46-.19-.99-.33-.71-.18-1.2-.33-1.47-.46-.27-.13-.48-.31-.62-.54-.14-.23-.21-.49-.21-.77,0-.25.06-.49.17-.71.12-.22.27-.4.48-.54.15-.11.36-.21.62-.28.26-.08.54-.12.83-.12.45,0,.84.06,1.18.19.34.13.59.3.75.52.16.22.27.51.33.88l-.95.13c-.04-.29-.17-.52-.37-.69-.21-.17-.5-.25-.87-.25-.44,0-.76.07-.95.22-.19.15-.28.32-.28.52,0,.13.04.24.12.34.08.1.2.19.37.26.1.04.38.12.85.25.68.18,1.16.33,1.43.45.27.12.48.29.64.51.15.22.23.5.23.83s-.09.63-.28.91c-.19.29-.46.5-.81.66-.35.16-.76.23-1.2.23-.74,0-1.31-.15-1.69-.46-.39-.31-.64-.76-.74-1.37Z"/>
      <path d="M164.8,153.08v-7.87h.97v2.83c.45-.52,1.02-.78,1.71-.78.42,0,.79.08,1.1.25.31.17.53.4.67.69.13.29.2.72.2,1.28v3.62h-.97v-3.62c0-.48-.1-.83-.31-1.05-.21-.22-.5-.33-.89-.33-.29,0-.56.07-.81.22-.25.15-.43.35-.54.6-.11.25-.16.61-.16,1.05v3.12h-.97Z"/>
      <path d="M170.56,150.22c0-1.06.29-1.84.88-2.35.49-.42,1.09-.63,1.79-.63.78,0,1.42.26,1.92.77.5.51.75,1.22.75,2.13,0,.73-.11,1.31-.33,1.73-.22.42-.54.75-.96.98-.42.23-.88.35-1.38.35-.8,0-1.44-.26-1.94-.77-.49-.51-.74-1.25-.74-2.21ZM171.55,150.22c0,.73.16,1.28.48,1.64.32.36.72.54,1.2.54s.88-.18,1.2-.55c.32-.37.48-.92.48-1.67,0-.71-.16-1.24-.48-1.6-.32-.36-.72-.55-1.2-.55s-.88.18-1.2.54c-.32.36-.48.91-.48,1.64Z"/>
      <path d="M177.02,153.08v-7.87h.97v7.87h-.97Z"/>
      <path d="M183.18,153.08v-.72c-.36.57-.89.85-1.6.85-.45,0-.87-.12-1.25-.38-.38-.25-.68-.6-.89-1.05-.21-.45-.31-.97-.31-1.55s.09-1.09.28-1.55c.19-.46.47-.82.85-1.07.38-.25.8-.37,1.27-.37.34,0,.65.07.92.22.27.14.49.33.66.57v-2.83h.96v7.87h-.9ZM180.12,150.23c0,.73.15,1.28.46,1.64.31.36.67.54,1.09.54s.78-.17,1.08-.52c.29-.35.44-.87.44-1.58,0-.78-.15-1.35-.45-1.72s-.67-.55-1.11-.55-.79.18-1.08.53c-.29.35-.43.9-.43,1.66Z"/>
    </g>
  </g>
</svg>