<?xml version="1.0" encoding="UTF-8"?>
<svg id="Layer_1" xmlns="http://www.w3.org/2000/svg" version="1.1" xmlns:xlink="http://www.w3.org/1999/xlink" viewBox="0 0 500 500">
  <!-- Generator: Adobe Illustrator 29.8.2, SVG Export Plug-In . SVG Version: 2.1.1 Build 3)  -->
  <defs>
    <style>
      .st0 {
        fill: none;
      }

      .st1 {
        fill: #444;
      }

      .st2 {
        clip-path: url(#clippath);
      }
    </style>
    <clipPath id="clippath">
      <path class="st0" d="M398,24v77h77V24h-77ZM409,35h55v55h-55v-55ZM376,24v11h11v-11h-11ZM354,24v11h11v-11h-11ZM332,24v33h11V24h-11ZM321,24v11h11v-11h-11ZM299,24v11h11v-11h-11ZM288,24v11h11v-11h-11ZM266,24v22h11v-22h-11ZM244,24v77h11V24h-11ZM222,24v22h11v-22h-11ZM211,24v22h11v-22h-11ZM178,24v44h11V24h-11ZM156,24v11h11v-11h-11ZM145,24v11h11v-11h-11ZM24,24v77h77V24H24ZM35,35h55v55h-55v-55ZM343,35v11h11v-11h-11ZM310,35v11h11v-11h-11ZM200,35v11h11v-11h-11ZM189,35v22h11v-22h-11ZM123,35v22h11v-22h-11ZM112,35v11h11v-11h-11ZM420,46v33h33v-33h-33ZM365,46v22h11v-22h-11ZM354,46v22h11v-22h-11ZM299,46v33h11v-33h-11ZM288,46v11h11v-11h-11ZM167,46v22h11v-22h-11ZM156,46v11h11v-11h-11ZM46,46v33h33v-33h-33ZM343,57v11h11v-11h-11ZM233,57v11h11v-11h-11ZM200,57v11h11v-11h-11ZM134,57v11h11v-11h-11ZM112,57v11h11v-11h-11ZM376,68v11h11v-11h-11ZM332,68v11h11v-11h-11ZM321,68v22h11v-22h-11ZM310,68v11h11v-11h-11ZM255,68v22h11v-22h-11ZM222,68v33h11v-33h-11ZM211,68v11h11v-11h-11ZM189,68v11h11v-11h-11ZM145,68v11h11v-11h-11ZM123,68v22h11v-22h-11ZM365,79v11h11v-11h-11ZM354,79v22h11v-22h-11ZM266,79v22h11v-22h-11ZM233,79v11h11v-11h-11ZM167,79v11h11v-11h-11ZM112,79v44h11v-44h-11ZM376,90v11h11v-11h-11ZM332,90v11h11v-11h-11ZM310,90v22h11v-22h-11ZM288,90v11h11v-11h-11ZM200,90v11h11v-11h-11ZM178,90v11h11v-11h-11ZM156,90v11h11v-11h-11ZM134,90v11h11v-11h-11ZM321,101v11h11v-11h-11ZM277,101v55h11v-55h-11ZM255,101v11h11v-11h-11ZM233,101v22h11v-22h-11ZM167,101v11h11v-11h-11ZM453,112v44h11v-44h-11ZM431,112v11h11v-11h-11ZM409,112v11h11v-11h-11ZM398,112v11h11v-11h-11ZM387,112v11h11v-11h-11ZM376,112v11h11v-11h-11ZM343,112v11h11v-11h-11ZM299,112v11h11v-11h-11ZM288,112v11h11v-11h-11ZM200,112v11h11v-11h-11ZM189,112v11h11v-11h-11ZM101,112v22h11v-22h-11ZM90,112v11h11v-11h-11ZM79,112v77h11v-77h-11ZM57,112v22h11v-22h-11ZM46,112v44h11v-44h-11ZM24,112v22h11v-22h-11ZM464,123v11h11v-11h-11ZM266,123v22h11v-22h-11ZM255,123v22h11v-22h-11ZM211,123v22h11v-22h-11ZM156,123v22h11v-22h-11ZM134,123v11h11v-11h-11ZM123,123v44h11v-44h-11ZM68,123v22h11v-22h-11ZM431,134v11h11v-11h-11ZM376,134v22h11v-22h-11ZM365,134v44h11v-44h-11ZM343,134v22h11v-22h-11ZM310,134v11h11v-11h-11ZM244,134v11h11v-11h-11ZM178,134v11h11v-11h-11ZM90,134v11h11v-11h-11ZM464,145v11h11v-11h-11ZM442,145v11h11v-11h-11ZM420,145v11h11v-11h-11ZM398,145v44h11v-44h-11ZM354,145v11h11v-11h-11ZM332,145v44h11v-44h-11ZM288,145v55h11v-55h-11ZM57,145v22h11v-22h-11ZM35,145v11h11v-11h-11ZM387,156v55h11v-55h-11ZM310,156v22h11v-22h-11ZM299,156v55h11v-55h-11ZM266,156v11h11v-11h-11ZM244,156v11h11v-11h-11ZM211,156v44h11v-44h-11ZM200,156v11h11v-11h-11ZM189,156v22h11v-22h-11ZM178,156v11h11v-11h-11ZM145,156v33h11v-33h-11ZM112,156v44h11v-44h-11ZM101,156v11h11v-11h-11ZM90,156v11h11v-11h-11ZM68,156v22h11v-22h-11ZM24,156v33h11v-33h-11ZM453,167v11h11v-11h-11ZM442,167v11h11v-11h-11ZM431,167v22h11v-22h-11ZM354,167v11h11v-11h-11ZM321,167v44h11v-44h-11ZM277,167v11h11v-11h-11ZM46,167v77h11v-77h-11ZM464,178v44h11v-44h-11ZM409,178v33h11v-33h-11ZM376,178v11h11v-11h-11ZM343,178v11h11v-11h-11ZM255,178v11h11v-11h-11ZM244,178v22h11v-22h-11ZM200,178v11h11v-11h-11ZM178,178v11h11v-11h-11ZM123,178v44h11v-44h-11ZM90,178v11h11v-11h-11ZM453,189v11h11v-11h-11ZM442,189v11h11v-11h-11ZM420,189v55h11v-55h-11ZM354,189v11h11v-11h-11ZM156,189v22h11v-22h-11ZM398,200v11h11v-11h-11ZM376,200v55h11v-55h-11ZM365,200v11h11v-11h-11ZM332,200v33h11v-33h-11ZM310,200v11h11v-11h-11ZM255,200v11h11v-11h-11ZM233,200v11h11v-11h-11ZM222,200v33h11v-33h-11ZM178,200v22h11v-22h-11ZM167,200v11h11v-11h-11ZM145,200v11h11v-11h-11ZM90,200v11h11v-11h-11ZM79,200v11h11v-11h-11ZM68,200v11h11v-11h-11ZM57,200v33h11v-33h-11ZM35,200v11h11v-11h-11ZM431,211v33h11v-33h-11ZM244,211v110h11v-110h-11ZM200,211v11h11v-11h-11ZM189,211v44h11v-44h-11ZM112,211v33h11v-33h-11ZM101,211v11h11v-11h-11ZM442,222v22h11v-22h-11ZM354,222v33h11v-33h-11ZM343,222v22h11v-22h-11ZM321,222v55h11v-55h-11ZM310,222v22h11v-22h-11ZM288,222v11h11v-11h-11ZM255,222v22h11v-22h-11ZM211,222v33h11v-33h-11ZM167,222v22h11v-22h-11ZM145,222v11h11v-11h-11ZM134,222v11h11v-11h-11ZM90,222v11h11v-11h-11ZM79,222v33h11v-33h-11ZM35,222v11h11v-11h-11ZM24,222v11h11v-11h-11ZM464,233v11h11v-11h-11ZM453,233v33h11v-33h-11ZM365,233v33h11v-33h-11ZM277,233v55h11v-55h-11ZM266,233v22h11v-22h-11ZM156,233v11h11v-11h-11ZM409,244v22h11v-22h-11ZM398,244v22h11v-22h-11ZM332,244v11h11v-11h-11ZM299,244v22h11v-22h-11ZM233,244v11h11v-11h-11ZM222,244v11h11v-11h-11ZM200,244v22h11v-22h-11ZM134,244v22h11v-22h-11ZM123,244v44h11v-44h-11ZM101,244v11h11v-11h-11ZM90,244v11h11v-11h-11ZM68,244v11h11v-11h-11ZM464,255v22h11v-22h-11ZM420,255v22h11v-22h-11ZM387,255v22h11v-22h-11ZM310,255v11h11v-11h-11ZM255,255v22h11v-22h-11ZM156,255v22h11v-22h-11ZM112,255v11h11v-11h-11ZM24,255v22h11v-22h-11ZM431,266v11h11v-11h-11ZM354,266v44h11v-44h-11ZM343,266v11h11v-11h-11ZM233,266v22h11v-22h-11ZM178,266v22h11v-22h-11ZM101,266v11h11v-11h-11ZM90,266v11h11v-11h-11ZM79,266v11h11v-11h-11ZM68,266v11h11v-11h-11ZM46,266v22h11v-22h-11ZM453,277v11h11v-11h-11ZM442,277v22h11v-22h-11ZM310,277v11h11v-11h-11ZM211,277v44h11v-44h-11ZM189,277v11h11v-11h-11ZM167,277v11h11v-11h-11ZM57,277v11h11v-11h-11ZM464,288v11h11v-11h-11ZM431,288v11h11v-11h-11ZM409,288v22h11v-22h-11ZM398,288v22h11v-22h-11ZM387,288v33h11v-33h-11ZM376,288v33h11v-33h-11ZM365,288v11h11v-11h-11ZM343,288v11h11v-11h-11ZM332,288v11h11v-11h-11ZM299,288v22h11v-22h-11ZM288,288v22h11v-22h-11ZM266,288v22h11v-22h-11ZM255,288v11h11v-11h-11ZM145,288v33h11v-33h-11ZM90,288v11h11v-11h-11ZM79,288v22h11v-22h-11ZM24,288v44h11v-44h-11ZM453,299v22h11v-22h-11ZM321,299v55h11v-55h-11ZM310,299v22h11v-22h-11ZM277,299v22h11v-22h-11ZM189,299v88h11v-88h-11ZM156,299v22h11v-22h-11ZM134,299v11h11v-11h-11ZM112,299v44h11v-44h-11ZM420,310v11h11v-11h-11ZM178,310v11h11v-11h-11ZM101,310v22h11v-22h-11ZM90,310v11h11v-11h-11ZM68,310v55h11v-55h-11ZM57,310v22h11v-22h-11ZM46,310v77h11v-77h-11ZM288,321v11h11v-11h-11ZM233,321v11h11v-11h-11ZM200,321v33h11v-33h-11ZM79,321v22h11v-22h-11ZM35,321v11h11v-11h-11ZM464,332v22h11v-22h-11ZM453,332v22h11v-22h-11ZM431,332v11h11v-11h-11ZM420,332v22h11v-22h-11ZM387,332v11h11v-11h-11ZM376,332v11h11v-11h-11ZM365,332v22h11v-22h-11ZM343,332v11h11v-11h-11ZM277,332v11h11v-11h-11ZM266,332v11h11v-11h-11ZM255,332v11h11v-11h-11ZM244,332v11h11v-11h-11ZM211,332v11h11v-11h-11ZM178,332v11h11v-11h-11ZM156,332v22h11v-22h-11ZM134,332v11h11v-11h-11ZM90,332v11h11v-11h-11ZM332,343v11h11v-11h-11ZM288,343v11h11v-11h-11ZM233,343v44h11v-44h-11ZM101,343v11h11v-11h-11ZM35,343v22h11v-22h-11ZM24,343v44h11v-44h-11ZM431,354v22h11v-22h-11ZM409,354v11h11v-11h-11ZM387,354v33h11v-33h-11ZM354,354v11h11v-11h-11ZM277,354v11h11v-11h-11ZM266,354v22h11v-22h-11ZM244,354v22h11v-22h-11ZM211,354v11h11v-11h-11ZM145,354v11h11v-11h-11ZM134,354v22h11v-22h-11ZM90,354v11h11v-11h-11ZM79,354v33h11v-33h-11ZM57,354v11h11v-11h-11ZM453,365v33h11v-33h-11ZM376,365v66h11v-66h-11ZM299,365v11h11v-11h-11ZM200,365v22h11v-22h-11ZM167,365v22h11v-22h-11ZM156,365v44h11v-44h-11ZM112,365v11h11v-11h-11ZM464,376v22h11v-22h-11ZM442,376v11h11v-11h-11ZM420,376v66h11v-66h-11ZM409,376v11h11v-11h-11ZM398,376v11h11v-11h-11ZM321,376v22h11v-22h-11ZM310,376v55h11v-55h-11ZM288,376v33h11v-33h-11ZM277,376v22h11v-22h-11ZM255,376v44h11v-44h-11ZM123,376v11h11v-11h-11ZM90,376v11h11v-11h-11ZM431,387v22h11v-22h-11ZM365,387v11h11v-11h-11ZM343,387v33h11v-33h-11ZM332,387v11h11v-11h-11ZM299,387v11h11v-11h-11ZM266,387v11h11v-11h-11ZM244,387v33h11v-33h-11ZM222,387v22h11v-22h-11ZM134,387v77h11v-77h-11ZM112,387v33h11v-33h-11ZM398,398v11h11v-11h-11ZM233,398v22h11v-22h-11ZM211,398v22h11v-22h-11ZM189,398v11h11v-11h-11ZM178,398v33h11v-33h-11ZM145,398v11h11v-11h-11ZM123,398v11h11v-11h-11ZM24,398v77h77v-77H24ZM35,409h55v55h-55v-55ZM464,409v33h11v-33h-11ZM453,409v11h11v-11h-11ZM354,409v11h11v-11h-11ZM332,409v11h11v-11h-11ZM266,409v11h11v-11h-11ZM200,409v11h11v-11h-11ZM442,420v11h11v-11h-11ZM431,420v55h11v-55h-11ZM409,420v11h11v-11h-11ZM398,420v22h11v-22h-11ZM387,420v11h11v-11h-11ZM365,420v11h11v-11h-11ZM222,420v55h11v-55h-11ZM46,420v33h33v-33h-33ZM453,431v11h11v-11h-11ZM354,431v44h11v-44h-11ZM299,431v11h11v-11h-11ZM233,431v11h11v-11h-11ZM200,431v11h11v-11h-11ZM167,431v11h11v-11h-11ZM156,431v11h11v-11h-11ZM123,431v44h11v-44h-11ZM112,431v22h11v-22h-11ZM442,442v33h11v-33h-11ZM409,442v22h11v-22h-11ZM387,442v33h11v-33h-11ZM376,442v33h11v-33h-11ZM343,442v11h11v-11h-11ZM277,442v22h11v-22h-11ZM255,442v33h11v-33h-11ZM244,442v22h11v-22h-11ZM211,442v33h11v-33h-11ZM145,442v11h11v-11h-11ZM464,453v11h11v-11h-11ZM453,453v11h11v-11h-11ZM332,453v11h11v-11h-11ZM321,453v11h11v-11h-11ZM310,453v22h11v-22h-11ZM299,453v11h11v-11h-11ZM266,453v11h11v-11h-11ZM233,453v11h11v-11h-11ZM178,453v22h11v-22h-11ZM167,453v11h11v-11h-11ZM365,464v11h11v-11h-11ZM343,464v11h11v-11h-11ZM189,464v11h11v-11h-11ZM112,464v11h11v-11h-11Z"/>
    </clipPath>
  </defs>
  <g class="st2">
    <rect class="st1" width="500" height="500"/>
  </g>
</svg>