<?xml version="1.0" encoding="UTF-8"?>
<svg id="Layer_1" xmlns="http://www.w3.org/2000/svg" version="1.1" xmlns:xlink="http://www.w3.org/1999/xlink" viewBox="0 0 500 500">
  <!-- Generator: Adobe Illustrator 29.8.2, SVG Export Plug-In . SVG Version: 2.1.1 Build 3)  -->
  <defs>
    <style>
      .st0 {
        fill: none;
      }

      .st1 {
        fill: #444;
      }

      .st2 {
        clip-path: url(#clippath);
      }
    </style>
    <clipPath id="clippath">
      <path class="st0" d="M383,19v98h98V19h-98ZM397,33h70v70h-70V33ZM355,19v14h14v-14h-14ZM341,19v14h14v-14h-14ZM327,19v14h14v-14h-14ZM313,19v70h14V19h-14ZM285,19v56h14V19h-14ZM271,19v28h14v-28h-14ZM257,19v28h14v-28h-14ZM229,19v14h14v-14h-14ZM173,19v28h14v-28h-14ZM159,19v28h14v-28h-14ZM19,19v98h98V19H19ZM33,33h70v70H33V33ZM299,33v14h14v-14h-14ZM215,33v28h14v-28h-14ZM201,33v42h14v-42h-14ZM145,33v28h14v-28h-14ZM131,33v98h14V33h-14ZM411,47v42h42v-42h-42ZM355,47v14h14v-14h-14ZM187,47v14h14v-14h-14ZM47,47v42h42v-42h-42ZM341,61v28h14v-28h-14ZM327,61v28h14v-28h-14ZM271,61v112h14V61h-14ZM257,61v14h14v-14h-14ZM159,61v70h14V61h-14ZM355,75v14h14v-14h-14ZM299,89v84h14v-84h-14ZM285,89v14h14v-14h-14ZM257,89v14h14v-14h-14ZM243,89v56h14v-56h-14ZM215,89v84h14v-84h-14ZM173,89v14h14v-14h-14ZM355,103v70h14v-70h-14ZM327,103v28h14v-28h-14ZM187,103v14h14v-14h-14ZM173,117v42h14v-42h-14ZM453,131v42h14v-42h-14ZM439,131v14h14v-14h-14ZM425,131v70h14v-70h-14ZM411,131v14h14v-14h-14ZM397,131v28h14v-28h-14ZM383,131v14h14v-14h-14ZM369,131v14h14v-14h-14ZM341,131v14h14v-14h-14ZM313,131v14h14v-14h-14ZM285,131v28h14v-28h-14ZM229,131v14h14v-14h-14ZM145,131v42h14v-42h-14ZM103,131v14h14v-14h-14ZM89,131v28h14v-28h-14ZM75,131v14h14v-14h-14ZM19,131v14h14v-14h-14ZM257,145v28h14v-28h-14ZM201,145v28h14v-28h-14ZM117,145v42h14v-42h-14ZM61,145v28h14v-28h-14ZM467,159v14h14v-14h-14ZM369,159v14h14v-14h-14ZM313,159v84h14v-84h-14ZM243,159v14h14v-14h-14ZM229,159v14h14v-14h-14ZM187,159v14h14v-14h-14ZM159,159v28h14v-28h-14ZM103,159v14h14v-14h-14ZM75,159v28h14v-28h-14ZM19,159v14h14v-14h-14ZM439,173v14h14v-14h-14ZM411,173v14h14v-14h-14ZM383,173v56h14v-56h-14ZM341,173v14h14v-14h-14ZM131,173v28h14v-28h-14ZM89,173v14h14v-14h-14ZM453,187v28h14v-28h-14ZM299,187v14h14v-14h-14ZM285,187v28h14v-28h-14ZM271,187v28h14v-28h-14ZM257,187v14h14v-14h-14ZM243,187v28h14v-28h-14ZM215,187v14h14v-14h-14ZM201,187v14h14v-14h-14ZM103,187v14h14v-14h-14ZM61,187v14h14v-14h-14ZM47,187v28h14v-28h-14ZM33,187v14h14v-14h-14ZM19,187v14h14v-14h-14ZM439,201v14h14v-14h-14ZM397,201v42h14v-42h-14ZM355,201v56h14v-56h-14ZM327,201v14h14v-14h-14ZM229,201v70h14v-70h-14ZM187,201v56h14v-56h-14ZM159,201v14h14v-14h-14ZM425,215v14h14v-14h-14ZM299,215v14h14v-14h-14ZM257,215v14h14v-14h-14ZM215,215v14h14v-14h-14ZM201,215v42h14v-42h-14ZM173,215v28h14v-28h-14ZM131,215v14h14v-14h-14ZM117,215v14h14v-14h-14ZM103,215v14h14v-14h-14ZM89,215v56h14v-56h-14ZM61,215v14h14v-14h-14ZM19,215v14h14v-14h-14ZM453,229v28h14v-28h-14ZM439,229v14h14v-14h-14ZM369,229v14h14v-14h-14ZM341,229v14h14v-14h-14ZM285,229v84h14v-84h-14ZM243,229v28h14v-28h-14ZM159,229v14h14v-14h-14ZM33,229v14h14v-14h-14ZM467,243v56h14v-56h-14ZM425,243v28h14v-28h-14ZM327,243v42h14v-42h-14ZM299,243v14h14v-14h-14ZM271,243v42h14v-42h-14ZM215,243v14h14v-14h-14ZM145,243v14h14v-14h-14ZM103,243v14h14v-14h-14ZM75,243v42h14v-42h-14ZM61,243v14h14v-14h-14ZM411,257v42h14v-42h-14ZM383,257v14h14v-14h-14ZM131,257v14h14v-14h-14ZM47,257v28h14v-28h-14ZM33,257v14h14v-14h-14ZM19,257v42h14v-42h-14ZM439,271v28h14v-28h-14ZM397,271v14h14v-14h-14ZM355,271v14h14v-14h-14ZM313,271v14h14v-14h-14ZM299,271v112h14v-112h-14ZM243,271v28h14v-28h-14ZM187,271v14h14v-14h-14ZM159,271v14h14v-14h-14ZM103,271v14h14v-14h-14ZM453,285v56h14v-56h-14ZM369,285v14h14v-14h-14ZM257,285v28h14v-28h-14ZM229,285v42h14v-42h-14ZM215,285v14h14v-14h-14ZM145,285v42h14v-42h-14ZM425,299v84h14v-84h-14ZM327,299v28h14v-28h-14ZM201,299v14h14v-14h-14ZM173,299v42h14v-42h-14ZM103,299v14h14v-14h-14ZM89,299v42h14v-42h-14ZM61,299v42h14v-42h-14ZM47,299v14h14v-14h-14ZM33,299v14h14v-14h-14ZM411,313v14h14v-14h-14ZM397,313v56h14v-56h-14ZM383,313v14h14v-14h-14ZM369,313v14h14v-14h-14ZM341,313v42h14v-42h-14ZM313,313v14h14v-14h-14ZM215,313v84h14v-84h-14ZM187,313v14h14v-14h-14ZM159,313v14h14v-14h-14ZM117,313v28h14v-28h-14ZM467,327v14h14v-14h-14ZM355,327v98h14v-98h-14ZM271,327v14h14v-14h-14ZM243,327v28h14v-28h-14ZM201,327v14h14v-14h-14ZM131,327v14h14v-14h-14ZM103,327v14h14v-14h-14ZM33,327v14h14v-14h-14ZM383,341v28h14v-28h-14ZM285,341v14h14v-14h-14ZM257,341v14h14v-14h-14ZM229,341v14h14v-14h-14ZM145,341v14h14v-14h-14ZM47,341v28h14v-28h-14ZM19,341v28h14v-28h-14ZM467,355v14h14v-14h-14ZM411,355v84h14v-84h-14ZM369,355v14h14v-14h-14ZM313,355v14h14v-14h-14ZM271,355v70h14v-70h-14ZM187,355v28h14v-28h-14ZM117,355v14h14v-14h-14ZM103,355v14h14v-14h-14ZM75,355v14h14v-14h-14ZM453,369v28h14v-28h-14ZM327,369v56h14v-56h-14ZM285,369v14h14v-14h-14ZM243,369v14h14v-14h-14ZM229,369v28h14v-28h-14ZM173,369v28h14v-28h-14ZM159,369v28h14v-28h-14ZM439,383v28h14v-28h-14ZM383,383v14h14v-14h-14ZM313,383v14h14v-14h-14ZM257,383v28h14v-28h-14ZM201,383v28h14v-28h-14ZM145,383v28h14v-28h-14ZM19,383v98h98v-98H19ZM33,397h70v70H33v-70ZM467,397v14h14v-14h-14ZM299,397v42h14v-42h-14ZM285,397v70h14v-70h-14ZM243,397v28h14v-28h-14ZM187,397v42h14v-42h-14ZM131,397v28h14v-28h-14ZM453,411v42h14v-42h-14ZM425,411v14h14v-14h-14ZM397,411v42h14v-42h-14ZM383,411v14h14v-14h-14ZM369,411v14h14v-14h-14ZM341,411v42h14v-42h-14ZM215,411v28h14v-28h-14ZM173,411v56h14v-56h-14ZM159,411v14h14v-14h-14ZM47,411v42h42v-42h-42ZM439,425v28h14v-28h-14ZM257,425v28h14v-28h-14ZM229,425v28h14v-28h-14ZM145,425v28h14v-28h-14ZM383,439v28h14v-28h-14ZM369,439v14h14v-14h-14ZM327,439v28h14v-28h-14ZM271,439v28h14v-28h-14ZM201,439v42h14v-42h-14ZM159,439v28h14v-28h-14ZM467,453v14h14v-14h-14ZM411,453v14h14v-14h-14ZM299,453v14h14v-14h-14ZM215,453v14h14v-14h-14ZM425,467v14h14v-14h-14ZM369,467v14h14v-14h-14ZM341,467v14h14v-14h-14ZM313,467v14h14v-14h-14ZM257,467v14h14v-14h-14ZM243,467v14h14v-14h-14ZM145,467v14h14v-14h-14ZM131,467v14h14v-14h-14Z"/>
    </clipPath>
  </defs>
  <g class="st2">
    <rect class="st1" width="500" height="500"/>
  </g>
</svg>