<?xml version="1.0" encoding="UTF-8"?>
<svg id="Layer_1" xmlns="http://www.w3.org/2000/svg" version="1.1" viewBox="0 0 1920 1080">
  <!-- Generator: Adobe Illustrator 29.7.1, SVG Export Plug-In . SVG Version: 2.1.1 Build 8)  -->
  <defs>
    <style>
      .st0 {
        fill: #f7a238;
      }

      .st1 {
        fill: #db1f26;
      }

      .st2 {
        fill: #141227;
      }

      .st3 {
        fill: #36a85d;
      }

      .st4 {
        fill: #fff;
      }

      .st5 {
        opacity: .4;
      }

      .st6 {
        fill: #fff34d;
      }

      .st7 {
        fill: #00a5dc;
      }

      .st8 {
        fill: #b57ab4;
      }

      .st9 {
        fill: #164f86;
      }

      .st10 {
        fill: #a65628;
      }

      .st11 {
        isolation: isolate;
        opacity: .94;
      }
    </style>
  </defs>
  <polygon class="st2" points="1920 0 1920 1080 0 1080 0 0 1920 0"/>
  <g class="st11">
    <path class="st4" d="M338.68,670.34v44.28h37.98v21.41h-37.98v83.28c0,19.13,5.06,29.91,19.87,29.91,7.04,0,12.1-1.03,15.32-1.98l1.25,21.11c-5.06,2.27-13.34,3.74-23.39,3.74-12.32,0-22.36-4.03-28.66-11.8-7.55-8.28-10.34-22.14-10.34-40.25v-84.24h-22.65v-21.41h22.65v-37.02l25.95-7.04Z"/>
    <path class="st4" d="M430.17,671.3c.22,9.53-6.3,17.37-16.86,17.37-9.31,0-15.84-7.55-15.84-17.37s7.04-17.59,16.57-17.59,16.13,7.84,16.13,17.59ZM400.56,869.24v-154.39h26.39v154.39h-26.39Z"/>
    <path class="st4" d="M591.17,642.63v186.65c0,13.86.22,29.4,1.25,39.95h-23.9l-1.25-26.91h-.51c-8.06,17.37-25.88,30.42-49.78,30.42-35.19,0-62.39-31.67-62.39-78.44-.22-51.32,29.91-82.99,65.39-82.99,22.36,0,37.24,11.07,43.99,23.61h.51v-92.3h26.69ZM564.7,777.74c0-3.52-.22-8.28-1.25-11.8-4.03-17.89-18.33-32.48-38.2-32.48-27.42,0-43.77,25.66-43.77,59.6,0,31.16,14.37,57.11,43.03,57.11,17.89,0,33.94-12.32,38.71-33.43,1.03-3.74,1.25-7.55,1.25-12.1v-26.91h.22Z"/>
    <path class="st4" d="M638.89,714.84l31.96,91.27c3.3,10.34,7.04,22.36,9.31,31.67h.51c2.79-9.31,5.79-21.11,9.31-32.18l28.88-90.54h27.93l-39.74,110.19c-18.84,53.08-31.96,79.98-50.07,96.55-12.83,12.1-25.88,16.86-32.4,18.11l-6.52-23.61c6.52-2.27,15.32-6.82,23.17-13.86,7.26-6.01,16.35-16.86,22.36-31.16,1.25-2.79,1.98-5.06,1.98-6.82,0-1.54-.51-3.74-1.76-7.26l-53.81-142.37h28.88Z"/>
    <path class="st4" d="M765.43,756.56c0-15.84-.22-28.96-1.25-41.79h23.17l1.25,24.93h1.03c8.06-14.59,21.63-28.45,45.75-28.45,19.87,0,34.97,12.83,41.27,30.94h.51c4.55-8.58,10.34-15.32,16.35-20.09,8.8-7.04,18.33-10.85,32.18-10.85,19.35,0,47.8,13.34,47.8,66.93v91.05h-25.88v-87.53c0-29.69-10.34-47.51-31.67-47.51-15.1,0-26.91,11.8-31.16,25.66-1.25,3.74-1.98,9.09-1.98,14.08v95.31h-25.88v-92.59c0-24.63-10.34-42.52-30.42-42.52-16.57,0-28.66,14.08-32.7,28.15-1.54,4.03-1.98,9.09-1.98,13.86v93.03h-25.88v-112.61h-.51Z"/>
    <path class="st4" d="M1142.55,790.79c0,57.11-37.24,81.96-72.43,81.96-39.44,0-69.94-30.72-69.94-79.47,0-51.83,31.96-81.96,72.14-81.96,41.86,0,70.23,32.18,70.23,79.47ZM1026.93,792.33c0,33.72,18.33,59.38,44.28,59.38s44.28-25.15,44.28-60.12c0-26.17-12.32-59.38-43.77-59.38s-44.79,30.64-44.79,60.12Z"/>
    <path class="st4" d="M1295.99,642.63v186.65c0,13.86.22,29.4,1.25,39.95h-23.9l-1.25-26.91h-.51c-8.06,17.37-25.88,30.42-49.78,30.42-35.19,0-62.39-31.67-62.39-78.44-.22-51.32,29.91-82.99,65.39-82.99,22.36,0,37.24,11.07,43.99,23.61h.51v-92.3h26.69ZM1269.6,777.74c0-3.52-.22-8.28-1.25-11.8-4.03-17.89-18.33-32.48-38.2-32.48-27.42,0-43.77,25.66-43.77,59.6,0,31.16,14.37,57.11,43.03,57.11,17.89,0,33.94-12.32,38.71-33.43,1.03-3.74,1.25-7.55,1.25-12.1v-26.91h.22Z"/>
    <path class="st4" d="M1348.99,797.1c.51,37.98,23.39,53.59,50.07,53.59,18.84,0,30.42-3.52,40.25-8.06l4.55,20.09c-9.31,4.55-25.37,9.53-48.53,9.53-44.79,0-71.7-31.16-71.7-78s25.88-83.28,68.4-83.28c47.51,0,60.12,44.28,60.12,72.65,0,5.79-.51,10.34-1.03,13.05h-102.12v.44ZM1426.7,776.94c.22-17.89-7.04-45.53-36.73-45.53-26.91,0-38.49,26.17-40.76,45.53h77.49Z"/>
    <path class="st4" d="M1479.27,642.63h26.39v226.61h-26.39v-226.61Z"/>
    <path class="st4" d="M1541.14,840.57c7.77,5.5,21.63,11.07,34.97,11.07,19.35,0,28.45-10.34,28.45-22.87,0-13.34-7.55-20.6-27.13-28.45-26.17-9.82-38.49-25.15-38.49-43.77,0-24.93,18.84-45.31,50.29-45.31,14.81,0,27.64,4.55,35.7,9.53l-6.52,20.38c-5.79-3.74-16.35-9.09-29.91-9.09-15.62,0-24.41,9.53-24.41,21.11,0,12.83,8.8,18.62,27.64,26.17,25.37,10.34,38.2,23.61,38.2,46.55,0,27.2-19.87,46.26-54.54,46.26-15.84,0-30.64-4.03-40.98-10.56l6.74-21.04Z"/>
  </g>
  <g id="surface31">
    <path class="st1" d="M1867.47,592.98l-31.54-2.77-31.54-3.14-21.05-2.34-21.05-2.77-20.73-2.96-10.48-1.66-20.73-3.82-10.48-1.91-20.73-4.43-10.24-2.34-20.73-5.3-20.73-5.91-10.48-3.14-10.48-3.39-20.73-7.39-5.24-2.09-5-1.91-10.24-4.25-10.48-4.43-10.48-4.62-20.73-9.91-10.48-5.05-21.05-10.96-5.57-3.14-5-2.52-6.37-3.82-4.11-2.34-6.94-4.25-3.63-1.91-7.18-4.43-3.31-1.91-7.18-4.43-3.31-1.91-6.94-4.43-3.31-2.09-6.61-4.25-3.87-2.34-6.05-4-4.44-2.77-5.24-3.57-5.24-3.39-21.05-14.16-20.73-14.35-42.34-30.42-19.11-14.16-165.9-127.64-33.23-25.12-12.74-9.3-21.29-14.59-10.48-6.96-10.81-6.53-10.81-6.34-10.81-5.91-10.48-5.3-10.81-4.86-10.81-4.25-10.81-3.82-11.05-3.14-11.05-2.52-11.05-1.91-11.05-1.29-11.05-.62h-11.05l-11.05.62-11.05,1.29-11.05,1.66-11.05,2.34-10.24,2.77-10.89,3.39-11.05,3.82-8.55,3.39-12.74,5.05-10.81,4.62-6.61,2.96-13.31,6.34-11.86,6.1-21.29,11.21-157.76,87.68-62.83,32.76-31.29,15.21-21.05,9.73-31.29,13.92-20.49,8.44-21.61,8.44-21.05,7.82-20.73,7.2-20.73,6.53-21.05,5.91-20.73,5.3-20.73,4.62-10.48,2.09-10.48,1.91-20.73,3.57-10.48,1.48-20.73,2.77-20.73,2.34-10.48.86-10.48.86-20.73,1.29-21.05,1.05-21.05.62-21.05.43-30.97.18h-20.97l-21.61-.18c-.24,3.57-.56,7.2-.81,10.59h1.13l42.34.18h10.48l31.54-.43,21.29-.62,21.29-.86,21.29-1.29,21.29-1.48,10.48-1.05,21.29-2.34,21.29-2.77,10.81-1.66,10.48-1.66,21.29-3.82,10.81-2.09,21.29-4.86,21.29-5.48,21.29-6.1,21.29-6.77,21.29-7.2,9.68-3.39,22.1-8.44,21.29-8.68,20.49-8.68,21.86-9.73,20.16-9.48,32.66-15.82,31.54-16.07,42.34-22.41,94.85-52.83,48.71-27.03,24.03-12.68,11.05-5.73,10.48-5.05,10.48-4.86,7.5-3.39,12.99-5.48,10.24-4,8.87-3.14,11.61-3.57,9.68-2.52,10.81-2.34,9.92-1.66,9.92-1.05,9.92-.43h9.92l9.92.62,9.92,1.29,9.92,1.91,8.31,1.91,11.86,3.39,10.24,3.57,10.24,4,10.24,4.62,10.24,5.05,7.18,4,11.05,6.34,10.24,6.34,9.92,6.34,13.31,8.87,21.05,14.78,19.36,14.35,148.56,114.89,42.34,31.89,42.34,30.85,19.92,14.16,18.79,12.87,3.31,2.34,6.05,4,4.44,3.14,21.05,13.73,21.29,13.3,21.29,12.68,21.29,12.25,5,2.77,5.57,3.14,6.37,3.39,4.11,2.34,20.73,10.59,11.05,5.48,10.48,4.86,6.05,2.52,4.68,2.09,10.24,4.25,11.05,4.62,5.24,1.91,5.57,2.09,10.81,4,10.48,3.82,21.29,6.77,21.29,6.1,21.29,5.3,10.48,2.34,21.29,4.43,10.48,1.91,21.29,3.57,10.48,1.66,20.73,2.96,21.61,2.77,21.05,2.34,31.78,3.14,31.54,2.77,52.59,4,1.37-10.59-52.42-3.82Z"/>
    <path class="st7" d="M1919.17,535.72l-31.54.62-31.54.18-21.05-.18-21.05-.43-20.73-.86-10.48-.43-10.48-.62-10.48-.86-10.48-.86-20.73-2.34-10.48-1.29-10.24-1.48-20.73-3.57-10.24-2.09-10.24-2.34-10.48-2.52-10.24-2.77-6.61-1.91-3.87-1.05-10.24-3.14-6.61-2.09-3.87-1.05-20.73-7.2-10.24-4-10.48-4-6.05-2.52-4.44-1.91-10.48-4.43-20.73-9.48-6.61-3.39-3.63-1.66-20.73-10.34-20.73-10.96-4.11-2.34-6.37-3.39-5.24-2.96-5.24-2.77-6.05-3.57-4.11-2.34-6.94-4-3.63-1.91-7.5-4.43-3.06-1.66-18.55-10.96-2.5-1.48-28.79-17.73-2.74-1.66-27.66-17.55-3.87-2.34-6.05-4-4.44-2.77-5.57-3.57-5-3.14-187.28-124.44-29.84-19.21-20.49-12.68-21.61-12.87-11.37-6.53-11.86-6.34-12.18-6.34-11.37-5.48-10.81-4.86-10.48-4.25-10.81-4-10.81-3.39-10.81-2.96-11.05-2.34-11.05-1.91-11.05-1.29-11.37-.62-10.81.18-11.05.86-11.05,1.48-10.48,1.91-11.61,2.77-11.05,3.39-10.48,3.82-8.31,3.39-13.55,5.91-10.81,5.05-10.81,5.48-10.81,5.73-17.74,10.16-21.05,12.87-77.35,48.46-42.02,25.98-31.54,18.59-21.05,11.82-6.05,3.39-4.11,2.34-7.18,4-3.06,1.66-21.05,10.78-21.05,10.16-19.92,9.11-11.37,4.86-10.48,4.43-20.73,8.25-10.48,3.82-10.48,3.57-10.48,3.57-20.73,6.53-20.73,5.91-20.73,5.3-10.48,2.34-21.05,4.43-10.48,2.09-21.05,3.82-10.48,1.66-10.48,1.66-21.05,3.14-21.05,2.77-21.05,2.52-31.54,3.39-52.59,4.86-73.56,5.91-52.83,3.82c-.24,3.57-.56,7.2-.81,10.78l76.06-5.73,52.59-4.25,52.83-4.86,21.05-2.34,31.78-3.82,21.29-2.77,10.48-1.48,21.29-3.39,10.48-1.66,10.81-1.91,21.05-4,21.29-4.62,10.81-2.52,21.29-5.48,21.29-6.1,10.81-3.39,10.48-3.39,9.92-3.39,11.37-4,21.29-8,10.48-4.25,21.29-9.11,21.05-9.73,20.73-10.16,11.37-5.73,21.05-11.21,31.54-17.73,17.74-10.34,3.63-2.09,28.23-17.12,60.89-38.42,47.58-29.8,21.05-12.44,15.24-8.68,11.86-6.34,12.99-6.34,11.37-5.05,10.24-4,9.11-3.14,11.37-3.39,10.24-2.52,9.92-1.91,9.92-1.29,9.92-.62,9.92-.18,9.92.43,9.92,1.05,9.92,1.66,9.92,2.09,10.24,2.77,10.24,3.14,10.24,3.82,10.24,4.25,7.5,3.39,13.31,6.1,10.48,5.3,10.48,5.48,10.48,5.91,10.48,6.1,21.05,12.68,31.54,20.07,136.63,91.06,84.36,55.11,42.34,26.41,31.54,19.21,31.78,18.35,4.44,2.34,6.37,3.57,5.24,2.77,5.24,3.14,6.37,3.39,4.11,2.34,7.74,4,2.74,1.48,21.29,10.78,21.29,10.34,6.94,3.14,3.63,1.91,10.48,4.62,21.29,9.11,9.92,3.82,11.37,4.43,6.05,2.09,4.44,1.66,10.81,3.57,10.48,3.39,10.81,3.14,10.48,2.96,10.81,2.77,21.29,4.86,10.81,2.09,21.29,3.82,10.81,1.66,10.81,1.48,21.29,2.34,10.48,1.05,10.48.86,10.48.62,10.48.62,21.29.86,21.29.43,21.05.18,31.78-.18,31.54-.62.48-10.16Z"/>
    <path class="st3" d="M1877.71,448.04l-94.61-5.48-73.56-4.86-31.54-2.52-31.54-2.77-21.05-2.09-21.05-2.34-20.73-2.77-10.48-1.48-20.73-3.14-10.48-1.91-20.73-4-10.48-2.09-20.73-4.86-9.92-2.77-10.48-2.96-20.73-6.1-20.73-6.77-20.73-7.39-20.73-8.25-10.48-4.43-20.73-9.3-10.48-4.86-21.05-10.16-20.73-10.59-21.05-11.39-31.54-17.73-31.54-18.78-94.61-59.17-31.54-19.46-21.05-12.44-10.81-5.91-16.29-8.68-12.99-6.53-13.55-6.1-10.81-4.43-10.48-4-10.81-3.82-10.81-3.14-10.81-2.77-10.81-2.09-11.05-1.66-11.05-1.05-11.37-.43-10.81.18-11.05.62-11.05,1.29-9.92,1.66-11.86,2.52-10.48,2.77-11.05,3.39-10.81,3.82-11.05,4.43-10.81,4.62-9.44,4.43-11.86,5.91-10.81,5.48-10.48,5.73-10.48,5.91-21.05,12.44-36.21,22.41-98.72,64.03-180.66,120.43-30.16,20.07-38.71,25.55-4.44,2.96-5.24,3.39-5.24,3.39-42.02,26.6-31.54,19.21-21.05,12.44-31.54,17.98-5.57,2.96-5,2.77-6.61,3.57-3.63,2.09-31.29,16.25-21.05,10.16-20.49,9.48-21.29,9.48-7.74,3.14-23.55,9.73-7.74,2.96-23.55,8.87-20.73,7.39-12.42,4.25v11.39l17.99-6.1,21.29-7.39,31.78-12.07,8.55-3.39,23.23-9.73,7.18-3.14,24.6-10.96,21.05-10.16,21.29-10.78,21.05-10.96,21.05-11.64,5.81-3.39,4.68-2.52,6.61-3.82,3.87-2.09,7.18-4.25,3.31-1.91,18.23-10.96,2.74-1.66,28.79-17.55,3.06-1.91,27.42-17.3,4.11-2.52,5.81-3.82,4.68-2.96,63.07-41.38,144.13-96.3,116.22-76.47,39.84-25.55,30.97-19.03,25.97-15.39,18.23-10.16,11.86-6.34,11.37-5.73,10.24-4.86,10.24-4.43,9.68-4,11.05-4,10.24-3.14,10.24-2.77,10.24-2.34,9.92-1.66,9.92-1.29,9.92-.62h9.92l9.92.43,9.92,1.05,9.92,1.48,9.92,2.09,10.24,2.52,10.24,2.96,10.24,3.57,10.24,4,9.68,4.25,11.05,5.05,10.48,5.05,4.68,2.52,16.05,8.44,18.23,10.59,21.29,12.68,107.35,66.99,42.34,25.37,6.05,3.39,4.44,2.52,6.94,3.82,3.87,2.09,19.36,10.59,22.99,12.25,21.05,10.59,19.68,9.3,22.66,10.16,21.29,8.68,10.48,4,7.98,2.96,23.79,8.25,21.29,6.53,21.29,5.91,10.48,2.77,21.29,5.05,10.48,2.34,21.29,4,10.48,1.91,10.48,1.66,21.29,3.14,21.29,2.77,31.78,3.57,21.05,2.09,42.02,3.57,42.02,2.96,178.97,10.34,1.13-10.59-41.05-1.91Z"/>
    <polygon class="st8" points="36.81 965 24.39 960.38 160.69 743.22 211.1 666.5 233.2 634.61 265.3 589.66 284.65 564.04 305.14 538.49 326.43 512.75 337.8 500.07 361.27 474.27 379.58 455.06 399.18 435.85 412.73 422.98 434.02 403.71 463.94 377.97 495.72 352.42 529.19 326.87 582.34 288.39 675.58 224.41 714.85 198.86 734.77 185.93 755.74 173.06 766.31 166.72 777.36 160.38 788.97 153.85 801.39 147.33 808.33 143.94 819.14 138.83 829.94 133.96 840.67 129.78 851.72 125.96 862.53 122.57 873.58 119.86 884.71 117.71 895.43 116.23 906.56 115.37 917.29 115 928.66 115.37 939.71 116.48 950.76 118.14 961.57 120.23 972.62 123.19 983.43 126.58 994.23 130.64 1005.04 134.83 1018.03 140.98 1026.33 144.99 1037.14 150.9 1047.87 156.99 1058.43 163.33 1073.6 173.31 1083.27 179.84 1092.71 186.18 1101.58 192.52 1127.55 211.73 1177.07 250.15 1227.4 289.43 1269.5 321.33 1302.97 345.65 1312.09 351.99 1332.25 365.91 1353.3 379.88 1374.03 393 1395.08 405.43 1415.8 417.26 1426.29 422.74 1436.85 428.22 1449.6 434.56 1457.58 438.38 1468.07 443.24 1478.63 447.92 1499.36 456.54 1509.6 460.54 1520.09 464.36 1540.82 471.32 1565.17 478.71 1572.11 480.86 1592.84 486.34 1603.08 488.86 1624.13 493.54 1634.61 495.64 1655.34 499.64 1665.91 501.55 1697.12 506.84 1728.66 511.46 1749.71 514.23 1801.97 520.76 1886.09 530.24 1917.62 533.63 1915.69 544.22 1810.6 532.58 1757.69 526.05 1736.72 523.28 1705.19 518.67 1673.33 513.55 1662.84 511.89 1641.55 507.89 1631.07 505.8 1620.5 503.64 1599.21 498.78 1577.92 493.54 1567.11 490.77 1556.62 487.82 1546.14 484.43 1535.33 481.29 1524.77 477.66 1501.86 469.22 1492.75 465.84 1482.18 461.65 1470 456.35 1460.89 452.35 1450.4 447.49 1439.92 442.38 1428.79 436.9 1416.61 430.56 1397.25 420.03 1393.38 417.69 1386.53 413.87 1382.33 411.35 1375.96 407.53 1371.53 404.82 1365.48 401.19 1361.04 398.48 1354.99 394.66 1350.8 391.89 1344.18 387.89 1340.88 385.55 1321.44 372.68 1311.76 366.34 1302.08 359.38 1267 334.26 1249.26 320.96 1206.99 288.82 1117.87 219.3 1100.69 206.68 1081.1 192.27 1070.61 185.13 1055.05 174.97 1044.88 168.63 1039.32 165.24 1029.08 159.33 1018.59 153.85 1008.35 148.8 996.98 143.69 987.86 139.88 977.62 136.12 967.7 132.92 957.46 130.39 947.45 128.3 937.21 126.82 927.29 125.96 917.29 125.53 907.37 125.96 897.37 126.58 887.13 128.05 877.21 130.21 866.96 132.73 857.04 135.69 846.8 139.26 835.75 143.51 825.99 147.94 815.83 152.81 805.59 158.04 795.02 163.58 784.78 169.24 774.29 175.4 763.81 181.74 742.76 194.61 711.47 214.68 665.57 245.1 600.57 289.68 547.5 327.92 505.72 359.81 474.19 385.18 444.59 410.73 423.54 429.69 403.62 448.72 384.5 467.75 372.32 480.43 360.71 493.3 349.09 505.98 327.24 531.35 306.83 556.66 286.91 582.21 263.36 613.92 223.52 671.36 181.18 735.15 96.25 869.07 36.81 965"/>
    <path class="st0" d="M1856.66,502.1l-31.54-.86-42.02-1.48-31.54-1.48-21.05-1.29-21.05-1.48-20.73-1.91-21.05-2.09-10.48-1.29-10.48-1.29-10.48-1.48-20.73-3.39-10.48-1.91-20.73-4.43-10.24-2.34-20.73-5.3-20.73-6.1-7.98-2.77-22.99-8-10.24-4-10.48-4-6.94-2.96-3.63-1.48-10.24-4.43-21.05-9.48-19.92-9.73-21.86-11.39-20.73-11.39-21.05-12.07-5.24-3.14-5.24-2.96-5.57-3.39-5-2.96-31.54-19.64-31.54-20.5-30.97-20.69-92.67-63.79-23.79-16.25-31.78-20.93-10.48-6.53-10.81-6.53-10.81-6.1-10.81-5.91-10.81-5.48-10.81-5.3-9.11-4.25-12.18-4.86-10.81-3.82-10.81-3.14-11.05-2.77-11.05-2.09-11.05-1.48-11.05-.86-11.37-.18-10.81.18-11.05.86-11.05,1.48-11.05,2.09-7.98,1.91-13.79,3.82-8.87,2.96-12.99,4.43-10.81,4.25-9.92,4.25-11.37,5.05-10.81,5.05-18.79,9.3-23.79,12.44-104.61,57.88-52.83,28.51-31.29,16.07-31.54,15.64-21.05,9.73-20.73,9.3-30.73,12.87-31.29,12.07-20.73,7.39-20.73,6.77-21.05,6.1-20.73,5.48-20.73,5.05-10.48,2.34-20.73,4.25-10.48,1.91-10.48,1.66-21.05,3.14-21.05,2.77-31.29,3.57-21.05,1.91-21.05,1.66-31.54,2.09-40.41,1.91-73.56,3.14-11.05.43-.81,10.59,54.76-2.09,52.83-2.52,31.54-1.91,31.78-2.34,21.05-1.91,21.29-2.09,21.29-2.52,21.29-2.96,10.48-1.66,21.05-3.57,10.48-1.91,21.29-4.25,10.81-2.34,21.29-5.05,21.29-5.73,21.29-6.34,21.29-6.77,21.29-7.39,31.78-12.25,8.55-3.39,23.23-9.91,21.05-9.48,21.29-9.91,31.78-15.64,31.78-16.25,156.87-86.2,21.61-11.39,10.48-5.3,17.74-8.68,13.31-6.1,10.24-4.43,10.24-4,10.24-3.57,10.24-3.39,10.24-2.96,10.24-2.34,9.92-1.91,9.92-1.29,9.92-.86,9.92-.18,9.92.18,9.92.86,9.92,1.48,9.92,1.91,9.92,2.52,10.24,3.14,10.24,3.57,10.24,4.25,10.24,4.43,10.24,5.05,6.61,3.39,11.61,6.34,11.05,6.34,10.48,6.34,10.24,6.34,19.68,12.68,129.77,88.73,19.68,13.11,19.36,12.87,3.06,2.09,52.83,33.37,31.78,18.78,6.05,3.39,4.44,2.52,6.94,3.82,3.63,2.09,7.98,4.43,23.79,12.44,21.29,10.34,6.37,2.96,4.11,2.09,9.68,4.25,22.1,9.48,21.29,8.25,10.48,3.82,10.81,3.57,10.48,3.39,10.81,3.14,10.48,3.14,10.81,2.96,10.48,2.77,10.81,2.52,10.81,2.34,10.48,2.09,10.81,1.91,10.48,1.91,21.29,3.14,10.48,1.48,10.48,1.29,9.92,1.05,21.61,2.09,21.29,1.66,21.29,1.29,21.05,1.05,42.02,1.91,52.59,1.48,63.07,1.29.24-10.59-61.13-.68Z"/>
    <path class="st6" d="M1919.17,467.68l-31.54.86-52.59,1.05-31.54.18-31.29-.18-21.05-.43-20.73-.86-20.73-1.05-20.73-1.48-10.48-1.05-10.48-1.05-10.48-1.29-10.48-1.29-10.48-1.48-10.48-1.66-10.48-1.91-20.73-4.25-10.24-2.34-20.73-5.3-20.73-5.91-20.73-6.77-6.94-2.52-3.31-1.05-20.73-7.82-9.11-3.82-22.1-9.3-21.05-9.48-20.73-10.16-5.57-2.77-4.68-2.34-31.54-16.5-21.05-11.64-31.54-18.16-31.54-19.03-42.02-25.98-71.94-46.24-40.41-25.55-21.05-12.87-21.86-12.87-11.61-6.34-12.18-6.53-10.81-5.48-10.81-5.05-10.81-4.86-9.68-4-11.86-4.62-10.48-3.57-10.81-3.14-10.81-2.77-10.81-2.34-11.05-1.66-11.05-1.29-11.05-.62h-11.29l-11.05.62-11.05,1.05-11.05,1.66-11.05,2.34-11.05,2.77-10.81,3.39-10.81,3.82-10.48,4.25-11.37,5.05-9.92,5.05-10.81,5.73-6.37,3.57-11.05,6.53-14.36,8.68-16.29,10.59-15.57,10.34-21.05,14.78-18.23,13.3-42.91,31.89-115.66,89.34-402.21,320.05-16.05,12.68-5,4-52.59,40.76L.12,798.45c0,4.86-.24,9.73-.24,14.78l41.21-30.23,73.88-56.4,17.74-14.16,3.31-2.52,5-4,16.05-12.44,16.29-13.11,4.68-3.82,3.31-2.77,7.18-5.48,248.97-198.75,14.11-10.96,26.29-20.93,180.1-140.45,42.02-31.89,34.84-25.55,17.99-12.68,13.79-9.48,20.73-13.55,10.48-6.34,10.48-6.1,10.24-5.73,10.24-5.48,7.5-3.57,13.31-6.1,10.24-4.25,10.24-3.57,10.24-3.14,9.92-2.52,10.24-2.09,9.92-1.66,9.92-1.05,9.92-.43h9.92l9.92.62,9.92,1.05,9.92,1.48,10.24,2.09,10.24,2.52,10.24,2.96,9.92,3.39,10.24,4,10.24,4.25,5.24,2.34,13.31,6.34,12.42,6.34,10.24,5.48,10.48,5.73,10.48,5.91,21.05,12.44,123.64,78.57,40.97,25.55,3.63,2.34,28.23,16.87,3.63,2.09,29.6,17.12,23.23,12.87,21.29,11.39,21.05,10.78,20.73,10.16,21.61,9.73,21.29,9.11,10.48,4.25,7.18,2.77,3.63,1.48,21.29,7.63,10.48,3.39,10.81,3.39,10.48,3.14,10.81,2.96,10.48,2.77,10.48,2.52,10.81,2.34,10.48,2.09,10.48,2.09,10.81,1.91,10.48,1.66,21.29,2.96,10.48,1.29,10.48,1.05,10.48,1.05,10.48.86,9.11.62,22.66,1.29,21.29.86,21.05.43,31.78.18h21.05l42.02-.62,52.59-1.48,1.94-10.71Z"/>
    <g class="st5">
      <path class="st10" d="M1846.42,463.07l-73.56-4.25-42.02-2.96-42.02-3.39-20.73-1.91-21.05-2.09-21.05-2.52-20.73-2.77-10.24-1.48h-.56l-10.24-1.66-10.48-1.66-10.48-1.91-20.73-4.25-20.73-4.62-10.24-2.52-20.73-5.73-9.92-2.96h-.24l-10.48-3.14-20.73-6.96-6.05-2.34-4.11-1.48-20.73-8-21.37-8.93-21.05-9.48-8.31-4-22.99-11.21-21.05-10.96-5.81-3.14-4.68-2.34-29.6-16.69-21.86-12.87-31.54-19.03-111.22-70.13-36.78-22.6-21.29-12.44-17.74-9.91-12.42-6.34-12.42-6.1-10.81-4.86-10.48-4.43-.24-.18-10.48-4h-.24l-10.48-3.39-.24-.18-10.48-2.96h-.24l-10.48-2.34h-.56l-10.48-1.66h-.56l-10.48-1.05h-.56l-10.48-.43h-.56l-10.48.18h-.56l-10.48.86h-.56l-10.48,1.48h-.56l-10.48,2.09-.56.18-10.48,2.52h-.24l-10.48,3.14h-.24l-10.48,3.82h-.24l-10.81,4.25-10.81,4.62-10.81,5.05-6.61,3.39-12.42,6.53-11.61,6.34-11.37,6.34-11.05,6.34-.56.18-9.92,6.1-.24.18-10.24,6.1-.24.18-167.92,106.46-31.54,19.03-31.54,18.16-5,2.96-5.24,3.14-6.05,3.39-4.44,2.52-7.5,4-3.06,1.66-20.73,10.59-.24.18-20.73,10.16-5.81,2.52-4.68,2.34-9.11,4-22.1,9.48-7.98,3.14-2.5,1.05-20.73,7.63-10.48,3.57-10.48,3.39-10.48,3.14-10.48,2.96-10.24,2.77-10.48,2.52-10.24,2.34-10.48,2.09h-.24l-9.92,1.91-10.48,1.91-10.24,1.66-20.73,2.77-10.48,1.29-10.48,1.05-10.48.86-10.48.86-21.05,1.29-21.05,1.05-21.05.62-31.54.62-30.41.18-31.54-.18-24.03-.43c-.24,3.57-.24,7.2-.56,10.59h3.31l52.83.43h20l31.78-.43,21.29-.62,21.29-.86,21.29-1.29,21.29-1.48,10.48-1.05,10.48-1.05,10.48-1.29,21.29-2.96,10.48-1.66,10.81-1.91,10.48-2.09.56-.18,10.24-2.09,10.81-2.52,21.29-5.48,9.92-2.77.56-.18h.24l10.81-3.14,9.44-2.96,1.13-.18h.24l10.81-3.57,6.61-2.52,3.87-1.29,21.29-8.25,21.05-8.87.24-.18,10.48-4.62,5-2.34,5.81-2.52,20.73-10.16.56-.18,21.29-10.96,21.05-11.39,5.24-3.14,5.24-2.77,6.05-3.57,4.44-2.52,6.61-4,3.87-2.09,7.18-4.25,3.31-2.09,28.47-17.12,140.01-88.91,31.54-19.83.24-.18,9.92-6.1.24-.18,10.24-6.1.24-.18,9.92-5.91,10.48-5.91,10.48-5.91,10.48-5.48,10.24-5.3,10.24-4.86,9.92-4.43,10.48-4.25,10.24-3.57,10.24-3.14,10.24-2.52,9.92-1.91,9.92-1.29,9.92-.86,9.92-.18,9.92.43,9.92,1.05,9.92,1.66,9.44,2.09,10.81,2.96,9.68,3.14,10.81,4,10.24,4.25,9.44,4.25,11.37,5.48,10.48,5.3,10.48,5.73,20.73,11.82,21.05,12.68,84.12,53.01,52.83,32.94,21.05,12.87,21.05,12.44,21.05,12.25,21.05,11.82,21.05,11.21,20.49,10.34.24.18.24.18,10.48,5.3,21.29,9.91,8.87,4,22.99,9.73,8.31,3.14,23.55,8.87,21.29,7.2,10.48,3.14.24.18,10.48,3.14,21.29,5.73,10.81,2.52,21.29,4.86,10.48,2.09,21.29,4,10.48,1.66,10.48,1.66h.56l10.24,1.48,10.48,1.48,21.29,2.52,21.05,2.34,21.29,2.09,42.34,3.57,42.02,2.96,84.36,4.86,73.56,3.82.81-10.59-72.75-3.45Z"/>
    </g>
    <path class="st8" d="M1909.25,569.95l-63.07-3.57-31.54-2.09-31.54-2.52-20.73-1.91-20.73-2.34-21.05-2.52-10.48-1.48-10.48-1.66-20.73-3.57-10.48-1.91-20.73-4.43-10.24-2.34-20.73-5.3-10.48-2.96-10.24-3.14-10.24-3.39-10.48-3.57-7.74-2.77-2.74-1.05-20.73-8-8.87-3.82-22.1-9.73-6.05-2.96-4.11-1.91-20.73-10.16-10.48-5.3-21.05-11.21-5-2.96-5.57-2.96-5.81-3.39-4.68-2.52-6.05-3.82-4.11-2.34-6.37-4-4.11-2.34-6.37-4-3.87-2.34-6.37-4-4.11-2.52-5.81-3.82-4.68-2.77-5.24-3.57-5.24-3.14-31.54-20.69-21.05-14.35-52.59-36.76-90.73-65.27-54.2-38.42-18.79-12.87-25.73-16.87-21.29-12.87-10.81-6.1-10.81-5.91-6.61-3.39-12.99-6.53-12.42-5.48-10.81-4.43-8.55-3.14-12.99-4.25-9.11-2.34-12.74-2.77-11.05-1.66-11.05-1.05-11.37-.62-10.81.18-11.05.62-11.05,1.29-11.05,1.91-9.68,2.09-11.86,3.14-11.05,3.39-10.81,3.82-7.5,2.96-13.79,5.48-10.81,4.62-5.81,2.77-13.55,6.34-12.42,6.34-21.37,11.02-84.36,46.49-52.59,28.75-30.97,16.07-31.78,15.82-20.16,9.48-21.61,9.73-20.73,8.87-20.73,8.44-20.73,7.63-9.68,3.39-11.05,3.82-20.73,6.34-20.73,5.73-10.24,2.52-10.48,2.52-10.48,2.34-20.73,4.25-10.48,1.91-20.73,3.39-10.48,1.48-10.48,1.29-10.48,1.05-10.48,1.05-21.05,1.91-21.05,1.48-21.05,1.05-21.05.62-21.05.43-31.54.18h-31.54l-52.59-.62-19.68-.43c-.24,3.57-.56,6.96-1.13,10.59l62.51,1.05,42.02.18,31.78-.18,21.05-.43,21.29-.62,21.29-1.05,21.29-1.48,10.48-.86,21.29-2.09,10.48-1.29,10.48-1.29,10.48-1.48,21.29-3.39,10.81-1.91,21.29-4.25,10.81-2.34,21.29-5.3,10.81-2.96,10.48-2.96,10.81-3.14,10.48-3.39,10.81-3.57,10.48-3.57,8.31-2.96,23.55-8.87,9.68-4,22.1-9.48,21.29-9.48,21.05-9.91,6.61-3.14,4.11-1.91,31.78-16.07,31.54-16.69,73.56-40.76,48.96-26.85,24.6-12.87,10.48-5.3,10.48-5.05,18.79-8.44,12.18-5.05,10.24-4,9.92-3.39,10.48-3.14,10.24-2.77,10.24-2.09,9.92-1.66,9.92-1.29,9.92-.62,9.92-.18,9.92.43,9.92,1.05,9.92,1.66,9.92,2.09,10.24,2.77,10.24,3.14,10.24,3.57,7.98,3.39,12.18,5.3,10.48,5.05,10.24,5.3,10.48,5.73,10.48,5.91,16.86,10.34,19.68,12.68,25.97,17.55,29.6,20.69,96.54,69.51,63.31,44.76,19.92,13.73,19.11,12.87,3.06,2.09,6.61,4.25,3.87,2.77,5.81,3.57,4.68,3.14,5.24,3.14,5.57,3.57,4.68,2.77,6.05,3.82,4.11,2.52,6.37,4,4.11,2.34,6.61,4,21.05,12.44,4.68,2.77,5.81,3.39,5.57,2.96,5,2.96,6.37,3.39,4.11,2.34,7.74,4.25,2.74,1.48,21.05,10.78,21.29,10.16,21.05,9.3,10.81,4.43,6.94,2.77,3.63,1.48,21.29,7.82,10.48,3.57,10.81,3.39,10.48,3.14,10.81,3.14,10.81,2.77,10.48,2.52,10.81,2.52,21.29,4.43,10.48,1.91,21.29,3.57,10.48,1.66,10.48,1.48,10.48,1.29,21.05,2.52,21.29,2.09,21.05,1.91,31.78,2.52,31.54,2.09,63.07,3.39.81-10.59-8.23-.98Z"/>
    <path class="st9" d="M1866.91,381.91l-136.63-2.34-52.59-1.48-42.02-1.66-31.29-1.48-21.05-1.29-20.73-1.66-21.05-1.91-20.73-2.34-10.48-1.29-20.73-2.96-10.48-1.66-10.48-1.66-20.73-4-10.48-2.09-20.73-4.86-10.24-2.77-10.48-2.77-10.48-2.96-10.48-3.14-10.24-3.39-10.48-3.57-10.48-3.82-10.24-3.82-21.05-8.25-10.48-4.43-6.05-2.77-4.44-1.91-9.92-4.43-21.29-9.91-18.55-9.11-23.23-11.82-21.05-10.96-94.61-52.15-21.05-11.39-18.23-9.3-13.31-6.34-11.05-5.05-10.81-4.62-7.5-3.14-13.79-5.48-10.48-3.82-10.81-3.45-10.81-2.96-10.81-2.52-9.11-1.66-12.74-1.91-11.05-1.05-11.05-.43h-10.81l-11.05.62-11.05,1.29-9.44,1.48-12.42,2.52-10.81,2.77-10.81,3.08-10.81,3.57-11.05,4.25-7.98,3.39-13.31,5.91-10.81,5.05-10.81,5.3-17.99,9.48-22.34,12.93-21.61,12.87-92.67,57.45-97.91,59.79-29.36,16.69-33.47,18.59-31.54,16.5-6.37,3.14-4.11,2.09-20.73,10.16-21.05,9.48-8.31,3.57-22.99,9.48-31.29,11.82-20.73,7.2-9.68,3.14-11.05,3.39-10.48,2.96-10.48,2.77-20.73,5.3-10.24,2.34-20.73,4.25-10.48,1.91-10.48,1.66-21.05,3.14-10.48,1.48-10.48,1.29-21.05,2.34-21.05,2.09-21.05,1.66-31.54,2.09-21.05,1.05L-.04,488.49c0,3.57-.24,7.2-.24,10.59l4.68-.18,31.54-1.48,21.05-1.29,31.78-2.34,21.29-1.91,21.29-2.09,21.29-2.52,10.48-1.48,10.48-1.66,21.29-3.57,10.48-1.91,21.29-4.43,10.48-2.34,21.29-5.3,10.48-2.96,10.81-3.14,10.81-3.14,10.48-3.39,21.29-7.2,6.61-2.52,3.87-1.29,21.29-8.25,7.98-3.39,23.79-10.16,5.81-2.77,4.68-2.09,21.29-9.91,21.05-10.34,6.37-3.14,4.44-2.09,31.78-16.87,21.05-11.64,31.54-18.16,52.83-31.71,94.61-59.17,42.02-25.8,21.05-12.44,20.73-11.82,10.48-5.73,16.86-8.68,12.99-6.34,11.61-5.3,10.24-4.25,7.98-2.96,12.74-4.43,10.24-2.96,10.24-2.52,10.24-2.09,9.92-1.66,9.92-1.05,9.92-.62h9.92l9.92.43,9.92.86,9.92,1.48,10.24,1.91,10.24,2.34,8.31,2.34,12.18,3.82,7.18,2.52,13.31,5.05,10.24,4.25,7.5,3.14,13.79,6.34,9.92,4.86,10.48,5.3,16.86,8.87,98.72,54.31,30.16,16.07,22.66,11.64,21.05,10.34,21.29,9.91,21.05,9.3,8.87,3.57,22.99,9.11,10.48,3.82,10.81,3.82,21.29,6.96,21.29,6.34,21.29,5.73,10.81,2.52,10.48,2.34,10.48,2.34,21.29,4,10.48,1.91,10.48,1.66,21.29,2.96,10.48,1.29,21.29,2.34,21.05,1.91,21.29,1.66,21.05,1.29,21.29,1.05,31.54,1.29,52.59,1.66,73.88,1.66,136.63,1.91.24-10.59-50.17-.31Z"/>
  </g>
</svg>