<?xml version="1.0" encoding="UTF-8"?>
<svg id="Layer_1" data-name="Layer 1" xmlns="http://www.w3.org/2000/svg" viewBox="0 0 1366.56 768">
  <defs>
    <style>
      .cls-1 {
        fill: #f7a238;
      }

      .cls-2 {
        fill: #db1f26;
      }

      .cls-3 {
        fill: #f26524;
      }

      .cls-4 {
        fill: #f2f2f2;
        isolation: isolate;
        opacity: .8;
      }

      .cls-5 {
        fill: #141227;
      }

      .cls-6 {
        fill: #36a85d;
      }

      .cls-7 {
        fill: #fff;
      }

      .cls-8 {
        fill: #f9ecc6;
      }

      .cls-9 {
        fill: #fff34d;
      }

      .cls-10 {
        fill: #00a5dc;
      }

      .cls-11 {
        fill: #b57ab4;
      }

      .cls-12 {
        fill: #164f86;
      }

      .cls-13 {
        fill: #fffef9;
      }

      .cls-14 {
        fill: #0088c5;
      }

      .cls-15 {
        fill: none;
        opacity: .94;
      }

      .cls-16 {
        fill: #e6b35a;
      }

      .cls-17 {
        fill: #ef4782;
      }

      .cls-18 {
        fill: #7fb036;
      }
    </style>
  </defs>
  <rect class="cls-5" width="1366" height="768"/>
  <g>
    <path class="cls-16" d="M686.61,584.72c.29-.29.6-.6.89-.89h-.29c-.11.31-.4.6-.6.89Z"/>
    <polyline class="cls-4" points="654.14 36.45 657.8 34.34 661.54 36.45 661.54 40.68 657.8 42.79 654.14 40.68 654.14 36.45"/>
    <polyline class="cls-4" points="600.79 81.98 605.27 79.44 609.7 81.98 609.7 87.09 605.27 89.63 600.79 87.09 600.79 81.98"/>
    <polyline class="cls-4" points="649.37 139.3 655.54 135.78 661.82 139.3 661.82 146.47 655.54 149.98 649.37 146.47 649.37 139.3"/>
    <polyline class="cls-15" points="712.09 169.69 718.26 166.14 724.54 169.69 724.54 176.83 718.26 180.37 712.09 176.83 712.09 169.69"/>
    <polyline class="cls-4" points="760.41 59.16 766.58 55.62 772.84 59.16 772.84 66.3 766.58 69.84 760.41 66.3 760.41 59.16"/>
    <polyline class="cls-4" points="739.33 133.33 745.59 129.9 751.79 133.41 751.79 140.58 745.59 144.01 739.33 140.47 739.33 133.33"/>
    <polygon class="cls-14" points="654.17 202.41 654.17 195.25 648.11 191.73 641.83 195.25 641.83 202.41 648.11 205.93 654.17 202.41"/>
    <polyline class="cls-4" points="448.51 178.48 454.68 174.97 460.85 178.48 460.85 185.65 454.68 189.16 448.51 185.65 448.51 178.48"/>
    <polyline class="cls-4" points="557.46 210.33 563.75 206.81 569.92 210.33 569.92 217.49 563.75 221.01 557.46 217.49 557.46 210.33"/>
    <polyline class="cls-18" points="787.83 254.05 794.11 250.51 800.28 254.05 800.28 261.19 794.11 264.73 787.83 261.19 787.83 254.05"/>
    <polyline class="cls-4" points="423.32 476.16 429.49 472.65 435.77 476.16 435.77 483.33 429.49 486.84 423.32 483.33 423.32 476.16"/>
    <polyline class="cls-8" points="462.42 500.87 472.53 495.18 482.52 500.87 482.52 512.41 472.53 518.09 462.42 512.41 462.42 500.87"/>
    <polyline class="cls-9" points="538.96 534.37 542.1 532.6 545.33 534.37 545.33 538 542.1 539.77 538.96 538 538.96 534.37"/>
    <polyline class="cls-4" points="532.87 482.25 539.04 478.82 545.33 482.33 545.33 489.5 539.04 492.93 532.87 489.39 532.87 482.25"/>
    <polyline class="cls-4" points="365.71 538.68 368.85 536.91 371.88 538.68 371.88 542.19 368.85 543.97 365.71 542.19 365.71 538.68"/>
    <polyline class="cls-11" points="443.79 593.26 453.79 587.66 463.79 593.35 463.79 604.83 453.79 610.4 443.79 604.83 443.79 593.26"/>
    <polyline class="cls-4" points="427.26 520.17 431.57 517.72 435.86 520.17 435.86 525.14 431.57 527.6 427.26 525.14 427.26 520.17"/>
    <polyline class="cls-4" points="357 372.4 360.71 370.35 364.54 372.4 364.54 376.72 360.71 378.86 357 376.72 357 372.4"/>
    <polyline class="cls-4" points="366.8 288.24 373.05 284.7 379.22 288.24 379.22 295.38 373.05 298.92 366.8 295.38 366.8 288.24"/>
    <polyline class="cls-9" points="586.97 182.71 596.96 177.11 606.96 182.79 606.96 194.28 596.96 199.96 586.97 194.28 586.97 182.71"/>
    <polyline class="cls-4" points="905.53 239.63 911.01 236.49 916.49 239.63 916.49 246 911.01 249.14 905.53 246 905.53 239.63"/>
    <polyline class="cls-2" points="628.61 247.85 638.8 242.08 649 247.85 649 259.62 638.8 265.3 628.61 259.54 628.61 247.85"/>
    <polyline class="cls-4" points="781.46 225.92 787.63 222.38 793.91 225.92 793.91 233.06 787.63 236.6 781.46 233.06 781.46 225.92"/>
    <polyline class="cls-4" points="611.96 484.5 618.13 481.08 624.38 484.59 624.38 491.76 618.13 495.18 611.96 491.64 611.96 484.5"/>
    <polyline class="cls-2" points="660.85 530.26 664.96 527.91 669.08 530.26 669.08 535.05 664.96 537.31 660.85 534.97 660.85 530.26"/>
    <polyline class="cls-4" points="723.54 560.62 727.68 558.27 731.88 560.62 731.88 565.44 727.68 567.78 723.54 565.33 723.54 560.62"/>
    <polyline class="cls-4" points="712.29 469.39 719.26 465.48 726.4 469.51 726.4 477.65 719.26 481.56 712.29 477.53 712.29 469.39"/>
    <polyline class="cls-4" points="755.3 490.39 765.1 484.79 774.81 490.39 774.81 501.55 765.1 507.04 755.3 501.55 755.3 490.39"/>
    <polyline class="cls-4" points="856.43 277.27 862.6 273.73 868.85 277.27 868.85 284.41 862.6 287.95 856.43 284.41 856.43 277.27"/>
    <polyline class="cls-4" points="965.79 315.86 975.96 310.09 986.15 315.86 986.15 327.62 975.96 333.39 965.79 327.62 965.79 315.86"/>
    <polyline class="cls-4" points="811.25 128.73 816.05 125.99 820.85 128.73 820.85 134.21 816.05 136.96 811.25 134.21 811.25 128.73"/>
    <polyline class="cls-18" points="761.58 189.96 767.84 186.42 774.01 189.96 774.01 197.1 767.84 200.64 761.58 197.1 761.58 189.96"/>
    <polyline class="cls-4" points="878.57 134.78 884.85 131.27 891.02 134.78 891.02 141.95 884.85 145.47 878.57 141.95 878.57 134.78"/>
    <polyline class="cls-4" points="831.84 186.22 836.04 183.88 840.35 186.22 840.35 191.13 836.04 193.59 831.84 191.13 831.84 186.22"/>
    <polyline class="cls-4" points="817.53 488.5 823.79 485.07 829.96 488.62 829.96 495.76 823.79 499.18 817.53 495.67 817.53 488.5"/>
    <polyline class="cls-4" points="788.32 522.6 795.97 518.29 803.51 522.6 803.51 531.34 795.97 535.54 788.32 531.34 788.32 522.6"/>
    <polyline class="cls-9" points="947.45 486.93 953.74 483.42 959.9 486.93 959.9 494.1 953.74 497.61 947.45 494.1 947.45 486.93"/>
    <polyline class="cls-4" points="578.94 622.16 585.11 618.62 591.36 622.16 591.36 629.3 585.11 632.84 578.94 629.3 578.94 622.16"/>
    <polyline class="cls-9" points="690.24 658.03 694.15 655.78 698.07 658.03 698.07 662.52 694.15 664.69 690.24 662.43 690.24 658.03"/>
    <polyline class="cls-2" points="507.68 632.39 513.85 628.87 520.14 632.39 520.14 639.56 513.85 643.07 507.68 639.56 507.68 632.39"/>
    <polyline class="cls-8" points="560.61 675.17 570.69 669.49 580.8 675.26 580.8 686.82 570.69 692.51 560.61 686.74 560.61 675.17"/>
    <polyline class="cls-2" points="625.75 692.51 635.86 686.82 645.94 692.62 645.94 704.16 635.86 709.84 625.75 704.07 625.75 692.51"/>
    <polyline class="cls-4" points="825.76 552.39 831.93 548.88 838.21 552.39 838.21 559.56 831.93 563.07 825.76 559.56 825.76 552.39"/>
    <polyline class="cls-4" points="771.58 626.62 775.49 624.48 779.32 626.62 779.32 631.02 775.49 633.27 771.58 631.02 771.58 626.62"/>
    <polyline class="cls-4" points="947.85 585.92 952.16 583.46 956.48 585.92 956.48 590.92 952.16 593.35 947.85 590.92 947.85 585.92"/>
    <polyline class="cls-1" points="823.79 153.81 829.96 150.26 836.24 153.81 836.24 160.95 829.96 164.49 823.79 160.95 823.79 153.81"/>
    <polyline class="cls-4" points="807.74 289.41 813.99 285.9 820.16 289.41 820.16 296.58 813.99 300.09 807.74 296.58 807.74 289.41"/>
    <polyline class="cls-4" points="702.89 264.42 705.92 262.65 709.06 264.42 709.06 267.96 705.92 269.7 702.89 267.96 702.89 264.42"/>
    <polyline class="cls-4" points="935.8 520.46 942.05 517.03 948.22 520.55 948.22 527.71 942.05 531.14 935.8 527.6 935.8 520.46"/>
    <polyline class="cls-8" points="786.57 567.1 797.63 560.82 808.79 567.18 808.79 580.04 797.63 586.21 786.57 579.92 786.57 567.1"/>
    <polyline class="cls-4" points="975.47 208.96 981.64 205.44 987.92 208.96 987.92 216.12 981.64 219.64 975.47 216.12 975.47 208.96"/>
    <polyline class="cls-4" points="985.38 247.97 995.95 242 1006.54 248.05 1006.54 260.22 995.95 266.19 985.38 260.22 985.38 247.97"/>
    <polygon class="cls-1" points="616.07 125.39 616.07 113.54 605.96 107.85 595.79 113.54 595.79 125.39 605.96 131.16 616.07 125.39"/>
    <polygon class="cls-1" points="671.22 128.22 671.22 131.76 674.27 133.53 677.3 131.76 677.3 128.22 674.27 126.47 671.22 128.22"/>
    <polygon class="cls-3" points="751.79 164.49 751.79 160.86 748.65 159 745.5 160.86 745.5 164.49 748.65 166.34 751.79 164.49"/>
    <polygon class="cls-1" points="730.22 60.53 730.22 67.67 736.39 71.21 742.48 67.67 742.48 60.53 736.39 56.99 730.22 60.53"/>
    <polygon class="cls-10" points="663.99 63.44 663.99 56.3 657.94 52.76 651.66 56.3 651.66 63.44 657.94 66.98 663.99 63.44"/>
    <polygon class="cls-12" points="666.34 94.63 677.02 100.68 687.5 94.63 687.5 82.38 677.02 76.41 666.34 82.38 666.34 94.63"/>
    <polygon class="cls-12" points="559.72 187.02 559.72 179.85 553.64 176.43 547.47 179.85 547.47 187.02 553.64 190.53 559.72 187.02"/>
    <polygon class="cls-12" points="714.14 138.81 714.14 134.1 710.12 131.76 705.92 134.1 705.92 138.81 710.12 141.15 714.14 138.81"/>
    <polygon class="cls-12" points="633.61 127.24 633.61 121.96 629.09 119.31 624.49 121.96 624.49 127.24 629.09 129.9 633.61 127.24"/>
    <polygon class="cls-10" points="648 114.42 654.17 117.93 660.25 114.42 660.25 107.25 654.17 103.74 648 107.25 648 114.42"/>
    <polygon class="cls-10" points="688.95 167.71 688.95 163.12 684.96 160.75 680.93 163.12 680.93 167.71 684.96 170.06 688.95 167.71"/>
    <polygon class="cls-9" points="695.64 33.4 695.64 26.23 689.64 22.71 683.39 26.23 683.39 33.4 689.64 36.91 695.64 33.4"/>
    <polygon class="cls-6" points="738.93 53.47 738.93 46.31 732.85 42.79 726.68 46.31 726.68 53.47 732.85 56.99 738.93 53.47"/>
    <polygon class="cls-2" points="612.24 164.37 618.41 167.91 624.49 164.37 624.49 157.23 618.41 153.69 612.24 157.23 612.24 164.37"/>
    <polygon class="cls-6" points="745.5 301.18 745.5 294.01 739.42 290.49 733.25 294.01 733.25 301.18 739.42 304.69 745.5 301.18"/>
    <polygon class="cls-9" points="645.37 107.37 645.37 100.2 639.29 96.69 633.12 100.2 633.12 107.37 639.29 110.88 645.37 107.37"/>
    <polygon class="cls-2" points="396.59 242.97 396.59 253.74 405.9 259.05 415.29 253.74 415.29 242.97 405.9 237.69 396.59 242.97"/>
    <polygon class="cls-10" points="437.74 288.81 437.74 281.67 431.57 278.16 425.29 281.58 425.29 288.72 431.57 292.35 437.74 288.81"/>
    <polygon class="cls-9" points="496.8 241.8 496.8 232.49 488.69 227.89 480.64 232.37 480.64 241.69 488.69 246.31 496.8 241.8"/>
    <polygon class="cls-9" points="502.8 169.29 502.8 157.63 492.89 151.95 482.81 157.63 482.81 169.29 492.89 174.97 502.8 169.29"/>
    <polygon class="cls-9" points="403.73 267.47 403.73 271.27 407.07 273.16 410.29 271.27 410.29 267.47 407.07 265.59 403.73 267.47"/>
    <polygon class="cls-3" points="470.64 275.39 470.64 279.81 474.47 282.07 478.21 279.81 478.21 275.39 474.47 273.24 470.64 275.39"/>
    <polygon class="cls-1" points="539.64 218.87 539.64 211.7 533.56 208.18 527.28 211.7 527.28 218.87 533.56 222.38 539.64 218.87"/>
    <polygon class="cls-12" points="460.85 216.69 460.85 213.1 457.82 211.41 454.68 213.1 454.68 216.69 457.82 218.47 460.85 216.69"/>
    <polygon class="cls-14" points="576.09 248.37 576.09 241.2 570 237.69 563.75 241.2 563.75 248.37 570 251.88 576.09 248.37"/>
    <polygon class="cls-9" points="370.02 235.8 370.02 240.43 374.05 242.68 377.96 240.43 377.96 235.8 374.05 233.57 370.02 235.8"/>
    <polygon class="cls-13" points="539.33 247.28 527.48 240.43 515.34 247.28 515.34 261.28 527.48 268.16 539.33 261.28 539.33 247.28"/>
    <polygon class="cls-12" points="460.85 266.59 460.85 257.48 453.02 252.97 445.08 257.48 445.08 266.59 453.02 271.19 460.85 266.59"/>
    <polygon class="cls-12" points="513 298.63 513 291.47 506.91 288.04 500.74 291.47 500.74 298.63 506.91 302.15 513 298.63"/>
    <polygon class="cls-2" points="492.8 186.54 492.8 183.39 490.15 181.82 487.41 183.39 487.41 186.54 490.15 188.11 492.8 186.54"/>
    <polygon class="cls-6" points="501.23 201.04 501.23 205.84 505.43 208.18 509.45 205.84 509.45 201.04 505.43 198.67 501.23 201.04"/>
    <polygon class="cls-6" points="400.3 206.04 400.3 216.21 409.12 221.21 417.75 216.21 417.75 206.04 409.12 201.04 400.3 206.04"/>
    <polygon class="cls-2" points="436.45 237.17 436.45 233.57 433.43 231.8 430.17 233.57 430.17 237.17 433.43 239.06 436.45 237.17"/>
    <polygon class="cls-1" points="403.84 528.77 403.84 524.66 400.41 522.6 396.87 524.66 396.87 528.77 400.41 530.74 403.84 528.77"/>
    <polygon class="cls-1" points="366.11 404.05 366.11 410.02 371.31 413.07 376.39 410.02 376.39 404.05 371.31 401.11 366.11 404.05"/>
    <polyline class="cls-1" points="483.12 612.25 483.12 616.08 486.46 617.94 489.69 616.08 489.69 612.25 486.46 610.4"/>
    <polygon class="cls-12" points="538.96 637.56 538.96 641.07 542.1 642.93 545.13 641.07 545.13 637.56 542.1 635.79 538.96 637.56"/>
    <polygon class="cls-9" points="359.06 497.73 359.06 507.32 367.48 512.03 375.59 507.32 375.59 497.73 367.48 492.93 359.06 497.73"/>
    <polygon class="cls-2" points="387.22 562.19 387.22 573.35 396.93 578.95 406.52 573.35 406.52 562.19 396.93 556.62 387.22 562.19"/>
    <polygon class="cls-12" points="371.31 345.36 371.31 340.16 366.88 337.53 362.28 340.16 362.28 345.36 366.88 348.01 371.31 345.36"/>
    <polygon class="cls-1" points="365.91 447.35 365.91 443.75 362.86 441.98 359.63 443.75 359.63 447.35 362.86 449.23 365.91 447.35"/>
    <polygon class="cls-1" points="548.84 127.36 548.84 121.96 544.33 119.31 539.64 121.96 539.64 127.36 544.33 129.99 548.84 127.36"/>
    <polygon class="cls-8" points="406.18 481.28 406.18 470.08 396.67 464.6 386.96 470.08 386.96 481.28 396.67 486.84 406.18 481.28"/>
    <polygon class="cls-1" points="497.8 493.81 497.8 498.5 501.91 500.87 505.94 498.5 505.94 493.81 501.91 491.56 497.8 493.81"/>
    <polygon class="cls-1" points="557.06 532.23 557.06 539.37 563.26 542.88 569.43 539.37 569.43 532.23 563.26 528.77 557.06 532.23"/>
    <polygon class="cls-9" points="430.57 560.62 430.57 565.44 434.88 567.87 439 565.44 439 560.62 434.88 558.19 430.57 560.62"/>
    <polygon class="cls-12" points="514.17 504.98 514.17 516.03 523.76 521.55 533.16 516.03 533.16 504.98 523.76 499.58 514.17 504.98"/>
    <polygon class="cls-12" points="459.27 532.03 459.27 539.17 465.47 542.71 471.53 539.17 471.53 532.03 465.47 528.49 459.27 532.03"/>
    <polygon class="cls-12" points="502 482.65 502 477.93 498.09 475.68 494.06 477.93 494.06 482.65 498.09 484.87 502 482.65"/>
    <polygon class="cls-12" points="623.21 547.11 623.21 540.05 617.15 536.51 610.96 540.05 610.96 547.11 617.15 550.62 623.21 547.11"/>
    <polygon class="cls-9" points="460.85 481.85 460.85 477.73 457.42 475.68 453.79 477.73 453.79 481.85 457.42 483.82 460.85 481.85"/>
    <polygon class="cls-9" points="517.99 591.2 517.99 596.4 522.48 599.03 526.99 596.4 526.99 591.2 522.48 588.55 517.99 591.2"/>
    <polygon class="cls-1" points="712.09 198.96 701.52 192.9 690.64 198.96 690.64 211.53 701.52 217.69 712.09 211.53 712.09 198.96"/>
    <polygon class="cls-1" points="714.34 236.89 720.63 240.43 726.68 236.89 726.68 229.75 720.63 226.21 714.34 229.75 714.34 236.89"/>
    <polygon class="cls-3" points="611.07 238.66 614.21 240.43 617.24 238.66 617.24 235.12 614.21 233.37 611.07 235.12 611.07 238.66"/>
    <polygon class="cls-12" points="708.95 293.12 697.21 286.38 685.16 293.12 685.16 307.06 697.21 313.8 708.95 307.06 708.95 293.12"/>
    <polygon class="cls-1" points="660.85 310.49 660.85 303.32 654.77 299.8 648.6 303.32 648.6 310.49 654.77 314 660.85 310.49"/>
    <polygon class="cls-10" points="677.3 248.37 671.22 244.83 665.05 248.37 665.05 255.51 671.22 259.05 677.3 255.51 677.3 248.37"/>
    <polygon class="cls-6" points="766.27 255.79 760.21 252.37 753.93 255.79 753.93 263.05 760.21 266.59 766.27 263.05 766.27 255.79"/>
    <polygon class="cls-2" points="600.96 290.69 600.96 293.52 603.42 294.89 605.79 293.52 605.79 290.69 603.42 289.32 600.96 290.69"/>
    <polygon class="cls-8" points="565.89 280.38 565.89 270.7 557.58 265.9 549.15 270.7 549.15 280.38 557.58 285.21 565.89 280.38"/>
    <polygon class="cls-2" points="588.34 525.14 588.34 528.77 591.36 530.54 594.42 528.77 594.42 525.14 591.36 523.4 588.34 525.14"/>
    <polygon class="cls-1" points="680.53 521.55 680.53 525.86 684.36 528 687.98 525.86 687.98 521.55 684.36 519.37 680.53 521.55"/>
    <polygon class="cls-1" points="761.47 570.41 761.47 561.22 753.73 556.7 745.7 561.22 745.7 570.41 753.73 574.92 761.47 570.41"/>
    <polygon class="cls-12" points="690.64 474.91 690.64 470.19 686.7 467.94 682.7 470.19 682.7 474.91 686.7 477.13 690.64 474.91"/>
    <polygon class="cls-17" points="550.61 583.95 550.61 598.66 563.35 606 575.89 598.66 575.89 583.95 563.35 576.78 550.61 583.95"/>
    <polygon class="cls-2" points="732.08 527.23 732.08 514.98 721.6 508.89 710.92 514.98 710.92 527.23 721.6 533.28 732.08 527.23"/>
    <polygon class="cls-9" points="638.8 514.58 638.8 507.44 632.72 503.9 626.47 507.44 626.47 514.58 632.72 518.09 638.8 514.58"/>
    <polygon class="cls-14" points="669.68 501.84 669.68 494.7 663.59 491.16 657.42 494.7 657.42 501.84 663.59 505.35 669.68 501.84"/>
    <polygon class="cls-12" points="690.33 551.7 690.33 558.87 696.52 562.39 702.58 558.87 702.58 551.7 696.52 548.19 690.33 551.7"/>
    <polygon class="cls-1" points="935.31 310.37 935.31 317.54 941.48 321.05 947.54 317.54 947.54 310.37 941.48 306.94 935.31 310.37"/>
    <polygon class="cls-1" points="767.95 288.24 767.95 295.38 774.12 298.92 780.2 295.38 780.2 288.24 774.12 284.7 767.95 288.24"/>
    <polygon class="cls-12" points="862.6 306.55 862.6 313.71 868.85 317.23 874.94 313.71 874.94 306.55 868.85 303.03 862.6 306.55"/>
    <polygon class="cls-9" points="894.64 273.93 894.64 287.64 906.58 294.49 918.26 287.64 918.26 273.93 906.58 267.07 894.64 273.93"/>
    <polygon class="cls-6" points="944.71 291.95 944.71 295.38 947.74 297.15 950.68 295.38 950.68 291.95 947.74 290.21 944.71 291.95"/>
    <polygon class="cls-1" points="792.06 134.78 792.06 127.64 785.89 124.1 779.69 127.64 779.69 134.78 785.89 138.33 792.06 134.78"/>
    <polygon class="cls-12" points="742.96 224.35 751.87 229.43 760.7 224.35 760.7 214.07 751.87 208.96 742.96 214.07 742.96 224.35"/>
    <polygon class="cls-18" points="776.18 100.4 776.18 85.52 763.53 78.26 750.59 85.52 750.59 100.4 763.53 107.85 776.18 100.4"/>
    <polygon class="cls-2" points="849.75 244.63 849.75 229.95 837.32 222.78 824.47 229.95 824.47 244.63 837.32 251.88 849.75 244.63"/>
    <polygon class="cls-1" points="960.19 192.79 960.19 196.33 963.22 197.99 966.27 196.33 966.27 192.79 963.22 191.13 960.19 192.79"/>
    <polygon class="cls-12" points="880.82 166.34 880.82 152.32 868.97 145.47 856.8 152.32 856.8 166.34 868.97 173.2 880.82 166.34"/>
    <polygon class="cls-1" points="905.9 194.48 905.9 187.31 899.84 183.88 893.64 187.31 893.64 194.48 899.84 197.99 905.9 194.48"/>
    <polygon class="cls-12" points="895.22 226.89 895.22 221.81 890.82 219.27 886.42 221.81 886.42 226.89 890.82 229.43 895.22 226.89"/>
    <polygon class="cls-12" points="922.26 164.37 922.26 160.95 919.32 159.2 916.29 160.95 916.29 164.37 919.32 166.14 922.26 164.37"/>
    <polygon class="cls-10" points="809.48 189.28 809.48 182.11 803.42 178.68 797.14 182.11 797.14 189.28 803.42 192.9 809.48 189.28"/>
    <polygon class="cls-6" points="860.34 207.7 860.34 214.84 866.63 218.38 872.68 214.84 872.68 207.7 866.63 204.16 860.34 207.7"/>
    <polygon class="cls-6" points="807.34 265.99 807.34 268.53 809.48 269.7 811.65 268.53 811.65 265.99 809.48 264.73 807.34 265.99"/>
    <polygon class="cls-1" points="909.72 485.67 909.72 492.81 915.89 496.36 921.98 492.81 921.98 485.67 915.89 482.13 909.72 485.67"/>
    <polygon class="cls-9" points="857 491.56 857 484.39 850.95 480.88 844.66 484.39 844.66 491.56 850.95 495.07 857 491.56"/>
    <polygon class="cls-12" points="849.75 509.78 849.75 521.23 859.74 526.91 869.54 521.23 869.54 509.78 859.74 504.1 849.75 509.78"/>
    <polygon class="cls-12" points="892.59 490.56 892.59 483.42 886.5 479.88 880.34 483.42 880.34 490.56 886.5 494.1 892.59 490.56"/>
    <polygon class="cls-6" points="767.64 530.14 767.64 524.97 763.24 522.4 758.73 524.97 758.73 530.14 763.24 532.71 767.64 530.14"/>
    <polygon class="cls-6" points="783.17 691.39 783.17 686.19 778.78 683.65 774.26 686.19 774.26 691.39 778.78 693.93 783.17 691.39"/>
    <polygon class="cls-6" points="645.66 482.05 648.6 483.82 651.63 482.05 651.63 478.62 648.6 476.96 645.66 478.62 645.66 482.05"/>
    <polygon class="cls-6" points="671.05 585.52 671.05 569.55 657.51 561.82 643.69 569.55 643.69 585.52 657.51 593.35 671.05 585.52"/>
    <polygon class="cls-1" points="617.15 607.94 617.15 615.11 623.32 618.62 629.38 615.11 629.38 607.94 623.32 604.43 617.15 607.94"/>
    <polygon class="cls-1" points="483.09 537.6 483.09 542.31 487.21 544.65 491.23 542.31 491.23 537.6 487.21 535.25 483.09 537.6"/>
    <polygon class="cls-1" points="686.61 692.31 686.61 699.47 692.78 702.99 698.87 699.47 698.87 692.31 692.78 688.79 686.61 692.31"/>
    <polygon class="cls-4" points="701.12 733.49 701.12 741.4 707.95 745.29 714.63 741.4 714.63 733.49 707.95 729.61 701.12 733.49"/>
    <polygon class="cls-12" points="716.17 629.22 716.17 636.36 722.34 639.9 728.42 636.36 728.42 629.22 722.34 625.79 716.17 629.22"/>
    <polygon class="cls-12" points="610.96 676.74 610.96 681.34 614.98 683.68 619.01 681.34 619.01 676.74 614.98 674.4 610.96 676.74"/>
    <polygon class="cls-12" points="651.97 729.63 651.97 735.52 657.08 738.37 661.97 735.52 661.97 729.63 657.08 726.81 651.97 729.63"/>
    <polygon class="cls-9" points="616.27 635.99 616.27 632.24 613.13 630.5 609.99 632.24 609.99 635.99 613.13 637.73 616.27 635.99"/>
    <polygon class="cls-12" points="520.14 556.99 520.14 564.16 526.31 567.78 532.39 564.16 532.39 556.99 526.31 553.56 520.14 556.99"/>
    <polygon class="cls-1" points="666.62 625.3 666.62 632.44 672.79 635.99 678.87 632.44 678.87 625.3 672.79 621.76 666.62 625.3"/>
    <polygon class="cls-1" points="898.27 530.26 898.27 526.03 894.64 523.89 890.9 526.03 890.9 530.26 894.64 532.4 898.27 530.26"/>
    <polygon class="cls-1" points="730.28 666.66 730.28 680.17 742.02 686.82 753.59 680.17 753.59 666.66 742.02 659.98 730.28 666.66"/>
    <polygon class="cls-1" points="896.79 592.29 896.79 604.43 907.38 610.4 917.66 604.43 917.66 592.29 907.38 586.21 896.79 592.29"/>
    <polygon class="cls-12" points="953.68 557.1 953.68 561.62 957.59 563.87 961.42 561.62 961.42 557.1 957.59 554.85 953.68 557.1"/>
    <polygon class="cls-2" points="855.83 601.97 855.83 606.4 859.66 608.54 863.37 606.4 863.37 601.97 859.66 599.83 855.83 601.97"/>
    <polygon class="cls-2" points="798.57 652.86 798.57 658.66 803.57 661.49 808.45 658.66 808.45 652.86 803.57 650.04 798.57 652.86"/>
    <polygon class="cls-12" points="847.18 647.35 847.18 651.58 850.8 653.64 854.4 651.58 854.4 647.35 850.8 645.3 847.18 647.35"/>
    <polygon class="cls-12" points="859.66 569.36 859.66 576.5 865.83 580.04 871.91 576.5 871.91 569.36 865.83 565.81 859.66 569.36"/>
    <polygon class="cls-6" points="907.27 557.3 907.27 550.13 901.21 546.62 894.93 550.13 894.93 557.3 901.21 560.82 907.27 557.3"/>
    <polygon class="cls-9" points="753.53 608.63 753.53 605.11 750.5 603.34 747.36 605.11 747.36 608.63 750.5 610.4 753.53 608.63"/>
    <polygon class="cls-6" points="805.57 607.65 805.57 616.56 813.31 620.99 820.85 616.56 820.85 607.65 813.31 603.34 805.57 607.65"/>
    <polygon class="cls-17" points="977.84 469.71 977.84 477.13 984.38 480.88 990.75 477.13 990.75 469.71 984.38 465.97 977.84 469.71"/>
    <polygon class="cls-6" points="1008.6 430.81 1008.6 425.7 1004.29 423.16 999.77 425.7 999.77 430.81 1004.29 433.35 1008.6 430.81"/>
    <polygon class="cls-1" points="942.37 220.84 942.37 224.75 945.8 226.69 949.11 224.75 949.11 220.84 945.8 218.95 942.37 220.84"/>
    <polygon class="cls-6" points="941.37 193.1 941.37 185.94 935.31 182.42 929.12 185.94 929.12 193.1 935.31 196.62 941.37 193.1"/>
    <polygon class="cls-1" points="1000.06 300.29 1000.06 296.75 997.03 295.09 994.09 296.75 994.09 300.29 997.03 301.95 1000.06 300.29"/>
    <polygon class="cls-6" points="957.05 254.62 957.05 261.79 963.33 265.3 969.41 261.79 969.41 254.62 963.33 251.2 957.05 254.62"/>
    <polyline class="cls-4" points="1000.17 530.66 1004.57 528.09 1009 530.66 1009 535.74 1004.57 538.28 1000.17 535.74 1000.17 530.66"/>
    <polyline class="cls-11" points="999.77 358.01 1004.2 355.55 1008.6 358.1 1008.6 363.18 1004.2 365.64 999.77 363.09 999.77 358.01"/>
    <polyline class="cls-4" points="1017.32 434.72 1023.49 431.21 1029.78 434.72 1029.78 441.89 1023.49 445.4 1017.32 441.89 1017.32 434.72"/>
    <polyline class="cls-8" points="1056.42 459.43 1066.53 453.74 1076.53 459.43 1076.53 470.97 1066.53 476.65 1056.42 470.97 1056.42 459.43"/>
    <polyline class="cls-9" points="1132.96 492.93 1136.11 491.16 1139.33 492.93 1139.33 496.56 1136.11 498.33 1132.96 496.56 1132.96 492.93"/>
    <polyline class="cls-4" points="1126.88 440.81 1133.05 437.38 1139.33 440.89 1139.33 448.06 1133.05 451.49 1126.88 447.95 1126.88 440.81"/>
    <polyline class="cls-4" points="1021.27 478.73 1025.58 476.28 1029.86 478.73 1029.86 483.7 1025.58 486.16 1021.27 483.7 1021.27 478.73"/>
    <polygon class="cls-1" points="1091.81 452.37 1091.81 457.06 1095.92 459.43 1099.95 457.06 1099.95 452.37 1095.92 450.12 1091.81 452.37"/>
    <polygon class="cls-9" points="1024.58 519.17 1024.58 524 1028.89 526.43 1033 524 1033 519.17 1028.89 516.75 1024.58 519.17"/>
    <polygon class="cls-12" points="1108.17 463.54 1108.17 474.59 1117.77 480.1 1127.17 474.59 1127.17 463.54 1117.77 458.14 1108.17 463.54"/>
    <polygon class="cls-12" points="1053.28 490.59 1053.28 497.73 1059.48 501.27 1065.53 497.73 1065.53 490.59 1059.48 487.04 1053.28 490.59"/>
    <polygon class="cls-12" points="1096.01 441.21 1096.01 436.49 1092.09 434.24 1088.07 436.49 1088.07 441.21 1092.09 443.43 1096.01 441.21"/>
    <polygon class="cls-9" points="1054.85 440.41 1054.85 436.29 1051.43 434.24 1047.8 436.29 1047.8 440.41 1051.43 442.38 1054.85 440.41"/>
    <polygon class="cls-1" points="1077.1 496.16 1077.1 500.87 1081.21 503.21 1085.24 500.87 1085.24 496.16 1081.21 493.81 1077.1 496.16"/>
    <polygon class="cls-12" points="1114.14 515.55 1114.14 522.72 1120.31 526.34 1126.4 522.72 1126.4 515.55 1120.31 512.12 1114.14 515.55"/>
    <g>
      <polyline class="cls-4" points="291.94 291.81 288.29 293.92 284.54 291.81 284.54 287.58 288.29 285.47 291.94 287.58 291.94 291.81"/>
      <polyline class="cls-4" points="345.29 246.28 340.81 248.83 336.38 246.28 336.38 241.17 340.81 238.63 345.29 241.17 345.29 246.28"/>
      <polyline class="cls-4" points="296.71 188.96 290.54 192.48 284.26 188.96 284.26 181.79 290.54 178.28 296.71 181.79 296.71 188.96"/>
      <polyline class="cls-15" points="233.99 158.58 227.82 162.12 221.54 158.58 221.54 151.44 227.82 147.89 233.99 151.44 233.99 158.58"/>
      <polyline class="cls-4" points="185.67 269.1 179.5 272.64 173.25 269.1 173.25 261.96 179.5 258.42 185.67 261.96 185.67 269.1"/>
      <polyline class="cls-4" points="206.75 194.93 200.49 198.36 194.29 194.85 194.29 187.68 200.49 184.25 206.75 187.79 206.75 194.93"/>
      <polygon class="cls-14" points="291.91 125.85 291.91 133.01 297.97 136.53 304.25 133.01 304.25 125.85 297.97 122.33 291.91 125.85"/>
      <polyline class="cls-4" points="497.57 149.78 491.4 153.29 485.24 149.78 485.24 142.61 491.4 139.1 497.57 142.61 497.57 149.78"/>
      <polyline class="cls-4" points="388.62 117.93 382.33 121.45 376.16 117.93 376.16 110.77 382.33 107.25 388.62 110.77 388.62 117.93"/>
      <polyline class="cls-18" points="158.25 74.21 151.97 77.75 145.8 74.21 145.8 67.07 151.97 63.53 158.25 67.07 158.25 74.21"/>
      <polyline class="cls-4" points="579.28 40.02 573.03 43.56 566.86 40.02 566.86 32.88 573.03 29.34 579.28 32.88 579.28 40.02"/>
      <polyline class="cls-9" points="359.11 145.55 349.12 151.15 339.12 145.47 339.12 133.98 349.12 128.3 359.11 133.98 359.11 145.55"/>
      <polyline class="cls-4" points="40.55 88.63 35.07 91.77 29.59 88.63 29.59 82.26 35.07 79.12 40.55 82.26 40.55 88.63"/>
      <polyline class="cls-2" points="317.47 80.41 307.28 86.18 297.08 80.41 297.08 68.64 307.28 62.96 317.47 68.73 317.47 80.41"/>
      <polyline class="cls-4" points="164.62 102.34 158.45 105.88 152.17 102.34 152.17 95.2 158.45 91.66 164.62 95.2 164.62 102.34"/>
      <polyline class="cls-4" points="89.65 50.99 83.48 54.53 77.23 50.99 77.23 43.85 83.48 40.31 89.65 43.85 89.65 50.99"/>
      <polyline class="cls-4" points="134.83 199.53 130.03 202.27 125.24 199.53 125.24 194.05 130.03 191.31 134.83 194.05 134.83 199.53"/>
      <polyline class="cls-18" points="184.5 138.3 178.24 141.84 172.07 138.3 172.07 131.16 178.24 127.62 184.5 131.16 184.5 138.3"/>
      <polyline class="cls-4" points="67.52 193.48 61.23 196.99 55.06 193.48 55.06 186.31 61.23 182.79 67.52 186.31 67.52 193.48"/>
      <polyline class="cls-4" points="114.24 142.04 110.04 144.38 105.73 142.04 105.73 137.13 110.04 134.67 114.24 137.13 114.24 142.04"/>
      <polyline class="cls-1" points="122.29 174.45 116.12 178 109.84 174.45 109.84 167.31 116.12 163.77 122.29 167.31 122.29 174.45"/>
      <polyline class="cls-4" points="138.34 38.85 132.09 42.36 125.92 38.85 125.92 31.68 132.09 28.17 138.34 31.68 138.34 38.85"/>
      <polyline class="cls-4" points="243.19 63.84 240.16 65.61 237.02 63.84 237.02 60.3 240.16 58.56 243.19 60.3 243.19 63.84"/>
      <polygon class="cls-1" points="330.01 202.87 330.01 214.72 340.12 220.41 350.29 214.72 350.29 202.87 340.12 197.1 330.01 202.87"/>
      <polygon class="cls-1" points="274.86 200.04 274.86 196.5 271.81 194.73 268.78 196.5 268.78 200.04 271.81 201.79 274.86 200.04"/>
      <polygon class="cls-3" points="194.29 163.77 194.29 167.4 197.44 169.26 200.58 167.4 200.58 163.77 197.44 161.92 194.29 163.77"/>
      <polygon class="cls-1" points="215.86 267.73 215.86 260.59 209.69 257.05 203.6 260.59 203.6 267.73 209.69 271.27 215.86 267.73"/>
      <polygon class="cls-10" points="282.09 264.82 282.09 271.96 288.14 275.5 294.43 271.96 294.43 264.82 288.14 261.28 282.09 264.82"/>
      <polygon class="cls-12" points="279.75 233.63 269.06 227.58 258.58 233.63 258.58 245.88 269.06 251.85 279.75 245.88 279.75 233.63"/>
      <polygon class="cls-12" points="386.36 141.24 386.36 148.41 392.44 151.83 398.61 148.41 398.61 141.24 392.44 137.73 386.36 141.24"/>
      <polygon class="cls-12" points="231.94 189.45 231.94 194.16 235.96 196.5 240.16 194.16 240.16 189.45 235.96 187.11 231.94 189.45"/>
      <polygon class="cls-12" points="312.48 201.02 312.48 206.3 316.99 208.96 321.59 206.3 321.59 201.02 316.99 198.36 312.48 201.02"/>
      <polygon class="cls-10" points="298.08 213.84 291.91 210.33 285.83 213.84 285.83 221.01 291.91 224.52 298.08 221.01 298.08 213.84"/>
      <polygon class="cls-10" points="257.13 160.55 257.13 165.14 261.12 167.51 265.15 165.14 265.15 160.55 261.12 158.2 257.13 160.55"/>
      <polygon class="cls-9" points="250.44 294.86 250.44 302.03 256.44 305.55 262.7 302.03 262.7 294.86 256.44 291.35 250.44 294.86"/>
      <polygon class="cls-6" points="207.15 274.79 207.15 281.95 213.23 285.47 219.4 281.95 219.4 274.79 213.23 271.27 207.15 274.79"/>
      <polygon class="cls-2" points="333.84 163.89 327.67 160.35 321.59 163.89 321.59 171.03 327.67 174.57 333.84 171.03 333.84 163.89"/>
      <polygon class="cls-6" points="200.58 27.08 200.58 34.25 206.66 37.77 212.83 34.25 212.83 27.08 206.66 23.57 200.58 27.08"/>
      <polygon class="cls-9" points="300.71 220.89 300.71 228.06 306.79 231.57 312.96 228.06 312.96 220.89 306.79 217.38 300.71 220.89"/>
      <polygon class="cls-2" points="549.5 85.29 549.5 74.52 540.19 69.21 530.79 74.52 530.79 85.29 540.19 90.57 549.5 85.29"/>
      <polygon class="cls-10" points="508.34 39.45 508.34 46.59 514.51 50.1 520.79 46.68 520.79 39.54 514.51 35.91 508.34 39.45"/>
      <polygon class="cls-9" points="449.28 86.46 449.28 95.77 457.39 100.37 465.44 95.89 465.44 86.58 457.39 81.95 449.28 86.46"/>
      <polygon class="cls-9" points="357.33 15.53 357.33 27.18 367.24 32.87 377.32 27.18 377.32 15.53 367.24 9.85 357.33 15.53"/>
      <polygon class="cls-9" points="542.36 60.79 542.36 56.99 539.01 55.1 535.79 56.99 535.79 60.79 539.01 62.67 542.36 60.79"/>
      <polygon class="cls-3" points="475.44 52.87 475.44 48.45 471.61 46.19 467.87 48.45 467.87 52.87 471.61 55.02 475.44 52.87"/>
      <polygon class="cls-1" points="406.44 109.39 406.44 116.56 412.52 120.08 418.8 116.56 418.8 109.39 412.52 105.88 406.44 109.39"/>
      <polygon class="cls-12" points="485.24 111.57 485.24 115.16 488.26 116.85 491.4 115.16 491.4 111.57 488.26 109.79 485.24 111.57"/>
      <polygon class="cls-14" points="370 79.89 370 87.06 376.08 90.57 382.33 87.06 382.33 79.89 376.08 76.38 370 79.89"/>
      <polygon class="cls-9" points="576.06 92.46 576.06 87.83 572.03 85.58 568.12 87.83 568.12 92.46 572.03 94.69 576.06 92.46"/>
      <polygon class="cls-13" points="406.75 80.98 418.6 87.83 430.74 80.98 430.74 66.98 418.6 60.1 406.75 66.98 406.75 80.98"/>
      <polygon class="cls-12" points="485.24 61.67 485.24 70.78 493.06 75.29 501 70.78 501 61.67 493.06 57.07 485.24 61.67"/>
      <polygon class="cls-12" points="433.08 29.63 433.08 36.79 439.17 40.22 445.34 36.79 445.34 29.63 439.17 26.11 433.08 29.63"/>
      <polygon class="cls-2" points="453.28 141.72 453.28 144.87 455.93 146.44 458.67 144.87 458.67 141.72 455.93 140.15 453.28 141.72"/>
      <polygon class="cls-6" points="444.85 127.22 444.85 122.42 440.65 120.08 436.63 122.42 436.63 127.22 440.65 129.59 444.85 127.22"/>
      <polygon class="cls-6" points="545.78 122.22 545.78 112.05 536.96 107.05 528.33 112.05 528.33 122.22 536.96 127.22 545.78 122.22"/>
      <polygon class="cls-2" points="509.63 91.09 509.63 94.69 512.65 96.46 515.91 94.69 515.91 91.09 512.65 89.2 509.63 91.09"/>
      <polygon class="cls-1" points="233.99 129.3 244.56 135.36 255.44 129.3 255.44 116.73 244.56 110.57 233.99 116.73 233.99 129.3"/>
      <polygon class="cls-1" points="231.74 91.37 225.45 87.83 219.4 91.37 219.4 98.51 225.45 102.05 231.74 98.51 231.74 91.37"/>
      <polygon class="cls-3" points="335.01 89.6 331.87 87.83 328.84 89.6 328.84 93.14 331.87 94.89 335.01 93.14 335.01 89.6"/>
      <polygon class="cls-12" points="237.13 35.14 248.87 41.88 260.92 35.14 260.92 21.2 248.87 14.46 237.13 21.2 237.13 35.14"/>
      <polygon class="cls-1" points="285.23 17.77 285.23 24.94 291.31 28.46 297.48 24.94 297.48 17.77 291.31 14.26 285.23 17.77"/>
      <polygon class="cls-10" points="268.78 79.89 274.86 83.43 281.03 79.89 281.03 72.75 274.86 69.21 268.78 72.75 268.78 79.89"/>
      <polygon class="cls-6" points="179.81 72.47 185.87 75.89 192.15 72.47 192.15 65.21 185.87 61.67 179.81 65.21 179.81 72.47"/>
      <polygon class="cls-2" points="345.12 37.57 345.12 34.74 342.66 33.37 340.29 34.74 340.29 37.57 342.66 38.94 345.12 37.57"/>
      <polygon class="cls-8" points="380.19 47.88 380.19 57.56 388.5 62.36 396.93 57.56 396.93 47.88 388.5 43.05 380.19 47.88"/>
      <polygon class="cls-1" points="178.13 40.02 178.13 32.88 171.96 29.34 165.88 32.88 165.88 40.02 171.96 43.56 178.13 40.02"/>
      <polygon class="cls-12" points="83.48 21.72 83.48 14.55 77.23 11.03 71.14 14.55 71.14 21.72 77.23 25.23 83.48 21.72"/>
      <polygon class="cls-9" points="51.44 54.33 51.44 40.62 39.5 33.77 27.82 40.62 27.82 54.33 39.5 61.19 51.44 54.33"/>
      <polygon class="cls-1" points="154.02 193.48 154.02 200.62 160.19 204.16 166.39 200.62 166.39 193.48 160.19 189.93 154.02 193.48"/>
      <polygon class="cls-12" points="203.12 103.91 194.21 98.83 185.38 103.91 185.38 114.19 194.21 119.31 203.12 114.19 203.12 103.91"/>
      <polygon class="cls-18" points="169.9 227.86 169.9 242.74 182.56 250 195.49 242.74 195.49 227.86 182.56 220.41 169.9 227.86"/>
      <polygon class="cls-2" points="96.33 83.63 96.33 98.31 108.76 105.48 121.61 98.31 121.61 83.63 108.76 76.38 96.33 83.63"/>
      <polygon class="cls-12" points="65.26 161.92 65.26 175.94 77.11 182.79 89.28 175.94 89.28 161.92 77.11 155.06 65.26 161.92"/>
      <polygon class="cls-1" points="40.18 133.79 40.18 140.95 46.24 144.38 52.44 140.95 52.44 133.79 46.24 130.27 40.18 133.79"/>
      <polygon class="cls-12" points="50.87 101.37 50.87 106.45 55.26 108.99 59.66 106.45 59.66 101.37 55.26 98.83 50.87 101.37"/>
      <polygon class="cls-12" points="23.82 163.89 23.82 167.31 26.76 169.06 29.79 167.31 29.79 163.89 26.76 162.12 23.82 163.89"/>
      <polygon class="cls-10" points="136.6 138.98 136.6 146.15 142.66 149.58 148.94 146.15 148.94 138.98 142.66 135.36 136.6 138.98"/>
      <polygon class="cls-6" points="85.74 120.56 85.74 113.42 79.45 109.88 73.4 113.42 73.4 120.56 79.45 124.1 85.74 120.56"/>
      <polygon class="cls-6" points="138.74 62.27 138.74 59.73 136.6 58.56 134.43 59.73 134.43 62.27 136.6 63.53 138.74 62.27"/>
      <polygon class="cls-1" points="406.44 166.49 406.44 173.63 412.61 177.17 418.8 173.63 418.8 166.49 412.61 162.94 406.44 166.49"/>
      <polygon class="cls-12" points="377.66 175.77 368.75 170.69 359.93 175.77 359.93 186.06 368.75 191.17 377.66 186.06 377.66 175.77"/>
      <g>
        <polyline class="cls-4" points="291.1 498.18 287.44 496.06 283.7 498.18 283.7 502.4 287.44 504.52 291.1 502.4 291.1 498.18"/>
        <polyline class="cls-4" points="344.45 543.7 339.96 541.16 335.54 543.7 335.54 548.81 339.96 551.36 344.45 548.81 344.45 543.7"/>
        <polyline class="cls-4" points="295.87 601.02 289.7 597.51 283.42 601.02 283.42 608.19 289.7 611.7 295.87 608.19 295.87 601.02"/>
        <polyline class="cls-15" points="233.15 631.41 226.98 627.87 220.7 631.41 220.7 638.55 226.98 642.09 233.15 638.55 233.15 631.41"/>
        <polyline class="cls-4" points="184.83 520.88 178.66 517.34 172.4 520.88 172.4 528.02 178.66 531.56 184.83 528.02 184.83 520.88"/>
        <polyline class="cls-4" points="205.9 595.05 199.65 591.62 193.45 595.14 193.45 602.31 199.65 605.73 205.9 602.19 205.9 595.05"/>
        <polygon class="cls-14" points="291.07 664.14 291.07 656.97 297.12 653.46 303.41 656.97 303.41 664.14 297.12 667.65 291.07 664.14"/>
        <polyline class="cls-4" points="496.73 640.21 490.56 636.69 484.39 640.21 484.39 647.37 490.56 650.89 496.73 647.37 496.73 640.21"/>
        <polyline class="cls-4" points="387.77 672.05 381.49 668.54 375.32 672.05 375.32 679.22 381.49 682.73 387.77 679.22 387.77 672.05"/>
        <polyline class="cls-18" points="157.41 715.78 151.13 712.23 144.96 715.78 144.96 722.92 151.13 726.46 157.41 722.92 157.41 715.78"/>
        <polyline class="cls-4" points="578.44 749.96 572.19 746.42 566.02 749.96 566.02 757.1 572.19 760.64 578.44 757.1 578.44 749.96"/>
        <polyline class="cls-9" points="358.27 644.43 348.28 638.83 338.28 644.52 338.28 656 348.28 661.68 358.27 656 358.27 644.43"/>
        <polyline class="cls-4" points="39.71 701.35 34.23 698.21 28.75 701.35 28.75 707.72 34.23 710.86 39.71 707.72 39.71 701.35"/>
        <polyline class="cls-2" points="316.63 709.58 306.44 703.81 296.24 709.58 296.24 721.34 306.44 727.03 316.63 721.26 316.63 709.58"/>
        <polyline class="cls-4" points="163.78 687.64 157.61 684.1 151.33 687.64 151.33 694.78 157.61 698.33 163.78 694.78 163.78 687.64"/>
        <polyline class="cls-4" points="88.81 738.99 82.64 735.45 76.38 738.99 76.38 746.13 82.64 749.68 88.81 746.13 88.81 738.99"/>
        <polyline class="cls-4" points="133.99 590.45 129.19 587.71 124.39 590.45 124.39 595.94 129.19 598.68 133.99 595.94 133.99 590.45"/>
        <polyline class="cls-18" points="183.66 651.69 177.4 648.15 171.23 651.69 171.23 658.83 177.4 662.37 183.66 658.83 183.66 651.69"/>
        <polyline class="cls-4" points="66.67 596.51 60.39 593 54.22 596.51 54.22 603.68 60.39 607.19 66.67 603.68 66.67 596.51"/>
        <polyline class="cls-4" points="113.4 647.95 109.2 645.6 104.89 647.95 104.89 652.86 109.2 655.31 113.4 652.86 113.4 647.95"/>
        <polyline class="cls-1" points="121.45 615.53 115.28 611.99 109 615.53 109 622.67 115.28 626.21 121.45 622.67 121.45 615.53"/>
        <polyline class="cls-4" points="137.5 751.13 131.25 747.62 125.08 751.13 125.08 758.3 131.25 761.81 137.5 758.3 137.5 751.13"/>
        <polyline class="cls-4" points="242.35 726.14 239.32 724.37 236.18 726.14 236.18 729.68 239.32 731.43 242.35 729.68 242.35 726.14"/>
        <polygon class="cls-1" points="329.17 587.11 329.17 575.26 339.28 569.58 349.45 575.26 349.45 587.11 339.28 592.88 329.17 587.11"/>
        <polygon class="cls-1" points="274.02 589.94 274.02 593.48 270.96 595.25 267.94 593.48 267.94 589.94 270.96 588.2 274.02 589.94"/>
        <polygon class="cls-3" points="193.45 626.21 193.45 622.58 196.59 620.73 199.73 622.58 199.73 626.21 196.59 628.07 193.45 626.21"/>
        <polygon class="cls-1" points="215.01 522.25 215.01 529.39 208.85 532.93 202.76 529.39 202.76 522.25 208.85 518.71 215.01 522.25"/>
        <polygon class="cls-10" points="281.25 525.17 281.25 518.03 287.3 514.48 293.58 518.03 293.58 525.17 287.3 528.71 281.25 525.17"/>
        <polygon class="cls-12" points="278.9 556.35 268.22 562.41 257.74 556.35 257.74 544.1 268.22 538.13 278.9 544.1 278.9 556.35"/>
        <polygon class="cls-12" points="385.52 648.74 385.52 641.58 391.6 638.15 397.77 641.58 397.77 648.74 391.6 652.26 385.52 648.74"/>
        <polygon class="cls-12" points="231.09 600.54 231.09 595.82 235.12 593.48 239.32 595.82 239.32 600.54 235.12 602.88 231.09 600.54"/>
        <polygon class="cls-12" points="311.63 588.97 311.63 583.69 316.15 581.03 320.74 583.69 320.74 588.97 316.15 591.62 311.63 588.97"/>
        <polygon class="cls-10" points="297.24 576.15 291.07 579.66 284.99 576.15 284.99 568.98 291.07 565.46 297.24 568.98 297.24 576.15"/>
        <polygon class="cls-10" points="256.28 629.44 256.28 624.84 260.28 622.47 264.31 624.84 264.31 629.44 260.28 631.78 256.28 629.44"/>
        <polygon class="cls-9" points="249.6 495.12 249.6 487.95 255.6 484.44 261.85 487.95 261.85 495.12 255.6 498.63 249.6 495.12"/>
        <polygon class="cls-6" points="206.3 515.2 206.3 508.03 212.39 504.52 218.56 508.03 218.56 515.2 212.39 518.71 206.3 515.2"/>
        <polygon class="cls-2" points="333 626.1 326.83 629.64 320.74 626.1 320.74 618.96 326.83 615.42 333 618.96 333 626.1"/>
        <polygon class="cls-6" points="199.73 762.9 199.73 755.73 205.82 752.22 211.99 755.73 211.99 762.9 205.82 766.41 199.73 762.9"/>
        <polygon class="cls-9" points="299.87 569.09 299.87 561.92 305.95 558.41 312.12 561.92 312.12 569.09 305.95 572.6 299.87 569.09"/>
        <polygon class="cls-2" points="548.65 704.69 548.65 715.46 539.34 720.77 529.95 715.46 529.95 704.69 539.34 699.41 548.65 704.69"/>
        <polygon class="cls-10" points="507.5 750.53 507.5 743.39 513.67 739.88 519.95 743.31 519.95 750.45 513.67 754.07 507.5 750.53"/>
        <polygon class="cls-9" points="448.44 703.52 448.44 694.21 456.55 689.61 464.6 694.1 464.6 703.41 456.55 708.04 448.44 703.52"/>
        <polygon class="cls-9" points="585.8 735.43 585.8 723.78 595.71 718.1 605.79 723.78 605.79 735.43 595.71 741.12 585.8 735.43"/>
        <polygon class="cls-9" points="541.51 729.2 541.51 733 538.17 734.88 534.94 733 534.94 729.2 538.17 727.31 541.51 729.2"/>
        <polygon class="cls-3" points="474.6 737.11 474.6 741.54 470.77 743.79 467.03 741.54 467.03 737.11 470.77 734.97 474.6 737.11"/>
        <polygon class="cls-1" points="405.6 680.59 405.6 673.42 411.68 669.91 417.96 673.42 417.96 680.59 411.68 684.1 405.6 680.59"/>
        <polygon class="cls-12" points="484.39 678.42 484.39 674.82 487.42 673.14 490.56 674.82 490.56 678.42 487.42 680.19 484.39 678.42"/>
        <polygon class="cls-14" points="369.15 710.09 369.15 702.92 375.24 699.41 381.49 702.92 381.49 710.09 375.24 713.6 369.15 710.09"/>
        <polygon class="cls-9" points="575.21 697.53 575.21 702.15 571.19 704.41 567.27 702.15 567.27 697.53 571.19 695.3 575.21 697.53"/>
        <polygon class="cls-13" points="405.91 709.01 417.76 702.15 429.9 709.01 429.9 723 417.76 729.88 405.91 723 405.91 709.01"/>
        <polygon class="cls-12" points="484.39 728.31 484.39 719.2 492.22 714.69 500.16 719.2 500.16 728.31 492.22 732.91 484.39 728.31"/>
        <polygon class="cls-12" points="432.24 760.36 432.24 753.19 438.33 749.76 444.49 753.19 444.49 760.36 438.33 763.87 432.24 760.36"/>
        <polygon class="cls-2" points="452.43 648.26 452.43 645.12 455.09 643.55 457.83 645.12 457.83 648.26 455.09 649.83 452.43 648.26"/>
        <polygon class="cls-6" points="444.01 662.77 444.01 667.57 439.81 669.91 435.78 667.57 435.78 662.77 439.81 660.4 444.01 662.77"/>
        <polygon class="cls-6" points="544.94 667.77 544.94 677.93 536.12 682.93 527.49 677.93 527.49 667.77 536.12 662.77 544.94 667.77"/>
        <polygon class="cls-2" points="508.78 698.9 508.78 695.3 511.81 693.53 515.07 695.3 515.07 698.9 511.81 700.78 508.78 698.9"/>
        <polygon class="cls-1" points="233.15 660.68 243.72 654.63 254.6 660.68 254.6 673.25 243.72 679.42 233.15 673.25 233.15 660.68"/>
        <polygon class="cls-1" points="230.89 698.61 224.61 702.15 218.56 698.61 218.56 691.47 224.61 687.93 230.89 691.47 230.89 698.61"/>
        <polygon class="cls-3" points="334.17 700.38 331.03 702.15 328 700.38 328 696.84 331.03 695.1 334.17 696.84 334.17 700.38"/>
        <polygon class="cls-12" points="277.75 743.87 289.48 737.13 301.54 743.87 301.54 757.81 289.48 764.55 277.75 757.81 277.75 743.87"/>
        <polygon class="cls-1" points="618.37 753.67 618.37 746.5 624.45 742.99 630.62 746.5 630.62 753.67 624.45 757.19 618.37 753.67"/>
        <polygon class="cls-10" points="267.94 710.09 274.02 706.55 280.19 710.09 280.19 717.23 274.02 720.77 267.94 717.23 267.94 710.09"/>
        <polygon class="cls-6" points="178.97 717.52 185.03 714.09 191.31 717.52 191.31 724.77 185.03 728.31 178.97 724.77 178.97 717.52"/>
        <polygon class="cls-2" points="344.28 752.42 344.28 755.25 341.82 756.62 339.45 755.25 339.45 752.42 341.82 751.05 344.28 752.42"/>
        <polygon class="cls-8" points="379.35 742.11 379.35 732.43 387.66 727.63 396.09 732.43 396.09 742.11 387.66 746.93 379.35 742.11"/>
        <polygon class="cls-1" points="177.29 749.96 177.29 757.1 171.12 760.64 165.03 757.1 165.03 749.96 171.12 746.42 177.29 749.96"/>
        <polygon class="cls-12" points="227.71 561.39 227.71 568.56 221.45 572.07 215.37 568.56 215.37 561.39 221.45 557.87 227.71 561.39"/>
        <polygon class="cls-9" points="50.59 735.65 50.59 749.36 38.66 756.22 26.97 749.36 26.97 735.65 38.66 728.8 50.59 735.65"/>
        <polygon class="cls-1" points="153.18 596.51 153.18 589.37 159.35 585.83 165.55 589.37 165.55 596.51 159.35 600.05 153.18 596.51"/>
        <polygon class="cls-12" points="202.28 686.07 193.37 691.16 184.54 686.07 184.54 675.79 193.37 670.68 202.28 675.79 202.28 686.07"/>
        <polygon class="cls-18" points="169.06 562.12 169.06 547.24 181.71 539.99 194.65 547.24 194.65 562.12 181.71 569.58 169.06 562.12"/>
        <polygon class="cls-2" points="95.49 706.35 95.49 691.67 107.91 684.5 120.77 691.67 120.77 706.35 107.91 713.6 95.49 706.35"/>
        <polygon class="cls-12" points="64.42 628.07 64.42 614.04 76.27 607.19 88.44 614.04 88.44 628.07 76.27 634.92 64.42 628.07"/>
        <polygon class="cls-1" points="39.34 656.2 39.34 649.03 45.4 645.6 51.59 649.03 51.59 656.2 45.4 659.71 39.34 656.2"/>
        <polygon class="cls-12" points="50.02 688.61 50.02 683.53 54.42 680.99 58.82 683.53 58.82 688.61 54.42 691.16 50.02 688.61"/>
        <polygon class="cls-12" points="22.98 626.1 22.98 622.67 25.92 620.93 28.95 622.67 28.95 626.1 25.92 627.87 22.98 626.1"/>
        <polygon class="cls-10" points="135.76 651 135.76 643.83 141.81 640.41 148.1 643.83 148.1 651 141.81 654.63 135.76 651"/>
        <polygon class="cls-6" points="84.89 669.42 84.89 676.56 78.61 680.1 72.56 676.56 72.56 669.42 78.61 665.88 84.89 669.42"/>
        <polygon class="cls-6" points="137.9 727.71 137.9 730.26 135.76 731.43 133.59 730.26 133.59 727.71 135.76 726.46 137.9 727.71"/>
        <polygon class="cls-1" points="405.6 623.5 405.6 616.36 411.76 612.82 417.96 616.36 417.96 623.5 411.76 627.04 405.6 623.5"/>
        <polygon class="cls-12" points="376.82 614.21 367.91 619.29 359.09 614.21 359.09 603.93 367.91 598.82 376.82 603.93 376.82 614.21"/>
        <polyline class="cls-4" points="108.5 212.82 114.67 209.28 120.92 212.82 120.92 219.96 114.67 223.51 108.5 219.96 108.5 212.82"/>
        <polyline class="cls-4" points="87.42 286.99 93.68 283.57 99.87 287.08 99.87 294.25 93.68 297.68 87.42 294.13 87.42 286.99"/>
        <polyline class="cls-18" points="135.92 407.72 142.2 404.18 148.37 407.72 148.37 414.86 142.2 418.4 135.92 414.86 135.92 407.72"/>
        <polyline class="cls-4" points="253.61 393.3 259.1 390.15 264.58 393.3 264.58 399.66 259.1 402.81 253.61 399.66 253.61 393.3"/>
        <polyline class="cls-4" points="129.55 379.59 135.72 376.05 142 379.59 142 386.73 135.72 390.27 129.55 386.73 129.55 379.59"/>
        <polyline class="cls-4" points="204.52 430.94 210.69 427.4 216.94 430.94 216.94 438.08 210.69 441.62 204.52 438.08 204.52 430.94"/>
        <polyline class="cls-4" points="159.34 282.4 164.13 279.65 168.93 282.4 168.93 287.88 164.13 290.62 159.34 287.88 159.34 282.4"/>
        <polyline class="cls-18" points="109.67 343.63 115.93 340.09 122.09 343.63 122.09 350.77 115.93 354.31 109.67 350.77 109.67 343.63"/>
        <polyline class="cls-4" points="226.65 288.45 232.94 284.94 239.1 288.45 239.1 295.62 232.94 299.13 226.65 295.62 226.65 288.45"/>
        <polyline class="cls-4" points="179.93 339.89 184.13 337.55 188.44 339.89 188.44 344.8 184.13 347.26 179.93 344.8 179.93 339.89"/>
        <polyline class="cls-1" points="171.87 307.47 178.04 303.93 184.33 307.47 184.33 314.61 178.04 318.15 171.87 314.61 171.87 307.47"/>
        <polyline class="cls-4" points="155.82 443.08 162.08 439.56 168.25 443.08 168.25 450.24 162.08 453.76 155.82 450.24 155.82 443.08"/>
        <polygon class="cls-3" points="99.87 318.15 99.87 314.53 96.73 312.67 93.59 314.53 93.59 318.15 96.73 320.01 99.87 318.15"/>
        <polygon class="cls-1" points="78.31 214.2 78.31 221.34 84.48 224.88 90.56 221.34 90.56 214.2 84.48 210.65 78.31 214.2"/>
        <polygon class="cls-6" points="87.02 207.14 87.02 199.97 80.94 196.46 74.77 199.97 74.77 207.14 80.94 210.65 87.02 207.14"/>
        <polygon class="cls-6" points="93.59 454.84 93.59 447.67 87.51 444.16 81.34 447.67 81.34 454.84 87.51 458.36 93.59 454.84"/>
        <polygon class="cls-1" points="62.43 390.55 68.72 394.1 74.77 390.55 74.77 383.41 68.72 379.87 62.43 383.41 62.43 390.55"/>
        <polygon class="cls-6" points="114.35 409.46 108.3 406.03 102.02 409.46 102.02 416.71 108.3 420.26 114.35 416.71 114.35 409.46"/>
        <polygon class="cls-1" points="116.04 441.9 116.04 449.04 122.21 452.59 128.29 449.04 128.29 441.9 122.21 438.36 116.04 441.9"/>
        <polygon class="cls-12" points="65.62 253.33 65.62 260.5 71.87 264.01 77.95 260.5 77.95 253.33 71.87 249.82 65.62 253.33"/>
        <polygon class="cls-9" points="242.73 427.6 242.73 441.3 254.67 448.16 266.35 441.3 266.35 427.6 254.67 420.74 242.73 427.6"/>
        <polygon class="cls-1" points="140.14 288.45 140.14 281.31 133.98 277.77 127.78 281.31 127.78 288.45 133.98 291.99 140.14 288.45"/>
        <polygon class="cls-12" points="91.05 378.02 99.96 383.1 108.79 378.02 108.79 367.73 99.96 362.62 91.05 367.73 91.05 378.02"/>
        <polygon class="cls-18" points="124.26 254.06 124.26 239.19 111.61 231.93 98.67 239.19 98.67 254.06 111.61 261.52 124.26 254.06"/>
        <polygon class="cls-2" points="197.84 398.29 197.84 383.61 185.41 376.44 172.56 383.61 172.56 398.29 185.41 405.55 197.84 398.29"/>
        <polygon class="cls-12" points="228.91 320.01 228.91 305.99 217.06 299.13 204.89 305.99 204.89 320.01 217.06 326.86 228.91 320.01"/>
        <polygon class="cls-1" points="253.98 348.14 253.98 340.97 247.93 337.55 241.73 340.97 241.73 348.14 247.93 351.65 253.98 348.14"/>
        <polygon class="cls-12" points="243.3 380.56 243.3 375.47 238.9 372.93 234.51 375.47 234.51 380.56 238.9 383.1 243.3 380.56"/>
        <polygon class="cls-12" points="270.35 318.04 270.35 314.61 267.41 312.87 264.38 314.61 264.38 318.04 267.41 319.81 270.35 318.04"/>
        <polygon class="cls-10" points="157.57 342.94 157.57 335.78 151.51 332.35 145.23 335.78 145.23 342.94 151.51 346.57 157.57 342.94"/>
        <polygon class="cls-6" points="208.43 361.37 208.43 368.51 214.71 372.05 220.77 368.51 220.77 361.37 214.71 357.82 208.43 361.37"/>
        <polygon class="cls-6" points="155.42 419.66 155.42 422.2 157.57 423.37 159.74 422.2 159.74 419.66 157.57 418.4 155.42 419.66"/>
        <polyline class="cls-4" points="358.49 307.21 364.65 303.67 370.94 307.21 370.94 314.35 364.65 317.89 358.49 314.35 358.49 307.21"/>
        <polyline class="cls-18" points="338.61 271.25 344.86 267.71 351.03 271.25 351.03 278.39 344.86 281.93 338.61 278.39 338.61 271.25"/>
        <polyline class="cls-4" points="1015.05 392.46 1021.31 388.95 1027.48 392.46 1027.48 399.63 1021.31 403.14 1015.05 399.63 1015.05 392.46"/>
        <polygon class="cls-6" points="322.53 382.46 322.53 375.3 316.45 371.78 310.28 375.3 310.28 382.46 316.45 385.98 322.53 382.46"/>
        <polygon class="cls-1" points="291.37 318.18 297.65 321.72 303.71 318.18 303.71 311.04 297.65 307.49 291.37 311.04 291.37 318.18"/>
        <polygon class="cls-6" points="343.29 337.08 337.24 333.65 330.95 337.08 330.95 344.34 337.24 347.88 343.29 344.34 343.29 337.08"/>
        <polygon class="cls-1" points="344.98 369.53 344.98 376.67 351.15 380.21 357.23 376.67 357.23 369.53 351.15 365.98 344.98 369.53"/>
        <polygon class="cls-12" points="319.99 305.64 328.9 310.72 337.72 305.64 337.72 295.36 328.9 290.24 319.99 295.36 319.99 305.64"/>
        <polygon class="cls-10" points="386.5 270.57 386.5 263.4 380.45 259.97 374.17 263.4 374.17 270.57 380.45 274.19 386.5 270.57"/>
        <polygon class="cls-6" points="384.36 347.28 384.36 349.82 386.5 350.99 388.67 349.82 388.67 347.28 386.5 346.02 384.36 347.28"/>
      </g>
    </g>
    <path class="cls-16" d="M1357.88,679.32c.28-.3.58-.62.85-.92v.29c-.3.13-.58.42-.85.63Z"/>
    <polyline class="cls-9" points="1284.48 678.25 1286.6 674.26 1284.21 670.43 1279.73 670.59 1277.69 674.57 1280.08 678.4 1284.48 678.25"/>
    <polyline class="cls-2" points="1252.28 743.9 1257.61 733.6 1251.46 723.73 1239.93 724.13 1234.6 734.4 1240.72 744.31 1252.28 743.9"/>
    <polyline class="cls-4" points="1313.04 595.86 1315.04 591.88 1312.77 588.13 1308.37 588.28 1306.25 592.19 1308.64 596.02 1313.04 595.86"/>
    <polyline class="cls-4" points="1347.56 418.28 1349.86 413.88 1347.26 409.66 1342.26 409.83 1339.99 414.23 1342.56 418.45 1347.56 418.28"/>
    <polygon class="cls-6" points="1247.9 586.54 1253.09 586.36 1255.79 590.66 1253.4 595.26 1248.21 595.44 1245.51 591.02 1247.9 586.54"/>
    <polygon class="cls-1" points="1337.09 749.54 1329.93 749.79 1326.2 743.75 1329.5 737.58 1336.67 737.33 1340.39 743.26 1337.09 749.54"/>
    <polygon class="cls-1" points="1250.36 683.07 1243.19 683.32 1239.47 677.28 1242.76 671.08 1249.93 670.83 1253.65 676.78 1250.36 683.07"/>
    <polygon class="cls-4" points="1208.69 670.01 1200.78 670.29 1196.66 663.6 1200.31 656.78 1208.22 656.51 1212.33 663.05 1208.69 670.01"/>
    <polygon class="cls-12" points="1312.37 651.33 1305.24 651.58 1301.48 645.54 1304.81 639.33 1311.95 639.08 1315.58 645.04 1312.37 651.33"/>
    <polygon class="cls-12" points="1268.55 758.14 1263.96 758.3 1261.48 754.36 1263.68 750.25 1268.27 750.09 1270.75 754.03 1268.55 758.14"/>
    <polygon class="cls-12" points="1214.26 719 1208.38 719.2 1205.35 714.19 1208.03 709.21 1213.91 709.01 1216.91 713.79 1214.26 719"/>
    <polygon class="cls-9" points="1309.1 751.41 1312.84 751.28 1314.69 754.36 1313.06 757.56 1309.32 757.69 1307.47 754.61 1309.1 751.41"/>
    <polygon class="cls-1" points="1318.01 700.71 1310.88 700.96 1307.12 694.92 1310.45 688.72 1317.59 688.47 1321.34 694.42 1318.01 700.71"/>
    <polygon class="cls-1" points="1274.46 638.53 1260.96 639.01 1253.9 627.51 1260.15 615.72 1273.65 615.24 1280.73 626.57 1274.46 638.53"/>
    <polygon class="cls-1" points="1342.98 469.54 1330.85 469.96 1324.51 459.58 1330.12 449.09 1342.25 448.67 1348.69 458.73 1342.98 469.54"/>
    <polygon class="cls-2" points="1334.73 510.8 1330.31 510.96 1328.03 507.21 1330.04 503.42 1334.47 503.27 1336.74 506.9 1334.73 510.8"/>
    <polygon class="cls-2" points="1285.87 569.81 1280.07 570.01 1277.07 565.11 1279.73 560.13 1285.52 559.93 1288.52 564.71 1285.87 569.81"/>
    <polygon class="cls-12" points="1289.68 521.04 1285.45 521.18 1283.27 517.63 1285.2 513.96 1289.43 513.81 1291.61 517.34 1289.68 521.04"/>
    <polygon class="cls-9" points="1331.65 613.28 1335.16 613.15 1337.04 616.12 1335.38 619.32 1331.87 619.44 1329.99 616.36 1331.65 613.28"/>
    <polygon class="cls-6" points="1330.8 561.24 1321.9 561.55 1317.21 553.97 1321.37 546.28 1330.27 545.97 1334.84 553.35 1330.8 561.24"/>
    <polyline class="cls-4" points="854.63 634.83 859.12 632.29 863.54 634.83 863.54 639.94 859.12 642.48 854.63 639.94 854.63 634.83"/>
    <polyline class="cls-4" points="903.21 692.15 909.38 688.64 915.66 692.15 915.66 699.32 909.38 702.83 903.21 699.32 903.21 692.15"/>
    <polyline class="cls-15" points="965.93 722.54 972.1 719 978.38 722.54 978.38 729.68 972.1 733.22 965.93 729.68 965.93 722.54"/>
    <polyline class="cls-4" points="1014.25 612.01 1020.42 608.47 1026.68 612.01 1026.68 619.15 1020.42 622.69 1014.25 619.15 1014.25 612.01"/>
    <polyline class="cls-4" points="993.18 686.18 999.43 682.75 1005.63 686.27 1005.63 693.43 999.43 696.86 993.18 693.32 993.18 686.18"/>
    <polygon class="cls-14" points="908.01 755.27 908.01 748.1 901.96 744.59 895.67 748.1 895.67 755.27 901.96 758.78 908.01 755.27"/>
    <polyline class="cls-9" points="840.81 735.56 850.8 729.96 860.8 735.65 860.8 747.13 850.8 752.81 840.81 747.13 840.81 735.56"/>
    <polyline class="cls-4" points="1065.09 681.58 1069.89 678.84 1074.69 681.58 1074.69 687.07 1069.89 689.81 1065.09 687.07 1065.09 681.58"/>
    <polyline class="cls-18" points="1015.43 742.81 1021.68 739.27 1027.85 742.81 1027.85 749.95 1021.68 753.5 1015.43 749.95 1015.43 742.81"/>
    <polyline class="cls-4" points="1132.41 687.64 1138.69 684.12 1144.86 687.64 1144.86 694.81 1138.69 698.32 1132.41 694.81 1132.41 687.64"/>
    <polyline class="cls-4" points="1085.68 739.07 1089.88 736.73 1094.19 739.07 1094.19 743.99 1089.88 746.44 1085.68 743.99 1085.68 739.07"/>
    <polyline class="cls-1" points="1077.63 706.66 1083.8 703.12 1090.08 706.66 1090.08 713.8 1083.8 717.34 1077.63 713.8 1077.63 706.66"/>
    <polygon class="cls-1" points="869.91 678.24 869.91 666.39 859.8 660.7 849.63 666.39 849.63 678.24 859.8 684.01 869.91 678.24"/>
    <polygon class="cls-1" points="925.06 681.07 925.06 684.61 928.12 686.38 931.14 684.61 931.14 681.07 928.12 679.33 925.06 681.07"/>
    <polygon class="cls-3" points="1005.63 717.34 1005.63 713.71 1002.49 711.86 999.35 713.71 999.35 717.34 1002.49 719.2 1005.63 717.34"/>
    <polygon class="cls-1" points="984.07 613.38 984.07 620.52 990.24 624.06 996.32 620.52 996.32 613.38 990.24 609.84 984.07 613.38"/>
    <polygon class="cls-12" points="920.18 647.48 930.86 653.54 941.34 647.48 941.34 635.23 930.86 629.26 920.18 635.23 920.18 647.48"/>
    <polygon class="cls-12" points="813.56 739.87 813.56 732.7 807.48 729.28 801.31 732.7 801.31 739.87 807.48 743.39 813.56 739.87"/>
    <polygon class="cls-12" points="967.99 691.66 967.99 686.95 963.96 684.61 959.76 686.95 959.76 691.66 963.96 694.01 967.99 691.66"/>
    <polygon class="cls-12" points="887.45 680.1 887.45 674.81 882.93 672.16 878.34 674.81 878.34 680.1 882.93 682.75 887.45 680.1"/>
    <polygon class="cls-10" points="901.84 667.27 908.01 670.79 914.09 667.27 914.09 660.1 908.01 656.59 901.84 660.1 901.84 667.27"/>
    <polygon class="cls-10" points="942.8 720.57 942.8 715.97 938.8 713.6 934.77 715.97 934.77 720.57 938.8 722.91 942.8 720.57"/>
    <polygon class="cls-6" points="992.78 606.33 992.78 599.16 986.69 595.64 980.52 599.16 980.52 606.33 986.69 609.84 992.78 606.33"/>
    <polygon class="cls-2" points="866.08 717.22 872.25 720.77 878.34 717.22 878.34 710.08 872.25 706.54 866.08 710.08 866.08 717.22"/>
    <polygon class="cls-9" points="899.21 660.22 899.21 653.05 893.13 649.54 886.96 653.05 886.96 660.22 893.13 663.73 899.21 660.22"/>
    <polygon class="cls-9" points="756.64 722.14 756.64 710.48 746.73 704.8 736.65 710.48 736.65 722.14 746.73 727.82 756.64 722.14"/>
    <polygon class="cls-2" points="746.65 739.39 746.65 736.25 743.99 734.68 741.25 736.25 741.25 739.39 743.99 740.96 746.65 739.39"/>
    <polygon class="cls-6" points="755.07 753.9 755.07 758.69 759.27 761.04 763.3 758.69 763.3 753.9 759.27 751.53 755.07 753.9"/>
    <polygon class="cls-1" points="802.68 680.21 802.68 674.81 798.17 672.16 793.48 674.81 793.48 680.21 798.17 682.84 802.68 680.21"/>
    <polygon class="cls-1" points="972.14 743.13 961.58 737.07 950.69 743.13 950.69 755.7 961.58 761.86 972.14 755.7 972.14 743.13"/>
    <polygon class="cls-1" points="1045.9 687.64 1045.9 680.5 1039.73 676.96 1033.53 680.5 1033.53 687.64 1039.73 691.18 1045.9 687.64"/>
    <polygon class="cls-18" points="1030.02 653.25 1030.02 638.37 1017.37 631.12 1004.43 638.37 1004.43 653.25 1017.37 660.7 1030.02 653.25"/>
    <polygon class="cls-1" points="1214.03 745.64 1214.03 749.18 1217.06 750.84 1220.12 749.18 1220.12 745.64 1217.06 743.99 1214.03 745.64"/>
    <polygon class="cls-12" points="1134.66 719.2 1134.66 705.17 1122.81 698.32 1110.64 705.17 1110.64 719.2 1122.81 726.05 1134.66 719.2"/>
    <polygon class="cls-1" points="1159.74 747.33 1159.74 740.16 1153.68 736.73 1147.49 740.16 1147.49 747.33 1153.68 750.84 1159.74 747.33"/>
    <polygon class="cls-12" points="1176.1 717.22 1176.1 713.8 1173.16 712.06 1170.14 713.8 1170.14 717.22 1173.16 719 1176.1 717.22"/>
    <polygon class="cls-10" points="1063.32 742.13 1063.32 734.96 1057.27 731.53 1050.98 734.96 1050.98 742.13 1057.27 745.76 1063.32 742.13"/>
    <polygon class="cls-6" points="1112.66 754.56 1112.66 761.7 1118.94 765.24 1124.99 761.7 1124.99 754.56 1118.94 751.02 1112.66 754.56"/>
    <polygon class="cls-6" points="1195.21 745.96 1195.21 738.79 1189.16 735.27 1182.96 738.79 1182.96 745.96 1189.16 749.47 1195.21 745.96"/>
    <polyline class="cls-4" points="1035.02 342.51 1034.58 338.31 1038.03 335.75 1041.89 337.47 1042.3 341.75 1038.89 344.23 1035.02 342.51"/>
    <polyline class="cls-4" points="1054.91 409.76 1054.42 404.63 1058.54 401.62 1063.21 403.7 1063.73 408.78 1059.58 411.84 1054.91 409.76"/>
    <polyline class="cls-4" points="1127.04 388.7 1126.34 381.63 1132.1 377.32 1138.65 380.24 1139.31 387.4 1133.59 391.61 1127.04 388.7"/>
    <polyline class="cls-15" points="1180.31 343.76 1179.58 336.68 1185.37 332.38 1191.9 335.29 1192.58 342.47 1186.83 346.66 1180.31 343.76"/>
    <polyline class="cls-4" points="1098.99 254.66 1098.27 247.58 1104.05 243.31 1110.57 246.21 1111.26 253.37 1105.51 257.56 1098.99 254.66"/>
    <polyline class="cls-4" points="1158.18 304.08 1157.59 296.97 1163.32 292.74 1169.87 295.66 1170.48 302.71 1164.7 306.99 1158.18 304.08"/>
    <polygon class="cls-14" points="1186.65 409.98 1180.1 407.07 1174.43 411.17 1175.08 418.34 1181.63 421.26 1187.4 416.94 1186.65 409.98"/>
    <polyline class="cls-4" points="1081.14 588.13 1080.44 581.07 1086.15 576.86 1092.7 579.78 1093.4 586.84 1087.68 591.05 1081.14 588.13"/>
    <polyline class="cls-4" points="1154.54 501.55 1153.89 494.38 1159.61 490.17 1166.16 493.09 1166.86 500.15 1161.09 504.46 1154.54 501.55"/>
    <polyline class="cls-18" points="1288.19 308.88 1287.51 301.7 1293.25 297.51 1299.78 300.41 1300.5 307.49 1294.71 311.79 1288.19 308.88"/>
    <polyline class="cls-4" points="1148.17 707.42 1147.48 700.26 1153.22 696.07 1159.74 698.97 1160.47 706.05 1154.69 710.32 1148.17 707.42"/>
    <polyline class="cls-9" points="1141.31 463.36 1140.27 451.95 1149.52 445.13 1160.01 449.8 1161.14 461.25 1151.88 468.07 1141.31 463.36"/>
    <polyline class="cls-4" points="1322.88 195.5 1322.24 189.21 1327.34 185.48 1333.16 188.07 1333.8 194.35 1328.7 198.09 1322.88 195.5"/>
    <polyline class="cls-2" points="1217.76 451.82 1216.64 440.16 1226.06 433.19 1236.81 437.98 1237.85 449.6 1228.44 456.57 1217.76 451.82"/>
    <polyline class="cls-4" points="1259.9 303.26 1259.17 296.18 1264.96 291.88 1271.49 294.79 1272.17 301.97 1266.42 306.16 1259.9 303.26"/>
    <polyline class="cls-4" points="1337.3 255.66 1336.58 248.58 1342.36 244.31 1348.88 247.21 1349.57 254.36 1343.83 258.56 1337.3 255.66"/>
    <polyline class="cls-4" points="1183.23 236.51 1182.67 231.02 1187.13 227.75 1192.14 229.98 1192.69 235.48 1188.24 238.74 1183.23 236.51"/>
    <polyline class="cls-18" points="1218.96 306.79 1218.27 299.64 1224.02 295.44 1230.54 298.35 1231.27 305.42 1225.49 309.7 1218.96 306.79"/>
    <polyline class="cls-4" points="1216.14 177.48 1215.48 170.31 1221.2 166.1 1227.75 169.02 1228.45 176.09 1222.69 180.4 1216.14 177.48"/>
    <polyline class="cls-4" points="1244.12 241.09 1243.69 236.3 1247.59 233.31 1252.07 235.31 1252.56 240.25 1248.61 243.08 1244.12 241.09"/>
    <polyline class="cls-1" points="1211.23 235.26 1210.51 228.18 1216.3 223.88 1222.82 226.79 1223.5 233.97 1217.76 238.16 1211.23 235.26"/>
    <polyline class="cls-4" points="1328.59 305.08 1327.92 297.94 1333.64 293.73 1340.19 296.64 1340.89 303.71 1335.13 307.99 1328.59 305.08"/>
    <polyline class="cls-4" points="1263.11 390.69 1262.73 387.21 1265.62 385.06 1268.86 386.5 1269.17 390.08 1266.35 392.13 1263.11 390.69"/>
    <polyline class="cls-4" points="1323.31 119.12 1322.61 112.06 1328.38 107.75 1334.92 110.66 1335.58 117.83 1329.86 122.04 1323.31 119.12"/>
    <polygon class="cls-1" points="1100.79 413.46 1089.96 408.64 1080.66 415.56 1081.71 427.16 1092.54 431.98 1101.95 425.04 1100.79 413.46"/>
    <polygon class="cls-1" points="1125.8 364.23 1129.04 365.67 1131.9 363.6 1131.51 360.11 1128.28 358.67 1125.45 360.73 1125.8 364.23"/>
    <polygon class="cls-3" points="1191.71 305.38 1188.39 303.9 1185.42 306.02 1185.84 309.64 1189.15 311.12 1192.13 309 1191.71 305.38"/>
    <polygon class="cls-1" points="1087.97 282.79 1094.49 285.7 1100.23 281.5 1099.47 274.51 1092.95 271.6 1087.24 275.72 1087.97 282.79"/>
    <polygon class="cls-10" points="1063.69 344.48 1057.17 341.58 1051.47 345.67 1052.15 352.85 1058.67 355.75 1064.46 351.46 1063.69 344.48"/>
    <polygon class="cls-12" points="1093.13 355.03 1103.01 347.73 1101.74 335.7 1090.55 330.71 1080.83 337.86 1081.94 350.05 1093.13 355.03"/>
    <polygon class="cls-12" points="1152.94 329.32 1148.64 327.41 1144.86 330.13 1145.29 334.92 1149.6 336.84 1153.44 333.96 1152.94 329.32"/>
    <polygon class="cls-12" points="1109.62 398.2 1104.79 396.05 1100.53 399.09 1101.08 404.37 1105.91 406.52 1110.21 403.4 1109.62 398.2"/>
    <polygon class="cls-10" points="1103.76 379.83 1109.47 375.62 1108.74 368.64 1102.19 365.72 1096.51 369.85 1097.21 376.91 1103.76 379.83"/>
    <polygon class="cls-10" points="1169.1 364.09 1164.9 362.22 1161.11 364.91 1161.63 369.55 1165.83 371.42 1169.61 368.7 1169.1 364.09"/>
    <polygon class="cls-9" points="1049.11 303.35 1042.56 300.44 1036.91 304.49 1037.58 311.63 1044.13 314.55 1049.88 310.26 1049.11 303.35"/>
    <polygon class="cls-6" points="1085.06 271.97 1078.52 269.05 1072.83 273.18 1073.53 280.24 1080.08 283.16 1085.8 278.95 1085.06 271.97"/>
    <polygon class="cls-2" points="1134.84 432.81 1140.59 428.62 1139.83 421.62 1133.31 418.72 1127.6 422.83 1128.32 429.91 1134.84 432.81"/>
    <polygon class="cls-6" points="1314.02 366.72 1307.47 363.8 1301.79 367.93 1302.49 374.99 1309.04 377.91 1314.76 373.7 1314.02 366.72"/>
    <polygon class="cls-9" points="1096.24 379.36 1089.69 376.45 1084.01 380.57 1084.71 387.64 1091.26 390.55 1096.98 386.35 1096.24 379.36"/>
    <polygon class="cls-2" points="1118.93 661.79 1128.77 666.17 1137.41 659.83 1136.38 649.08 1126.54 644.7 1117.89 651.14 1118.93 661.79"/>
    <polygon class="cls-10" points="1177.55 642.84 1171.02 639.94 1165.3 644.14 1165.88 651.28 1172.4 654.18 1178.27 649.92 1177.55 642.84"/>
    <polygon class="cls-9" points="1158.62 569.76 1150.12 565.98 1142.62 571.52 1143.44 580.7 1151.94 584.49 1159.45 579.01 1158.62 569.76"/>
    <polygon class="cls-9" points="1094.82 534.79 1084.17 530.05 1074.95 536.79 1076.04 548.32 1086.69 553.06 1095.98 546.16 1094.82 534.79"/>
    <polygon class="cls-9" points="1144.22 665.24 1147.69 666.78 1150.77 664.5 1150.36 660.78 1146.89 659.24 1143.86 661.42 1144.22 665.24"/>
    <polygon class="cls-3" points="1178.67 607.33 1182.71 609.13 1186.33 606.55 1185.79 602.21 1181.74 600.41 1178.27 602.96 1178.67 607.33"/>
    <polygon class="cls-1" points="1155.1 521.3 1148.55 518.38 1142.86 522.51 1143.52 529.68 1150.07 532.6 1155.83 528.29 1155.1 521.3"/>
    <polygon class="cls-12" points="1121.06 592.4 1117.78 590.94 1115.01 593.02 1115.27 596.57 1118.55 598.04 1121.45 595.89 1121.06 592.4"/>
    <polygon class="cls-14" points="1196.87 500.01 1190.32 497.09 1184.64 501.22 1185.3 508.36 1191.85 511.28 1197.61 506.99 1196.87 500.01"/>
    <polygon class="cls-9" points="1101.58 683.14 1105.81 685.02 1109.5 682.26 1109.03 677.77 1104.81 675.89 1101.18 678.56 1101.58 683.14"/>
    <polygon class="cls-13" points="1180.93 533.15 1169.85 541.19 1171.17 555.06 1183.96 560.75 1195.18 552.47 1193.71 538.84 1180.93 533.15"/>
    <polygon class="cls-12" points="1166.64 612.7 1158.32 608.99 1151.02 614.3 1151.91 623.39 1160.23 627.1 1167.66 621.72 1166.64 612.7"/>
    <polygon class="cls-12" points="1217.13 578.09 1210.58 575.17 1204.98 579.34 1205.6 586.37 1212.15 589.28 1217.87 585.07 1217.13 578.09"/>
    <polygon class="cls-2" points="1106.51 550.94 1103.64 549.66 1101.13 551.45 1101.45 554.59 1104.32 555.87 1106.87 554.01 1106.51 550.94"/>
    <polygon class="cls-6" points="1123.19 549.14 1127.58 551.1 1131.42 548.21 1130.92 543.58 1126.54 541.63 1122.73 544.34 1123.19 549.14"/>
    <polygon class="cls-6" points="1086.71 643.38 1095.99 647.52 1104.15 641.49 1103.09 631.58 1093.8 627.44 1085.73 633.29 1086.71 643.38"/>
    <polygon class="cls-2" points="1129.85 623.01 1126.56 621.55 1123.71 623.59 1124.01 627.29 1127.3 628.75 1130.34 626.55 1129.85 623.01"/>
    <polygon class="cls-12" points="1202.19 726.53 1197.44 724.42 1193.24 727.39 1193.77 732.66 1198.52 734.77 1202.81 731.65 1202.19 726.53"/>
    <polygon class="cls-1" points="1207.05 355.67 1197.22 362.86 1198.33 375.26 1209.81 380.37 1219.87 372.94 1218.53 360.78 1207.05 355.67"/>
    <polygon class="cls-1" points="1242.62 369.03 1248.41 364.73 1247.64 357.76 1241.11 354.86 1235.42 358.95 1236.1 366.13 1242.62 369.03"/>
    <polygon class="cls-3" points="1202.23 464.1 1205.13 461.95 1204.74 458.46 1201.5 457.02 1198.68 459.08 1199 462.66 1202.23 464.1"/>
    <polygon class="cls-12" points="1291.8 396.84 1280.86 404.82 1282.12 418.57 1294.85 424.24 1305.91 415.97 1304.53 402.51 1291.8 396.84"/>
    <polygon class="cls-1" points="1288.1 447.84 1281.55 444.92 1275.86 449.05 1276.56 456.11 1283.11 459.03 1288.83 454.82 1288.1 447.84"/>
    <polygon class="cls-10" points="1238.04 407.54 1232.33 411.66 1233.06 418.74 1239.58 421.64 1245.32 417.44 1244.56 410.45 1238.04 407.54"/>
    <polygon class="cls-6" points="1281.01 329.29 1275.42 333.43 1275.99 340.56 1282.62 343.51 1288.41 339.21 1287.64 332.24 1281.01 329.29"/>
    <polygon class="cls-2" points="1245.66 494.5 1248.24 495.65 1250.49 493.96 1250.2 491.24 1247.62 490.09 1245.4 491.7 1245.66 494.5"/>
    <polygon class="cls-8" points="1221.97 522.34 1213.13 518.41 1205.36 524.05 1206.32 533.7 1215.17 537.63 1223 531.9 1221.97 522.34"/>
    <polygon class="cls-1" points="1311.33 340.95 1317.86 343.85 1323.6 339.66 1322.84 332.66 1316.32 329.75 1310.61 333.87 1311.33 340.95"/>
    <polygon class="cls-1" points="1180.95 256.51 1174.43 253.61 1168.68 257.8 1169.4 264.9 1175.92 267.81 1181.68 263.59 1180.95 256.51"/>
    <polygon class="cls-12" points="1242.8 337.79 1251.07 331.72 1250.02 321.59 1240.63 317.41 1232.37 323.39 1233.41 333.61 1242.8 337.79"/>
    <polygon class="cls-18" points="1143.08 257.03 1129.49 250.98 1117.71 259.59 1119.08 274.36 1132.67 280.41 1144.74 271.62 1143.08 257.03"/>
    <polygon class="cls-2" points="1304.76 248.48 1291.35 242.51 1279.75 250.95 1281.07 265.6 1294.48 271.57 1306.34 262.78 1304.76 248.48"/>
    <polygon class="cls-1" points="1302.33 126.51 1305.56 127.95 1308.31 125.85 1308.04 122.39 1304.8 120.95 1302.05 123.07 1302.33 126.51"/>
    <polygon class="cls-12" points="1245.89 188.26 1233.08 182.55 1221.99 190.59 1223.31 204.49 1236.12 210.2 1247.33 201.87 1245.89 188.26"/>
    <polygon class="cls-1" points="1281.79 176.79 1275.24 173.87 1269.64 178.01 1270.25 185.07 1276.8 187.98 1282.53 183.75 1281.79 176.79"/>
    <polygon class="cls-12" points="1307.05 199.73 1302.41 197.67 1298.3 200.65 1298.83 205.7 1303.48 207.77 1307.59 204.78 1307.05 199.73"/>
    <polygon class="cls-12" points="1260.94 149.6 1257.81 148.2 1255.02 150.18 1255.38 153.66 1258.51 155.05 1261.36 153 1260.94 149.6"/>
    <polygon class="cls-10" points="1237.82 262.76 1231.27 259.84 1225.68 263.98 1226.25 271.11 1232.8 274.03 1238.67 269.77 1237.82 262.76"/>
    <polygon class="cls-6" points="1275.34 223.78 1281.86 226.69 1287.65 222.39 1286.88 215.42 1280.36 212.51 1274.66 216.6 1275.34 223.78"/>
    <polygon class="cls-6" points="1307.03 295.92 1309.35 296.95 1311.29 295.47 1311.1 293.01 1308.78 291.98 1306.75 293.45 1307.03 295.92"/>
    <polygon class="cls-1" points="1320.7 154.19 1324.28 155.79 1327.44 153.44 1327.02 149.63 1323.44 148.04 1320.37 150.3 1320.7 154.19"/>
    <polygon class="cls-6" points="1294.96 143.83 1288.41 140.91 1282.74 145.01 1283.43 152.1 1289.98 155.02 1295.71 150.79 1294.96 143.83"/>
    <polyline class="cls-2" points="999.12 572.92 997.99 561.26 1007.41 554.29 1018.16 559.07 1019.21 570.7 1009.79 577.67 999.12 572.92"/>
    <polygon class="cls-8" points="1047.51 583.61 1038.66 579.67 1030.9 585.31 1031.85 594.96 1040.7 598.89 1048.53 593.16 1047.51 583.61"/>
    <polyline class="cls-4" points="1014.15 241.97 1017.81 244.08 1021.55 241.97 1021.55 237.74 1017.81 235.63 1014.15 237.74 1014.15 241.97"/>
    <polyline class="cls-4" points="960.8 196.45 965.29 198.99 969.71 196.45 969.71 191.33 965.29 188.79 960.8 191.33 960.8 196.45"/>
    <polyline class="cls-4" points="1009.38 139.13 1015.55 142.64 1021.84 139.13 1021.84 131.96 1015.55 128.44 1009.38 131.96 1009.38 139.13"/>
    <polyline class="cls-15" points="1072.1 108.74 1078.27 112.28 1084.55 108.74 1084.55 101.6 1078.27 98.06 1072.1 101.6 1072.1 108.74"/>
    <polyline class="cls-4" points="1120.43 219.27 1126.6 222.81 1132.85 219.27 1132.85 212.13 1126.6 208.58 1120.43 212.13 1120.43 219.27"/>
    <polyline class="cls-4" points="1099.35 145.09 1105.6 148.52 1111.8 145.01 1111.8 137.84 1105.6 134.41 1099.35 137.95 1099.35 145.09"/>
    <polygon class="cls-14" points="1014.18 76.01 1014.18 83.18 1008.13 86.69 1001.84 83.18 1001.84 76.01 1008.13 72.5 1014.18 76.01"/>
    <polyline class="cls-4" points="808.52 99.94 814.69 103.45 820.86 99.94 820.86 92.77 814.69 89.26 808.52 92.77 808.52 99.94"/>
    <polyline class="cls-4" points="917.48 68.1 923.76 71.61 929.93 68.1 929.93 60.93 923.76 57.42 917.48 60.93 917.48 68.1"/>
    <polyline class="cls-18" points="1147.84 24.37 1154.13 27.91 1160.3 24.37 1160.3 17.23 1154.13 13.69 1147.84 17.23 1147.84 24.37"/>
    <polyline class="cls-9" points="946.98 95.71 956.98 101.31 966.97 95.63 966.97 84.15 956.98 78.46 946.98 84.15 946.98 95.71"/>
    <polyline class="cls-4" points="1265.54 38.79 1271.02 41.94 1276.51 38.79 1276.51 32.43 1271.02 29.28 1265.54 32.43 1265.54 38.79"/>
    <polyline class="cls-2" points="988.62 30.57 998.82 36.34 1009.01 30.57 1009.01 18.8 998.82 13.12 988.62 18.89 988.62 30.57"/>
    <polyline class="cls-4" points="1141.48 52.5 1147.64 56.04 1153.93 52.5 1153.93 45.36 1147.64 41.82 1141.48 45.36 1141.48 52.5"/>
    <polyline class="cls-4" points="1171.26 149.69 1176.06 152.43 1180.86 149.69 1180.86 144.21 1176.06 141.47 1171.26 144.21 1171.26 149.69"/>
    <polyline class="cls-18" points="1121.6 88.46 1127.85 92 1134.02 88.46 1134.02 81.32 1127.85 77.78 1121.6 81.32 1121.6 88.46"/>
    <polyline class="cls-4" points="1238.58 143.64 1244.86 147.15 1251.03 143.64 1251.03 136.47 1244.86 132.96 1238.58 136.47 1238.58 143.64"/>
    <polyline class="cls-4" points="1191.86 92.2 1196.05 94.54 1200.37 92.2 1200.37 87.29 1196.05 84.83 1191.86 87.29 1191.86 92.2"/>
    <polyline class="cls-1" points="1183.8 124.62 1189.97 128.16 1196.25 124.62 1196.25 117.48 1189.97 113.94 1183.8 117.48 1183.8 124.62"/>
    <polyline class="cls-4" points="1062.91 14 1065.93 15.77 1069.08 14 1069.08 10.46 1065.93 8.72 1062.91 10.46 1062.91 14"/>
    <polyline class="cls-4" points="1335.48 69.47 1341.65 72.98 1347.94 69.47 1347.94 62.3 1341.65 58.79 1335.48 62.3 1335.48 69.47"/>
    <polyline class="cls-4" points="1345.39 30.45 1355.96 36.42 1366.56 30.37 1366.56 18.2 1355.96 12.23 1345.39 18.2 1345.39 30.45"/>
    <polygon class="cls-1" points="976.08 153.03 976.08 164.89 965.97 170.57 955.81 164.89 955.81 153.03 965.97 147.27 976.08 153.03"/>
    <polygon class="cls-1" points="1031.23 150.21 1031.23 146.67 1034.29 144.89 1037.32 146.67 1037.32 150.21 1034.29 151.95 1031.23 150.21"/>
    <polygon class="cls-3" points="1111.8 113.94 1111.8 117.56 1108.66 119.42 1105.52 117.56 1105.52 113.94 1108.66 112.08 1111.8 113.94"/>
    <polygon class="cls-1" points="1090.24 217.89 1090.24 210.75 1096.41 207.21 1102.49 210.75 1102.49 217.89 1096.41 221.44 1090.24 217.89"/>
    <polygon class="cls-10" points="1024.01 214.98 1024.01 222.12 1017.95 225.66 1011.67 222.12 1011.67 214.98 1017.95 211.44 1024.01 214.98"/>
    <polygon class="cls-12" points="1026.35 183.79 1037.03 177.74 1047.51 183.79 1047.51 196.05 1037.03 202.02 1026.35 196.05 1026.35 183.79"/>
    <polygon class="cls-12" points="919.73 91.4 919.73 98.57 913.65 102 907.48 98.57 907.48 91.4 913.65 87.89 919.73 91.4"/>
    <polygon class="cls-12" points="1074.16 139.61 1074.16 144.32 1070.13 146.67 1065.93 144.32 1065.93 139.61 1070.13 137.27 1074.16 139.61"/>
    <polygon class="cls-12" points="993.62 151.18 993.62 156.46 989.11 159.12 984.51 156.46 984.51 151.18 989.11 148.52 993.62 151.18"/>
    <polygon class="cls-10" points="1008.01 164 1014.18 160.49 1020.27 164 1020.27 171.17 1014.18 174.68 1008.01 171.17 1008.01 164"/>
    <polygon class="cls-10" points="1048.97 110.71 1048.97 115.31 1044.97 117.68 1040.94 115.31 1040.94 110.71 1044.97 108.37 1048.97 110.71"/>
    <polygon class="cls-9" points="1055.65 245.03 1055.65 252.2 1049.65 255.71 1043.4 252.2 1043.4 245.03 1049.65 241.51 1055.65 245.03"/>
    <polygon class="cls-6" points="1098.95 224.95 1098.95 232.12 1092.87 235.63 1086.7 232.12 1086.7 224.95 1092.87 221.44 1098.95 224.95"/>
    <polygon class="cls-2" points="972.26 114.05 978.43 110.51 984.51 114.05 984.51 121.19 978.43 124.73 972.26 121.19 972.26 114.05"/>
    <polygon class="cls-9" points="1005.39 171.06 1005.39 178.22 999.3 181.74 993.13 178.22 993.13 171.06 999.3 167.54 1005.39 171.06"/>
    <polygon class="cls-2" points="756.6 35.45 756.6 24.69 765.91 19.37 775.31 24.69 775.31 35.45 765.91 40.74 756.6 35.45"/>
    <polygon class="cls-9" points="856.82 36.62 856.82 45.93 848.71 50.53 840.65 46.05 840.65 36.74 848.71 32.11 856.82 36.62"/>
    <polygon class="cls-9" points="862.81 109.14 862.81 120.79 852.9 126.47 842.82 120.79 842.82 109.14 852.9 103.45 862.81 109.14"/>
    <polygon class="cls-9" points="763.74 10.95 763.74 7.15 767.08 5.26 770.31 7.15 770.31 10.95 767.08 12.83 763.74 10.95"/>
    <polygon class="cls-1" points="899.66 59.56 899.66 66.73 893.57 70.24 887.29 66.73 887.29 59.56 893.57 56.04 899.66 59.56"/>
    <polygon class="cls-12" points="820.86 61.73 820.86 65.33 817.83 67.01 814.69 65.33 814.69 61.73 817.83 59.96 820.86 61.73"/>
    <polygon class="cls-14" points="936.1 30.05 936.1 37.22 930.02 40.74 923.76 37.22 923.76 30.05 930.02 26.54 936.1 30.05"/>
    <polygon class="cls-13" points="899.34 31.14 887.49 37.99 875.35 31.14 875.35 17.15 887.49 10.26 899.34 17.15 899.34 31.14"/>
    <polygon class="cls-12" points="820.86 11.83 820.86 20.94 813.03 25.46 805.09 20.94 805.09 11.83 813.03 7.24 820.86 11.83"/>
    <polygon class="cls-2" points="852.82 91.89 852.82 95.03 850.16 96.6 847.42 95.03 847.42 91.89 850.16 90.32 852.82 91.89"/>
    <polygon class="cls-6" points="861.24 77.38 861.24 72.58 865.44 70.24 869.47 72.58 869.47 77.38 865.44 79.75 861.24 77.38"/>
    <polygon class="cls-2" points="796.47 41.25 796.47 44.85 793.44 46.62 790.19 44.85 790.19 41.25 793.44 39.37 796.47 41.25"/>
    <polygon class="cls-1" points="908.85 151.06 908.85 156.46 904.34 159.12 899.66 156.46 899.66 151.06 904.34 148.44 908.85 151.06"/>
    <polygon class="cls-1" points="1072.1 79.46 1061.54 85.52 1050.65 79.46 1050.65 66.9 1061.54 60.73 1072.1 66.9 1072.1 79.46"/>
    <polygon class="cls-1" points="1074.36 41.54 1080.64 37.99 1086.7 41.54 1086.7 48.68 1080.64 52.22 1074.36 48.68 1074.36 41.54"/>
    <polygon class="cls-3" points="971.09 39.77 974.23 37.99 977.25 39.77 977.25 43.31 974.23 45.05 971.09 43.31 971.09 39.77"/>
    <polygon class="cls-10" points="1037.32 30.05 1031.23 33.6 1025.06 30.05 1025.06 22.91 1031.23 19.37 1037.32 22.91 1037.32 30.05"/>
    <polygon class="cls-6" points="1126.28 22.63 1120.23 26.06 1113.94 22.63 1113.94 15.37 1120.23 11.83 1126.28 15.37 1126.28 22.63"/>
    <polygon class="cls-1" points="1152.07 143.64 1152.07 150.78 1145.9 154.32 1139.7 150.78 1139.7 143.64 1145.9 140.1 1152.07 143.64"/>
    <polygon class="cls-12" points="1102.98 54.07 1111.89 48.99 1120.71 54.07 1120.71 64.36 1111.89 69.47 1102.98 64.36 1102.98 54.07"/>
    <polygon class="cls-18" points="1136.19 178.02 1136.19 192.9 1123.54 200.16 1110.6 192.9 1110.6 178.02 1123.54 170.57 1136.19 178.02"/>
    <polygon class="cls-2" points="1209.76 33.8 1209.76 48.48 1197.34 55.64 1184.49 48.48 1184.49 33.8 1197.34 26.54 1209.76 33.8"/>
    <polygon class="cls-1" points="1320.2 85.63 1320.2 82.09 1323.23 80.43 1326.29 82.09 1326.29 85.63 1323.23 87.29 1320.2 85.63"/>
    <polygon class="cls-12" points="1240.84 112.08 1240.84 126.1 1228.98 132.96 1216.82 126.1 1216.82 112.08 1228.98 105.22 1240.84 112.08"/>
    <polygon class="cls-1" points="1265.91 83.95 1265.91 91.12 1259.86 94.54 1253.66 91.12 1253.66 83.95 1259.86 80.43 1265.91 83.95"/>
    <polygon class="cls-12" points="1255.23 51.53 1255.23 56.62 1250.83 59.16 1246.43 56.62 1246.43 51.53 1250.83 48.99 1255.23 51.53"/>
    <polygon class="cls-12" points="1282.28 114.05 1282.28 117.48 1279.33 119.22 1276.31 117.48 1276.31 114.05 1279.33 112.28 1282.28 114.05"/>
    <polygon class="cls-10" points="1169.49 89.15 1169.49 96.31 1163.44 99.74 1157.15 96.31 1157.15 89.15 1163.44 85.52 1169.49 89.15"/>
    <polygon class="cls-6" points="1220.36 70.72 1220.36 63.58 1226.64 60.04 1232.7 63.58 1232.7 70.72 1226.64 74.27 1220.36 70.72"/>
    <polygon class="cls-6" points="1167.35 12.43 1167.35 9.89 1169.49 8.72 1171.66 9.89 1171.66 12.43 1169.49 13.69 1167.35 12.43"/>
    <polygon class="cls-1" points="1302.38 57.59 1302.38 53.67 1305.81 51.73 1309.12 53.67 1309.12 57.59 1305.81 59.47 1302.38 57.59"/>
    <polygon class="cls-6" points="1301.38 85.32 1301.38 92.49 1295.33 96 1289.13 92.49 1289.13 85.32 1295.33 81.81 1301.38 85.32"/>
    <polygon class="cls-6" points="1317.06 23.8 1317.06 16.63 1323.35 13.12 1329.43 16.63 1329.43 23.8 1323.35 27.23 1317.06 23.8"/>
    <polyline class="cls-4" points="43.68 386.71 48.17 384.17 52.59 386.71 52.59 391.83 48.17 394.37 43.68 391.83 43.68 386.71"/>
    <polyline class="cls-15" points="63.9 306.63 70.07 303.09 76.36 306.63 76.36 313.77 70.07 317.31 63.9 313.77 63.9 306.63"/>
    <polyline class="cls-4" points="48.77 349.35 54.94 345.81 61.19 349.35 61.19 356.49 54.94 360.03 48.77 356.49 48.77 349.35"/>
    <polyline class="cls-4" points="14.94 428.36 21.19 424.93 27.39 428.44 27.39 435.61 21.19 439.04 14.94 435.5 14.94 428.36"/>
    <polyline class="cls-9" points="29.86 487.44 39.86 481.85 49.85 487.53 49.85 499.01 39.86 504.69 29.86 499.01 29.86 487.44"/>
    <polyline class="cls-4" points="7.01 496.21 11.81 493.47 16.61 496.21 16.61 501.69 11.81 504.43 7.01 501.69 7.01 496.21"/>
    <polyline class="cls-4" points="74.33 502.26 80.61 498.75 86.78 502.26 86.78 509.43 80.61 512.95 74.33 509.43 74.33 502.26"/>
    <polyline class="cls-4" points="27.6 553.7 31.8 551.36 36.11 553.7 36.11 558.61 31.8 561.07 27.6 558.61 27.6 553.7"/>
    <polyline class="cls-1" points="19.55 521.29 25.72 517.74 32 521.29 32 528.43 25.72 531.97 19.55 528.43 19.55 521.29"/>
    <polygon class="cls-1" points="58.96 430.12 58.96 418.27 48.85 412.59 38.68 418.27 38.68 430.12 48.85 435.89 58.96 430.12"/>
    <polygon class="cls-1" points="23.03 265.16 23.03 268.7 26.09 270.47 29.12 268.7 29.12 265.16 26.09 263.42 23.03 265.16"/>
    <polygon class="cls-1" points="18.58 350.72 18.58 357.86 24.75 361.4 30.83 357.86 30.83 350.72 24.75 347.18 18.58 350.72"/>
    <polygon class="cls-12" points="18.15 231.57 28.83 237.63 39.31 231.57 39.31 219.32 28.83 213.35 18.15 219.32 18.15 231.57"/>
    <polygon class="cls-12" points="65.96 275.76 65.96 271.04 61.93 268.7 57.73 271.04 57.73 275.76 61.93 278.1 65.96 275.76"/>
    <polygon class="cls-12" points="76.5 431.98 76.5 426.7 71.99 424.04 67.39 426.7 67.39 431.98 71.99 434.64 76.5 431.98"/>
    <polygon class="cls-10" points="40.77 304.66 40.77 300.06 36.77 297.69 32.74 300.06 32.74 304.66 36.77 307 40.77 304.66"/>
    <polygon class="cls-6" points="27.29 343.67 27.29 336.5 21.21 332.99 15.04 336.5 15.04 343.67 21.21 347.18 27.29 343.67"/>
    <polygon class="cls-2" points="55.13 469.11 61.3 472.65 67.39 469.11 67.39 461.97 61.3 458.43 55.13 461.97 55.13 469.11"/>
    <polygon class="cls-9" points="88.26 412.1 88.26 404.93 82.18 401.42 76.01 404.93 76.01 412.1 82.18 415.62 88.26 412.1"/>
    <polygon class="cls-1" points="70.11 327.22 59.55 321.17 48.67 327.22 48.67 339.79 59.55 345.96 70.11 339.79 70.11 327.22"/>
    <polygon class="cls-1" points="155.95 560.27 155.95 563.81 158.98 565.47 162.04 563.81 162.04 560.27 158.98 558.61 155.95 560.27"/>
    <polygon class="cls-12" points="76.58 533.82 76.58 519.8 64.73 512.95 52.56 519.8 52.56 533.82 64.73 540.68 76.58 533.82"/>
    <polygon class="cls-1" points="101.66 561.95 101.66 554.79 95.6 551.36 89.41 554.79 89.41 561.95 95.6 565.47 101.66 561.95"/>
    <polygon class="cls-12" points="118.02 531.85 118.02 528.43 115.08 526.68 112.06 528.43 112.06 531.85 115.08 533.62 118.02 531.85"/>
    <polygon class="cls-6" points="54.58 569.19 54.58 576.33 60.86 579.87 66.91 576.33 66.91 569.19 60.86 565.65 54.58 569.19"/>
    <polygon class="cls-6" points="137.13 560.58 137.13 553.42 131.08 549.9 124.88 553.42 124.88 560.58 131.08 564.1 137.13 560.58"/>
    <polyline class="cls-15" points="285.33 513.81 291.5 510.26 297.78 513.81 297.78 520.95 291.5 524.49 285.33 520.95 285.33 513.81"/>
    <polyline class="cls-4" points="319.26 409.6 325.43 406.06 331.68 409.6 331.68 416.74 325.43 420.28 319.26 416.74 319.26 409.6"/>
    <polyline class="cls-4" points="312.58 477.45 318.83 474.02 325.03 477.53 325.03 484.7 318.83 488.13 312.58 484.59 312.58 477.45"/>
    <polyline class="cls-4" points="106.83 455.6 111.63 452.86 116.42 455.6 116.42 461.09 111.63 463.83 106.83 461.09 106.83 455.6"/>
    <polyline class="cls-4" points="174.14 461.66 180.43 458.15 186.6 461.66 186.6 468.83 180.43 472.34 174.14 468.83 174.14 461.66"/>
    <polyline class="cls-4" points="127.42 513.1 131.62 510.75 135.93 513.1 135.93 518.01 131.62 520.46 127.42 518.01 127.42 513.1"/>
    <polyline class="cls-1" points="119.37 480.68 125.54 477.14 131.82 480.68 131.82 487.82 125.54 491.36 119.37 487.82 119.37 480.68"/>
    <polygon class="cls-3" points="325.03 508.61 325.03 504.98 321.89 503.12 318.74 504.98 318.74 508.61 321.89 510.46 325.03 508.61"/>
    <polygon class="cls-1" points="289.07 410.97 289.07 418.11 295.24 421.65 301.32 418.11 301.32 410.97 295.24 407.43 289.07 410.97"/>
    <polygon class="cls-12" points="287.39 482.93 287.39 478.22 283.36 475.88 279.16 478.22 279.16 482.93 283.36 485.27 287.39 482.93"/>
    <polygon class="cls-6" points="297.78 403.92 297.78 396.75 291.7 393.23 285.53 396.75 285.53 403.92 291.7 407.43 297.78 403.92"/>
    <polygon class="cls-1" points="365.3 478.91 365.3 471.77 359.13 468.22 352.93 471.77 352.93 478.91 359.13 482.45 365.3 478.91"/>
    <polygon class="cls-18" points="335.02 450.84 335.02 435.96 322.37 428.71 309.43 435.96 309.43 450.84 322.37 458.29 335.02 450.84"/>
    <polygon class="cls-1" points="255.77 519.66 255.77 523.21 258.8 524.86 261.85 523.21 261.85 519.66 258.8 518.01 255.77 519.66"/>
    <polygon class="cls-12" points="176.4 493.22 176.4 479.19 164.55 472.34 152.38 479.19 152.38 493.22 164.55 500.07 176.4 493.22"/>
    <polygon class="cls-1" points="201.48 521.35 201.48 514.18 195.42 510.75 189.22 514.18 189.22 521.35 195.42 524.86 201.48 521.35"/>
    <polygon class="cls-12" points="217.84 491.25 217.84 487.82 214.9 486.08 211.87 487.82 211.87 491.25 214.9 493.02 217.84 491.25"/>
    <polygon class="cls-10" points="105.06 516.15 105.06 508.98 99 505.56 92.72 508.98 92.72 516.15 99 519.78 105.06 516.15"/>
    <polygon class="cls-6" points="154.39 528.58 154.39 535.72 160.68 539.26 166.73 535.72 166.73 528.58 160.68 525.04 154.39 528.58"/>
    <polygon class="cls-6" points="236.95 519.98 236.95 512.81 230.89 509.3 224.7 512.81 224.7 519.98 230.89 523.49 236.95 519.98"/>
  </g>
  <g>
    <path class="cls-7" d="M409.87,317.03v24.58h21.01v11.84h-21.01v46.19c0,10.65,2.87,16.63,11.06,16.63,2.87,0,5.77-.29,8.56-1.1l.7,11.64c-2.79,1.19-7.37,2.09-13.03,2.09-6.88,0-12.33-2.29-15.84-6.56-4.18-4.58-5.69-12.24-5.69-22.28v-46.69h-12.62v-11.84h12.54v-20.51l14.33-3.98Z"/>
    <path class="cls-7" d="M460.44,317.52c.29,4.99-3.39,9.26-8.36,9.55h-.99c-5.16,0-8.85-4.29-8.85-9.55s3.89-9.75,9.17-9.75c5.54.12,9.02,4.29,9.02,9.75ZM444.11,427.35v-85.6h14.74v85.6h-14.74Z"/>
    <path class="cls-7" d="M549.64,301.62v103.53c0,7.57.2,16.34.7,22.11h-13.14l-.7-14.83h-.29c-4.47,9.55-14.33,16.83-27.57,16.83-19.5,0-34.56-17.53-34.56-43.5-.2-28.47,16.54-45.99,36.24-45.99,12.33,0,20.72,6.18,24.4,13.14h.29v-51.16h14.62v-.15h0ZM534.9,376.46c0-2.18-.2-4.38-.7-6.56-2.18-9.95-10.16-18.02-21.21-18.02-15.23,0-24.2,14.13-24.2,33.05,0,17.32,8.07,31.66,23.88,31.66,9.87,0,18.8-6.88,21.5-18.63.49-2.18.7-4.47.7-6.76v-14.74h.03Z"/>
    <path class="cls-7" d="M576.02,341.64l17.73,50.58c1.89,5.69,3.89,12.33,5.16,17.53h.29c1.48-5.16,3.19-11.64,5.16-17.93l16.02-50.17h15.52l-21.99,61.02c-10.56,29.36-17.73,44.4-27.68,53.65-7.17,6.76-14.33,9.34-18.02,10.07l-3.69-13.03c4.79-1.68,9.17-4.29,12.85-7.57,5.37-4.79,9.66-10.65,12.33-17.32.61-1.19.99-2.38,1.19-3.69-.09-1.39-.49-2.79-.99-4.09l-29.86-78.95,15.96-.09Z"/>
    <path class="cls-7" d="M653.66,341.64l15.84,48.17c2.7,7.78,4.87,14.83,6.47,21.91h.49c1.89-7.08,4.18-14.13,6.88-21.91l15.73-48.17h15.32l-31.74,85.6h-14.04l-30.76-85.6h15.81Z"/>
    <path class="cls-7" d="M731.43,387.31c.29,21.09,13.03,29.77,27.68,29.77,10.56,0,16.83-2,22.4-4.47l2.5,11.14c-5.16,2.5-14.04,5.28-26.87,5.28-24.9,0-39.72-17.32-39.72-43.21s14.33-46.19,37.92-46.19c26.38,0,33.34,24.58,33.34,40.42,0,2.38-.2,4.87-.49,7.25h-56.76ZM774.52,376.17c.2-9.95-3.89-25.27-20.4-25.27-14.83,0-21.41,14.54-22.49,25.27h42.89Z"/>
    <path class="cls-7" d="M803.5,368.3c0-10.07-.2-18.72-.7-26.67h12.85l.49,16.83h.7c3.69-11.55,12.54-18.8,22.4-18.8,1.39,0,2.79.2,4.18.61v14.74c-1.6-.41-3.28-.61-4.99-.49-10.36,0-17.73,8.36-19.7,20.02-.41,2.38-.61,4.79-.7,7.25v45.7h-14.54v-59.19Z"/>
    <path class="cls-7" d="M852.77,411.42c5.77,3.77,12.45,5.98,19.41,6.18,10.65,0,15.73-5.69,15.73-12.74,0-7.46-4.18-11.46-15.03-15.73-14.54-5.48-21.41-13.93-21.41-24.29,0-13.84,10.56-25.1,27.88-25.1,6.96-.09,13.84,1.8,19.82,5.28l-3.69,11.35c-4.87-3.19-10.65-4.99-16.54-4.99-8.65,0-13.55,5.28-13.55,11.64,0,7.08,4.87,10.24,15.32,14.54,14.04,5.69,21.21,13.14,21.21,25.88,0,15.03-11.06,25.68-30.18,25.68-8.85,0-17.03-2.29-22.69-5.86l3.71-11.84Z"/>
    <path class="cls-7" d="M925.75,387.31c.29,21.09,13.03,29.77,27.68,29.77,10.56,0,16.83-2,22.4-4.47l2.5,11.14c-5.16,2.5-14.04,5.28-26.87,5.28-24.9,0-39.72-17.32-39.72-43.21s14.33-46.19,37.92-46.19c26.38,0,33.34,24.58,33.34,40.3,0,2.38-.2,4.87-.49,7.25h-56.76v.12h0ZM968.84,376.17c.2-9.95-3.89-25.27-20.4-25.27-14.83,0-21.41,14.54-22.6,25.27h43Z"/>
  </g>
</svg>